<svg id="Calque_1" data-name="Calque 1" xmlns="http://www.w3.org/2000/svg" viewBox="0 0 71.22 89.36"><path d="M11.12,87.53,22.34,76.31A6.22,6.22,0,0,0,24,70.74L28,66.79a26.49,26.49,0,0,0,16.32,5.57A27,27,0,1,0,23,61.77L19,65.72a6.19,6.19,0,0,0-5.56,1.7L2.24,78.64a6.3,6.3,0,0,0,0,9A6.4,6.4,0,0,0,11.12,87.53ZM22.87,45.34A21.53,21.53,0,1,1,44.4,66.88,21.61,21.61,0,0,1,22.87,45.34Z" style="fill:#a1a09f"/><path d="M62.48,46.37a1.68,1.68,0,0,0-1.64-1.7,1.46,1.46,0,0,0-.86.26L53,49.1a4.35,4.35,0,0,1,0,1.44,3.39,3.39,0,0,1-3.33,2.64H42.35v-1.7h7.39a1.7,1.7,0,0,0,0-3.4H39.88a3.8,3.8,0,0,0-1.93.55L26.32,54.45l5.76,6a13.12,13.12,0,0,1,9.86-3.83h7.68a1.67,1.67,0,0,0,1-.34l11.3-8.55A1.93,1.93,0,0,0,62.48,46.37Z" style="fill:#579b35"/><path d="M56.77,32.43s-5.09-.68-7.81,2.12c-2,2-2.17,5.32-2.13,7a6.67,6.67,0,0,0-2.1,2.68c-.12-.17-.2-.34-.33-.51,0-1.4-.16-4.08-1.76-5.74-2.26-2.34-6.45-1.75-6.45-1.75s-.54,4.34,1.68,6.68c1.44,1.49,3.74,1.79,5.14,1.83a5.54,5.54,0,0,1,.9,1.74,3.27,3.27,0,0,1,.08.81h1.69A5.82,5.82,0,0,1,48.1,42.8c1.69.05,4.73-.25,6.62-2.21C57.43,37.7,56.77,32.43,56.77,32.43Z" style="fill:#579b35"/><path d="M26.65,21.33a4.78,4.78,0,0,1-6.31,5.53c-3-1.05-4.14-4.52-2.07-7.51,4.67-6.21,1.25-16-6.5-19.35,3.52,6.64-1.88,12.76-5,15.31S1.66,20.51,1,22.05c-3.12,7.61,1.55,14.88,4.72,16.61A13.44,13.44,0,0,1,8.64,23.25S7,29.51,10.57,33.85s3.51,7.55,3.51,7.55a14,14,0,0,0,13-8.76c1.69-3.22,1.83-8.33-.43-11.31" style="fill:#c85f37"/></svg>