<svg id="Calque_1" data-name="Calque 1" xmlns="http://www.w3.org/2000/svg" viewBox="0 0 71.22 89.36"><path d="M39,52.31a15.7,15.7,0,0,1,6.81-1.45h.14a11.23,11.23,0,0,0-6.28-2.08,11.65,11.65,0,0,0-4.42.87A11.47,11.47,0,0,1,39,52.31Z" style="fill:#b4aa7a"/><path d="M29.15,55.57c5.26-.37,8-2.14,8.18-2.26a8.47,8.47,0,0,1,.79-.54C34.06,48.54,26.68,49,26.68,49v6.62Z" style="fill:#b4aa7a"/><path d="M61.4,54.77a9.4,9.4,0,0,0-1.15-.84V49a3.48,3.48,0,0,0,2.57-3.37c0-2.1-2.75-6.81-3.51-6.81s-3.5,4.73-3.5,6.81A3.47,3.47,0,0,0,58.38,49v4a19.89,19.89,0,0,0-5.61-1.5V43.13A4.94,4.94,0,0,0,56.58,38c0-3.14-3.61-9.89-4.74-9.89S47.1,34.84,47.1,38a5,5,0,0,0,3.8,5.15V51.3l-.93,0c-4.38,0-8.44,1.17-11.1,3.21,0,0-4.15,2.9-12.38,3.48H22.87v4.63H63.05V56Z" style="fill:#b4aa7a"/><path d="M30.3,39H32v.59H30.3Z" style="fill:#b4aa7a"/><path d="M32.56,37.87l-1.15-1,.47-.43,1.14,1Z" style="fill:#b4aa7a"/><path d="M36.57,39.29a2,2,0,1,1-2-1.78A1.89,1.89,0,0,1,36.57,39.29Z" style="fill:#b4aa7a"/><path d="M34.26,35.4h.66v1.48h-.66Z" style="fill:#b4aa7a"/><path d="M37.22,39h1.65v.59H37.22Z" style="fill:#b4aa7a"/><path d="M36.62,37.87l1.15-1-.47-.43-1.15,1Z" style="fill:#b4aa7a"/><path d="M32.56,40.67l-1.15,1.06.47.42,1.14-1Z" style="fill:#b4aa7a"/><path d="M34.26,41.66h.66v1.49h-.66Z" style="fill:#b4aa7a"/><path d="M36.62,40.67l1.15,1.06-.47.42-1.15-1Z" style="fill:#b4aa7a"/><path d="M11.12,87.53,22.34,76.31A6.22,6.22,0,0,0,24,70.74L28,66.79a26.49,26.49,0,0,0,16.32,5.57A27,27,0,1,0,23,61.77L19,65.72a6.19,6.19,0,0,0-5.56,1.7L2.24,78.64a6.3,6.3,0,0,0,0,9A6.4,6.4,0,0,0,11.12,87.53ZM22.87,45.34A21.53,21.53,0,1,1,44.4,66.88,21.61,21.61,0,0,1,22.87,45.34Z" style="fill:#a1a09f"/><path d="M26.65,21.33a4.78,4.78,0,0,1-6.31,5.53c-3-1.05-4.14-4.52-2.07-7.51,4.67-6.21,1.25-16-6.5-19.35,3.52,6.64-1.88,12.76-5,15.31S1.66,20.51,1,22.05c-3.12,7.61,1.55,14.88,4.72,16.61A13.44,13.44,0,0,1,8.64,23.25S7,29.51,10.57,33.85s3.51,7.55,3.51,7.55a14,14,0,0,0,13-8.76c1.69-3.22,1.83-8.33-.43-11.31" style="fill:#c85f37"/></svg>