<?xml version="1.0" encoding="UTF-8"?><svg xmlns="http://www.w3.org/2000/svg" xmlns:xlink="http://www.w3.org/1999/xlink" contentScriptType="text/ecmascript" width="375pt" zoomAndPan="magnify" contentStyleType="text/css" viewBox="0 0 375 374.999991" height="374.999991pt" preserveAspectRatio="xMidYMid meet" version="1.2"><defs><clipPath xml:id="clip1" id="clip1"><path d="M 0 7.265625 L 241 7.265625 L 241 313 L 0 313 Z M 0 7.265625 "/></clipPath></defs><g xml:id="surface1" id="surface1"><path style=" stroke:none;fill-rule:nonzero;fill:rgb(50.19989%,79.998779%,15.689087%);fill-opacity:1;" d="M 320.15625 303.605469 C 374.804688 231.113281 310.800781 82.21875 310.800781 82.21875 C 310.800781 82.21875 266.308594 151.429688 217.503906 170.769531 C 184.890625 183.675781 99.441406 244.003906 188.523438 328.710938 C 189.472656 329.613281 190.476562 330.53125 191.519531 331.421875 C 234.617188 309.238281 317.757812 246.785156 309.394531 97.3125 C 309.394531 97.3125 339.105469 267.554688 197.246094 336.011719 C 224.085938 355.882812 271.34375 368.359375 320.15625 303.605469 "/><g clip-rule="nonzero" clip-path="url(#clip1)"><path style=" stroke:none;fill-rule:nonzero;fill:rgb(15.289307%,58.81958%,23.529053%);fill-opacity:1;" d="M 169.792969 184.9375 C 148.742188 129.628906 104.484375 68.667969 15.414062 19.058594 C 15.414062 19.058594 133.054688 67.5625 178.914062 178.675781 C 185.964844 174.230469 192.585938 170.914062 197.84375 168.835938 C 212.9375 162.847656 227.605469 152.101562 240.691406 140.105469 C 193.96875 38.023438 0.199219 7.3125 0.199219 7.3125 C 0.199219 7.3125 44.183594 102.054688 31.824219 167.609375 C 24.085938 208.59375 29.46875 327.496094 154.109375 311.136719 C 105.910156 253.394531 138.03125 208.613281 169.792969 184.9375 "/></g></g></svg>