<?xml version="1.0" encoding="UTF-8"?><svg xmlns="http://www.w3.org/2000/svg" xmlns:xlink="http://www.w3.org/1999/xlink" contentScriptType="text/ecmascript" width="375pt" zoomAndPan="magnify" contentStyleType="text/css" viewBox="0 0 375 374.999991" height="374.999991pt" preserveAspectRatio="xMidYMid meet" version="1.2"><g xml:id="surface1" id="surface1"><path style=" stroke:none;fill-rule:nonzero;fill:rgb(58.428955%,75.689697%,15.289307%);fill-opacity:1;" d="M 149.773438 112.71875 C 187.304688 150.675781 186.980469 211.832031 186.980469 211.832031 C 186.980469 211.832031 125.792969 211.464844 88.246094 173.527344 C 50.699219 135.585938 41.628906 83.714844 51.039062 74.414062 C 60.460938 65.097656 112.238281 74.78125 149.773438 112.71875 Z M 149.773438 112.71875 "/><path style=" stroke:none;fill-rule:nonzero;fill:rgb(40.779114%,64.709473%,17.248535%);fill-opacity:1;" d="M 167.046875 187.441406 C 136.421875 156.480469 105.800781 125.519531 75.175781 94.574219 C 72.472656 91.839844 68.253906 96.058594 70.957031 98.789062 C 101.582031 129.75 132.203125 160.710938 162.828125 191.660156 C 165.53125 194.40625 169.765625 190.1875 167.046875 187.441406 Z M 167.046875 187.441406 "/><path style=" stroke:none;fill-rule:nonzero;fill:rgb(40.779114%,64.709473%,17.248535%);fill-opacity:1;" d="M 150.316406 168.957031 C 144.15625 157.683594 143.039062 146.03125 148.097656 134.117188 C 149.582031 130.617188 144.433594 127.578125 142.9375 131.101562 C 137.011719 145.078125 137.894531 158.683594 145.15625 171.96875 C 147.007812 175.347656 152.167969 172.335938 150.316406 168.957031 Z M 150.316406 168.957031 "/><path style=" stroke:none;fill-rule:nonzero;fill:rgb(40.779114%,64.709473%,17.248535%);fill-opacity:1;" d="M 115.695312 135.027344 C 110.253906 126.035156 108.8125 115.953125 111.5625 105.8125 C 112.5625 102.097656 106.8125 100.507812 105.800781 104.226562 C 102.652344 115.863281 104.285156 127.722656 110.535156 138.039062 C 112.535156 141.332031 117.695312 138.332031 115.695312 135.027344 Z M 115.695312 135.027344 "/><path style=" stroke:none;fill-rule:nonzero;fill:rgb(40.779114%,64.709473%,17.248535%);fill-opacity:1;" d="M 142.199219 161.285156 C 129.351562 154.085938 115.78125 152.703125 102.050781 158.347656 C 98.539062 159.785156 100.082031 165.5625 103.640625 164.105469 C 115.914062 159.066406 127.601562 159.949219 139.1875 166.457031 C 142.554688 168.324219 145.566406 163.167969 142.199219 161.285156 Z M 142.199219 161.285156 "/><path style=" stroke:none;fill-rule:nonzero;fill:rgb(40.779114%,64.709473%,17.248535%);fill-opacity:1;" d="M 108.652344 126.285156 C 98.40625 119.921875 86.542969 118.171875 74.867188 121.199219 C 71.148438 122.152344 72.722656 127.914062 76.457031 126.960938 C 86.644531 124.328125 96.699219 125.914062 105.625 131.441406 C 108.917969 133.46875 111.914062 128.3125 108.652344 126.285156 Z M 108.652344 126.285156 "/><path style=" stroke:none;fill-rule:nonzero;fill:rgb(58.428955%,75.689697%,15.289307%);fill-opacity:1;" d="M 285.761719 173.953125 C 247.785156 211.464844 186.597656 211.144531 186.597656 211.144531 C 186.597656 211.144531 186.964844 149.984375 224.925781 112.457031 C 262.882812 74.925781 314.78125 65.859375 324.085938 75.265625 C 333.40625 84.667969 323.734375 136.421875 285.761719 173.953125 Z M 285.761719 173.953125 "/><path style=" stroke:none;fill-rule:nonzero;fill:rgb(40.779114%,64.709473%,17.248535%);fill-opacity:1;" d="M 211.003906 191.21875 C 241.980469 160.609375 272.953125 130 303.917969 99.394531 C 306.652344 96.6875 302.429688 92.472656 299.695312 95.175781 C 268.722656 125.785156 237.746094 156.390625 206.785156 187 C 204.035156 189.703125 208.269531 193.921875 211.003906 191.21875 Z M 211.003906 191.21875 "/><path style=" stroke:none;fill-rule:nonzero;fill:rgb(40.779114%,64.709473%,17.248535%);fill-opacity:1;" d="M 229.496094 174.496094 C 240.773438 168.339844 252.433594 167.222656 264.355469 172.277344 C 267.855469 173.761719 270.898438 168.617188 267.367188 167.117188 C 253.386719 161.195312 239.773438 162.078125 226.484375 169.335938 C 223.101562 171.175781 226.117188 176.332031 229.496094 174.496094 Z M 229.496094 174.496094 "/><path style=" stroke:none;fill-rule:nonzero;fill:rgb(40.779114%,64.709473%,17.248535%);fill-opacity:1;" d="M 263.441406 139.890625 C 272.441406 134.453125 282.527344 133.011719 292.667969 135.761719 C 296.390625 136.761719 297.976562 131.015625 294.257812 130 C 282.613281 126.855469 270.75 128.488281 260.429688 134.734375 C 257.152344 136.714844 260.148438 141.890625 263.441406 139.890625 Z M 263.441406 139.890625 "/><path style=" stroke:none;fill-rule:nonzero;fill:rgb(40.779114%,64.709473%,17.248535%);fill-opacity:1;" d="M 237.1875 166.382812 C 244.390625 153.542969 245.773438 139.976562 240.125 126.253906 C 238.6875 122.742188 232.910156 124.285156 234.363281 127.839844 C 239.40625 140.109375 238.523438 151.792969 232.011719 163.371094 C 230.144531 166.722656 235.304688 169.734375 237.1875 166.382812 Z M 237.1875 166.382812 "/><path style=" stroke:none;fill-rule:nonzero;fill:rgb(40.779114%,64.709473%,17.248535%);fill-opacity:1;" d="M 272.191406 132.835938 C 278.554688 122.59375 280.304688 110.738281 277.277344 99.070312 C 276.320312 95.351562 270.558594 96.925781 271.515625 100.65625 C 274.144531 110.839844 272.558594 120.890625 267.03125 129.808594 C 265 133.101562 270.160156 136.113281 272.191406 132.835938 Z M 272.191406 132.835938 "/><path style=" stroke:none;fill-rule:nonzero;fill:rgb(69.799805%,79.998779%,9.01947%);fill-opacity:1;" d="M 186.980469 350.785156 C 179.042969 350.785156 172.601562 344.347656 172.601562 336.414062 L 172.601562 182.179688 C 172.601562 174.246094 179.042969 167.808594 186.980469 167.808594 C 194.921875 167.808594 201.359375 174.246094 201.359375 182.179688 L 201.359375 336.414062 C 201.34375 344.347656 194.90625 350.785156 186.980469 350.785156 Z M 186.980469 350.785156 "/><path style=" stroke:none;fill-rule:nonzero;fill:rgb(69.799805%,79.998779%,9.01947%);fill-opacity:1;" d="M 230.234375 96.9375 C 229.925781 150.308594 186.421875 193.320312 186.421875 193.320312 C 186.421875 193.320312 143.40625 149.808594 143.714844 96.453125 C 144.023438 43.082031 174.277344 0 187.523438 0.0742188 C 200.769531 0.132812 230.542969 43.570312 230.234375 96.9375 Z M 230.234375 96.9375 "/><path style=" stroke:none;fill-rule:nonzero;fill:rgb(45.098877%,71.759033%,19.219971%);fill-opacity:1;" d="M 189.582031 161.992188 C 189.832031 118.453125 190.082031 74.925781 190.332031 31.386719 C 190.347656 27.539062 184.378906 27.539062 184.363281 31.386719 C 184.113281 74.925781 183.863281 118.453125 183.613281 161.992188 C 183.601562 165.824219 189.570312 165.824219 189.582031 161.992188 Z M 189.582031 161.992188 "/><path style=" stroke:none;fill-rule:nonzero;fill:rgb(45.098877%,71.759033%,19.219971%);fill-opacity:1;" d="M 190.816406 137.128906 C 194.242188 124.902344 202.007812 115.542969 213.945312 110.882812 C 217.488281 109.503906 215.941406 103.726562 212.355469 105.125 C 198.402344 110.558594 189.097656 121.15625 185.054688 135.539062 C 184.027344 139.242188 189.789062 140.816406 190.816406 137.128906 Z M 190.816406 137.128906 "/><path style=" stroke:none;fill-rule:nonzero;fill:rgb(45.098877%,71.759033%,19.219971%);fill-opacity:1;" d="M 190.347656 88.652344 C 192.773438 78.484375 199.023438 70.152344 208.136719 65.023438 C 211.488281 63.140625 208.476562 57.96875 205.121094 59.863281 C 194.730469 65.714844 187.363281 75.457031 184.585938 87.0625 C 183.703125 90.8125 189.449219 92.398438 190.347656 88.652344 Z M 190.347656 88.652344 "/><path style=" stroke:none;fill-rule:nonzero;fill:rgb(45.098877%,71.759033%,19.219971%);fill-opacity:1;" d="M 190.523438 125.886719 C 186.644531 111.441406 177.441406 100.789062 163.546875 95.175781 C 159.988281 93.734375 158.429688 99.511719 161.960938 100.933594 C 173.851562 105.742188 181.46875 115.21875 184.761719 127.472656 C 185.761719 131.175781 191.523438 129.605469 190.523438 125.886719 Z M 190.523438 125.886719 "/><path style=" stroke:none;fill-rule:nonzero;fill:rgb(45.098877%,71.759033%,19.219971%);fill-opacity:1;" d="M 191.554688 77.425781 C 188.921875 65.785156 181.628906 55.984375 171.308594 50.003906 C 167.972656 48.078125 164.957031 53.238281 168.296875 55.164062 C 177.351562 60.410156 183.480469 68.828125 185.789062 79.011719 C 186.644531 82.757812 192.390625 81.171875 191.554688 77.425781 Z M 191.554688 77.425781 "/><path style=" stroke:none;fill-rule:nonzero;fill:rgb(86.268616%,49.01886%,24.708557%);fill-opacity:1;" d="M 286.539062 317.28125 C 285.820312 317.28125 285.128906 317.339844 284.4375 317.425781 C 280.027344 308.773438 271.042969 302.820312 260.664062 302.820312 C 258.136719 302.820312 255.695312 303.203125 253.371094 303.851562 C 249.359375 294.195312 239.847656 287.390625 228.734375 287.390625 C 223 287.390625 217.707031 289.214844 213.371094 292.285156 C 207.019531 287.539062 199.152344 284.703125 190.613281 284.703125 C 190.070312 284.703125 189.539062 284.761719 188.996094 284.792969 C 188.453125 284.761719 187.921875 284.703125 187.378906 284.703125 C 178.835938 284.703125 170.972656 287.539062 164.621094 292.285156 C 160.269531 289.214844 154.976562 287.390625 149.257812 287.390625 C 138.144531 287.390625 128.617188 294.179688 124.617188 303.851562 C 122.296875 303.1875 119.855469 302.820312 117.324219 302.820312 C 106.945312 302.820312 97.964844 308.773438 93.554688 317.425781 C 92.863281 317.339844 92.15625 317.28125 91.453125 317.28125 C 82.070312 317.28125 74.472656 324.878906 74.472656 334.253906 C 74.472656 343.628906 82.070312 351.222656 91.453125 351.222656 C 94.332031 351.222656 97.050781 350.503906 99.417969 349.226562 C 104.152344 353.515625 110.429688 356.160156 117.324219 356.160156 C 120.53125 356.160156 123.601562 355.558594 126.457031 354.53125 C 131.128906 362.246094 139.582031 367.417969 149.273438 367.417969 C 154.503906 367.417969 159.355469 365.890625 163.472656 363.289062 C 169.046875 370.371094 177.675781 374.941406 187.394531 374.941406 C 197.785156 374.941406 206.945312 369.726562 212.445312 361.773438 C 216.957031 365.285156 222.601562 367.417969 228.761719 367.417969 C 238.449219 367.417969 246.902344 362.246094 251.578125 354.53125 C 254.429688 355.574219 257.488281 356.160156 260.707031 356.160156 C 267.605469 356.160156 273.882812 353.515625 278.613281 349.226562 C 280.996094 350.488281 283.703125 351.222656 286.582031 351.222656 C 295.960938 351.222656 303.5625 343.628906 303.5625 334.253906 C 303.503906 324.878906 295.902344 317.28125 286.539062 317.28125 Z M 286.539062 317.28125 "/><path style=" stroke:none;fill-rule:nonzero;fill:rgb(65.879822%,38.42926%,18.818665%);fill-opacity:1;" d="M 149.875 329.492188 C 149.875 330.046875 149.820312 330.59375 149.710938 331.136719 C 149.605469 331.679688 149.445312 332.207031 149.234375 332.71875 C 149.019531 333.230469 148.761719 333.71875 148.453125 334.175781 C 148.144531 334.636719 147.796875 335.0625 147.402344 335.457031 C 147.011719 335.847656 146.585938 336.195312 146.125 336.503906 C 145.664062 336.8125 145.175781 337.070312 144.664062 337.285156 C 144.152344 337.496094 143.625 337.65625 143.082031 337.765625 C 142.539062 337.871094 141.992188 337.925781 141.4375 337.925781 C 140.882812 337.925781 140.332031 337.871094 139.789062 337.765625 C 139.246094 337.65625 138.71875 337.496094 138.207031 337.285156 C 137.695312 337.070312 137.207031 336.8125 136.746094 336.503906 C 136.289062 336.195312 135.859375 335.847656 135.46875 335.457031 C 135.078125 335.0625 134.726562 334.636719 134.417969 334.175781 C 134.113281 333.71875 133.851562 333.230469 133.640625 332.71875 C 133.429688 332.207031 133.269531 331.679688 133.160156 331.136719 C 133.050781 330.59375 132.996094 330.046875 132.996094 329.492188 C 132.996094 328.9375 133.050781 328.390625 133.160156 327.847656 C 133.269531 327.304688 133.429688 326.777344 133.640625 326.265625 C 133.851562 325.753906 134.113281 325.265625 134.417969 324.804688 C 134.726562 324.34375 135.078125 323.917969 135.46875 323.527344 C 135.859375 323.136719 136.289062 322.785156 136.746094 322.476562 C 137.207031 322.171875 137.695312 321.910156 138.207031 321.699219 C 138.71875 321.488281 139.246094 321.328125 139.789062 321.21875 C 140.332031 321.109375 140.882812 321.058594 141.4375 321.058594 C 141.992188 321.058594 142.539062 321.109375 143.082031 321.21875 C 143.625 321.328125 144.152344 321.488281 144.664062 321.699219 C 145.175781 321.910156 145.664062 322.171875 146.125 322.476562 C 146.585938 322.785156 147.011719 323.136719 147.402344 323.527344 C 147.796875 323.917969 148.144531 324.34375 148.453125 324.804688 C 148.761719 325.265625 149.019531 325.753906 149.234375 326.265625 C 149.445312 326.777344 149.605469 327.304688 149.710938 327.847656 C 149.820312 328.390625 149.875 328.9375 149.875 329.492188 Z M 149.875 329.492188 "/><path style=" stroke:none;fill-rule:nonzero;fill:rgb(65.879822%,38.42926%,18.818665%);fill-opacity:1;" d="M 145.082031 308.480469 C 145.082031 308.792969 145.050781 309.105469 144.988281 309.417969 C 144.929688 309.726562 144.835938 310.027344 144.714844 310.316406 C 144.59375 310.609375 144.449219 310.886719 144.273438 311.148438 C 144.097656 311.410156 143.898438 311.652344 143.675781 311.875 C 143.449219 312.097656 143.207031 312.296875 142.945312 312.472656 C 142.683594 312.648438 142.40625 312.796875 142.113281 312.917969 C 141.824219 313.039062 141.523438 313.128906 141.210938 313.191406 C 140.902344 313.253906 140.589844 313.285156 140.273438 313.285156 C 139.960938 313.285156 139.648438 313.253906 139.335938 313.191406 C 139.027344 313.128906 138.726562 313.039062 138.433594 312.917969 C 138.144531 312.796875 137.867188 312.648438 137.605469 312.472656 C 137.339844 312.296875 137.097656 312.097656 136.875 311.875 C 136.652344 311.652344 136.453125 311.410156 136.277344 311.148438 C 136.101562 310.886719 135.953125 310.609375 135.832031 310.316406 C 135.710938 310.027344 135.621094 309.726562 135.558594 309.417969 C 135.5 309.105469 135.46875 308.792969 135.46875 308.480469 C 135.46875 308.164062 135.5 307.851562 135.558594 307.542969 C 135.621094 307.230469 135.710938 306.929688 135.832031 306.640625 C 135.953125 306.347656 136.101562 306.070312 136.277344 305.808594 C 136.453125 305.546875 136.652344 305.304688 136.875 305.082031 C 137.097656 304.859375 137.339844 304.660156 137.605469 304.484375 C 137.867188 304.308594 138.144531 304.160156 138.433594 304.039062 C 138.726562 303.917969 139.027344 303.828125 139.335938 303.765625 C 139.648438 303.703125 139.960938 303.671875 140.273438 303.671875 C 140.589844 303.671875 140.902344 303.703125 141.210938 303.765625 C 141.523438 303.828125 141.824219 303.917969 142.113281 304.039062 C 142.40625 304.160156 142.683594 304.308594 142.945312 304.484375 C 143.207031 304.660156 143.449219 304.859375 143.675781 305.082031 C 143.898438 305.304688 144.097656 305.546875 144.273438 305.808594 C 144.449219 306.070312 144.59375 306.347656 144.714844 306.640625 C 144.835938 306.929688 144.929688 307.230469 144.988281 307.542969 C 145.050781 307.851562 145.082031 308.164062 145.082031 308.480469 Z M 145.082031 308.480469 "/><path style=" stroke:none;fill-rule:nonzero;fill:rgb(65.879822%,38.42926%,18.818665%);fill-opacity:1;" d="M 126 323.863281 C 126 324.179688 125.96875 324.492188 125.90625 324.800781 C 125.847656 325.109375 125.753906 325.410156 125.632812 325.703125 C 125.511719 325.992188 125.363281 326.269531 125.191406 326.53125 C 125.015625 326.796875 124.816406 327.039062 124.589844 327.261719 C 124.367188 327.484375 124.125 327.683594 123.863281 327.859375 C 123.601562 328.035156 123.324219 328.183594 123.03125 328.304688 C 122.742188 328.421875 122.441406 328.515625 122.128906 328.578125 C 121.820312 328.636719 121.507812 328.667969 121.191406 328.667969 C 120.875 328.667969 120.5625 328.636719 120.253906 328.578125 C 119.945312 328.515625 119.644531 328.421875 119.351562 328.304688 C 119.0625 328.183594 118.785156 328.035156 118.523438 327.859375 C 118.257812 327.683594 118.015625 327.484375 117.792969 327.261719 C 117.570312 327.039062 117.371094 326.796875 117.195312 326.53125 C 117.019531 326.269531 116.871094 325.992188 116.75 325.703125 C 116.628906 325.410156 116.539062 325.109375 116.476562 324.800781 C 116.414062 324.492188 116.386719 324.179688 116.386719 323.863281 C 116.386719 323.546875 116.414062 323.234375 116.476562 322.925781 C 116.539062 322.617188 116.628906 322.316406 116.75 322.023438 C 116.871094 321.734375 117.019531 321.457031 117.195312 321.195312 C 117.371094 320.933594 117.570312 320.6875 117.792969 320.464844 C 118.015625 320.242188 118.257812 320.042969 118.523438 319.867188 C 118.785156 319.691406 119.0625 319.546875 119.351562 319.425781 C 119.644531 319.304688 119.945312 319.210938 120.253906 319.152344 C 120.5625 319.089844 120.875 319.058594 121.191406 319.058594 C 121.507812 319.058594 121.820312 319.089844 122.128906 319.152344 C 122.441406 319.210938 122.742188 319.304688 123.03125 319.425781 C 123.324219 319.546875 123.601562 319.691406 123.863281 319.867188 C 124.125 320.042969 124.367188 320.242188 124.589844 320.464844 C 124.816406 320.6875 125.015625 320.933594 125.191406 321.195312 C 125.363281 321.457031 125.511719 321.734375 125.632812 322.023438 C 125.753906 322.316406 125.847656 322.617188 125.90625 322.925781 C 125.96875 323.234375 126 323.546875 126 323.863281 Z M 126 323.863281 "/><path style=" stroke:none;fill-rule:nonzero;fill:rgb(65.879822%,38.42926%,18.818665%);fill-opacity:1;" d="M 245.007812 329.742188 C 245.007812 330.296875 244.953125 330.84375 244.84375 331.386719 C 244.738281 331.929688 244.578125 332.457031 244.363281 332.96875 C 244.152344 333.480469 243.894531 333.96875 243.585938 334.425781 C 243.277344 334.886719 242.929688 335.3125 242.535156 335.707031 C 242.144531 336.097656 241.71875 336.445312 241.257812 336.753906 C 240.796875 337.0625 240.308594 337.320312 239.796875 337.535156 C 239.285156 337.746094 238.757812 337.90625 238.214844 338.015625 C 237.671875 338.121094 237.125 338.175781 236.570312 338.175781 C 236.015625 338.175781 235.464844 338.121094 234.921875 338.015625 C 234.378906 337.90625 233.851562 337.746094 233.339844 337.535156 C 232.828125 337.320312 232.339844 337.0625 231.878906 336.753906 C 231.421875 336.445312 230.992188 336.097656 230.601562 335.707031 C 230.210938 335.3125 229.859375 334.886719 229.550781 334.425781 C 229.246094 333.96875 228.984375 333.480469 228.773438 332.96875 C 228.5625 332.457031 228.402344 331.929688 228.292969 331.386719 C 228.183594 330.84375 228.128906 330.296875 228.128906 329.742188 C 228.128906 329.1875 228.183594 328.640625 228.292969 328.097656 C 228.402344 327.550781 228.5625 327.023438 228.773438 326.511719 C 228.984375 326 229.246094 325.515625 229.550781 325.054688 C 229.859375 324.59375 230.210938 324.167969 230.601562 323.777344 C 230.992188 323.386719 231.421875 323.035156 231.878906 322.726562 C 232.339844 322.421875 232.828125 322.160156 233.339844 321.949219 C 233.851562 321.738281 234.378906 321.578125 234.921875 321.46875 C 235.464844 321.359375 236.015625 321.308594 236.570312 321.308594 C 237.125 321.308594 237.671875 321.359375 238.214844 321.46875 C 238.757812 321.578125 239.285156 321.738281 239.796875 321.949219 C 240.308594 322.160156 240.796875 322.421875 241.257812 322.726562 C 241.71875 323.035156 242.144531 323.386719 242.535156 323.777344 C 242.929688 324.167969 243.277344 324.59375 243.585938 325.054688 C 243.894531 325.515625 244.152344 326 244.363281 326.511719 C 244.578125 327.023438 244.738281 327.550781 244.84375 328.097656 C 244.953125 328.640625 245.007812 329.1875 245.007812 329.742188 Z M 245.007812 329.742188 "/><path style=" stroke:none;fill-rule:nonzero;fill:rgb(65.879822%,38.42926%,18.818665%);fill-opacity:1;" d="M 242.539062 308.726562 C 242.539062 309.042969 242.507812 309.355469 242.445312 309.664062 C 242.382812 309.976562 242.292969 310.277344 242.171875 310.566406 C 242.050781 310.859375 241.902344 311.136719 241.726562 311.398438 C 241.550781 311.660156 241.351562 311.902344 241.128906 312.125 C 240.90625 312.347656 240.664062 312.546875 240.402344 312.722656 C 240.140625 312.898438 239.863281 313.046875 239.570312 313.167969 C 239.277344 313.289062 238.976562 313.378906 238.667969 313.441406 C 238.359375 313.503906 238.046875 313.535156 237.730469 313.535156 C 237.414062 313.535156 237.101562 313.503906 236.792969 313.441406 C 236.484375 313.378906 236.183594 313.289062 235.890625 313.167969 C 235.597656 313.046875 235.320312 312.898438 235.058594 312.722656 C 234.796875 312.546875 234.554688 312.347656 234.332031 312.125 C 234.109375 311.902344 233.910156 311.660156 233.734375 311.398438 C 233.558594 311.136719 233.410156 310.859375 233.289062 310.566406 C 233.167969 310.277344 233.078125 309.976562 233.015625 309.664062 C 232.953125 309.355469 232.921875 309.042969 232.921875 308.726562 C 232.921875 308.414062 232.953125 308.101562 233.015625 307.792969 C 233.078125 307.480469 233.167969 307.179688 233.289062 306.890625 C 233.410156 306.597656 233.558594 306.320312 233.734375 306.058594 C 233.910156 305.796875 234.109375 305.554688 234.332031 305.332031 C 234.554688 305.109375 234.796875 304.910156 235.058594 304.734375 C 235.320312 304.558594 235.597656 304.410156 235.890625 304.289062 C 236.183594 304.167969 236.484375 304.078125 236.792969 304.015625 C 237.101562 303.953125 237.414062 303.921875 237.730469 303.921875 C 238.046875 303.921875 238.359375 303.953125 238.667969 304.015625 C 238.976562 304.078125 239.277344 304.167969 239.570312 304.289062 C 239.863281 304.410156 240.140625 304.558594 240.402344 304.734375 C 240.664062 304.910156 240.90625 305.109375 241.128906 305.332031 C 241.351562 305.554688 241.550781 305.796875 241.726562 306.058594 C 241.902344 306.320312 242.050781 306.597656 242.171875 306.890625 C 242.292969 307.179688 242.382812 307.480469 242.445312 307.792969 C 242.507812 308.101562 242.539062 308.414062 242.539062 308.726562 Z M 242.539062 308.726562 "/><path style=" stroke:none;fill-rule:nonzero;fill:rgb(65.879822%,38.42926%,18.818665%);fill-opacity:1;" d="M 261.621094 324.113281 C 261.621094 324.429688 261.589844 324.742188 261.527344 325.050781 C 261.464844 325.359375 261.375 325.660156 261.253906 325.953125 C 261.132812 326.242188 260.984375 326.519531 260.808594 326.78125 C 260.632812 327.046875 260.433594 327.289062 260.210938 327.511719 C 259.988281 327.734375 259.746094 327.933594 259.484375 328.109375 C 259.222656 328.285156 258.945312 328.433594 258.652344 328.554688 C 258.359375 328.671875 258.058594 328.765625 257.75 328.828125 C 257.441406 328.886719 257.128906 328.917969 256.8125 328.917969 C 256.496094 328.917969 256.183594 328.886719 255.875 328.824219 C 255.566406 328.765625 255.265625 328.671875 254.972656 328.550781 C 254.679688 328.433594 254.40625 328.285156 254.140625 328.109375 C 253.878906 327.933594 253.636719 327.734375 253.414062 327.511719 C 253.191406 327.289062 252.992188 327.046875 252.816406 326.78125 C 252.640625 326.519531 252.492188 326.242188 252.371094 325.953125 C 252.25 325.660156 252.160156 325.359375 252.097656 325.050781 C 252.035156 324.742188 252.003906 324.429688 252.003906 324.113281 C 252.003906 323.796875 252.035156 323.484375 252.097656 323.175781 C 252.160156 322.867188 252.25 322.566406 252.371094 322.273438 C 252.492188 321.984375 252.640625 321.707031 252.816406 321.445312 C 252.992188 321.179688 253.191406 320.9375 253.414062 320.714844 C 253.636719 320.492188 253.878906 320.292969 254.140625 320.117188 C 254.40625 319.941406 254.679688 319.792969 254.972656 319.675781 C 255.265625 319.554688 255.566406 319.460938 255.875 319.402344 C 256.183594 319.339844 256.496094 319.308594 256.8125 319.308594 C 257.128906 319.308594 257.441406 319.339844 257.75 319.402344 C 258.058594 319.460938 258.359375 319.554688 258.652344 319.675781 C 258.945312 319.792969 259.222656 319.941406 259.484375 320.117188 C 259.746094 320.292969 259.988281 320.492188 260.210938 320.714844 C 260.433594 320.9375 260.632812 321.179688 260.808594 321.445312 C 260.984375 321.707031 261.132812 321.984375 261.253906 322.273438 C 261.375 322.566406 261.464844 322.867188 261.527344 323.175781 C 261.589844 323.484375 261.621094 323.796875 261.621094 324.113281 Z M 261.621094 324.113281 "/></g></svg>