<?xml version="1.0" encoding="UTF-8"?><svg xmlns="http://www.w3.org/2000/svg" xmlns:xlink="http://www.w3.org/1999/xlink" contentScriptType="text/ecmascript" width="375pt" zoomAndPan="magnify" contentStyleType="text/css" viewBox="0 0 375 374.999991" height="374.999991pt" preserveAspectRatio="xMidYMid meet" version="1.2"><defs><clipPath xml:id="clip1" id="clip1"><path d="M 48 1.5 L 92 1.5 L 92 84 L 48 84 Z M 48 1.5 "/></clipPath><clipPath xml:id="clip2" id="clip2"><path d="M 283 1.5 L 327 1.5 L 327 84 L 283 84 Z M 283 1.5 "/></clipPath></defs><g xml:id="surface1" id="surface1"><path style=" stroke:none;fill-rule:nonzero;fill:rgb(100%,100%,100%);fill-opacity:1;" d="M 369.140625 323.800781 C 369.140625 347.371094 350.050781 366.464844 326.5 366.464844 L 48.605469 366.464844 C 25.058594 366.464844 5.96875 347.371094 5.96875 323.800781 L 5.96875 85.195312 C 5.96875 61.636719 25.058594 42.535156 48.605469 42.535156 L 326.5 42.535156 C 350.050781 42.535156 369.140625 61.636719 369.140625 85.195312 L 369.140625 323.800781 "/><path style=" stroke:none;fill-rule:nonzero;fill:rgb(83.918762%,54.119873%,29.40979%);fill-opacity:1;" d="M 369.140625 323.800781 L 363.617188 323.800781 C 363.617188 334.078125 359.472656 343.324219 352.746094 350.066406 C 346.011719 356.792969 336.765625 360.9375 326.5 360.9375 L 48.605469 360.9375 C 38.339844 360.9375 29.09375 356.792969 22.363281 350.066406 C 15.640625 343.324219 11.496094 334.078125 11.492188 323.800781 L 11.492188 85.195312 C 11.496094 74.925781 15.640625 65.675781 22.363281 58.9375 C 29.09375 52.210938 38.339844 48.066406 48.605469 48.0625 L 326.5 48.0625 C 336.765625 48.066406 346.011719 52.210938 352.746094 58.9375 C 359.472656 65.675781 363.617188 74.925781 363.617188 85.195312 L 363.617188 323.800781 L 374.664062 323.800781 L 374.664062 85.195312 C 374.667969 71.90625 369.265625 59.828125 360.558594 51.121094 C 351.859375 42.410156 339.785156 37.003906 326.5 37.007812 L 48.605469 37.007812 C 35.320312 37.003906 23.246094 42.410156 14.550781 51.121094 C 5.84375 59.828125 0.441406 71.90625 0.445312 85.195312 L 0.445312 323.800781 C 0.441406 337.09375 5.84375 349.175781 14.550781 357.878906 C 23.246094 366.59375 35.320312 371.996094 48.605469 371.992188 L 326.5 371.992188 C 339.78125 371.996094 351.859375 366.59375 360.558594 357.878906 C 369.265625 349.175781 374.667969 337.09375 374.664062 323.800781 L 369.140625 323.800781 "/><path style=" stroke:none;fill-rule:nonzero;fill:rgb(83.918762%,54.119873%,29.40979%);fill-opacity:1;" d="M 83.027344 211.425781 C 83.027344 214.691406 80.378906 217.347656 77.101562 217.347656 L 38.507812 217.347656 C 35.230469 217.347656 32.582031 214.691406 32.582031 211.425781 L 32.582031 178.285156 C 32.582031 175.007812 35.230469 172.351562 38.507812 172.351562 L 77.101562 172.351562 C 80.378906 172.351562 83.027344 175.007812 83.027344 178.285156 L 83.027344 211.425781 "/><path style=" stroke:none;fill-rule:nonzero;fill:rgb(83.918762%,54.119873%,29.40979%);fill-opacity:1;" d="M 147.898438 211.425781 C 147.898438 214.691406 145.25 217.347656 141.980469 217.347656 L 103.378906 217.347656 C 100.109375 217.347656 97.453125 214.691406 97.453125 211.425781 L 97.453125 178.285156 C 97.453125 175.007812 100.109375 172.351562 103.378906 172.351562 L 141.980469 172.351562 C 145.25 172.351562 147.898438 175.007812 147.898438 178.285156 L 147.898438 211.425781 "/><path style=" stroke:none;fill-rule:nonzero;fill:rgb(83.918762%,54.119873%,29.40979%);fill-opacity:1;" d="M 212.777344 211.425781 C 212.777344 214.691406 210.125 217.347656 206.855469 217.347656 L 168.253906 217.347656 C 164.984375 217.347656 162.328125 214.691406 162.328125 211.425781 L 162.328125 178.285156 C 162.328125 175.007812 164.984375 172.351562 168.253906 172.351562 L 206.855469 172.351562 C 210.125 172.351562 212.777344 175.007812 212.777344 178.285156 L 212.777344 211.425781 "/><path style=" stroke:none;fill-rule:nonzero;fill:rgb(83.918762%,54.119873%,29.40979%);fill-opacity:1;" d="M 277.65625 211.425781 C 277.65625 214.691406 275 217.347656 271.730469 217.347656 L 233.132812 217.347656 C 229.859375 217.347656 227.207031 214.691406 227.207031 211.425781 L 227.207031 178.285156 C 227.207031 175.007812 229.859375 172.351562 233.132812 172.351562 L 271.730469 172.351562 C 275 172.351562 277.65625 175.007812 277.65625 178.285156 L 277.65625 211.425781 "/><path style=" stroke:none;fill-rule:nonzero;fill:rgb(83.918762%,54.119873%,29.40979%);fill-opacity:1;" d="M 342.523438 211.425781 C 342.523438 214.691406 339.878906 217.347656 336.601562 217.347656 L 297.996094 217.347656 C 294.734375 217.347656 292.082031 214.691406 292.082031 211.425781 L 292.082031 178.285156 C 292.082031 175.007812 294.734375 172.351562 297.996094 172.351562 L 336.601562 172.351562 C 339.878906 172.351562 342.523438 175.007812 342.523438 178.285156 L 342.523438 211.425781 "/><path style=" stroke:none;fill-rule:nonzero;fill:rgb(83.918762%,54.119873%,29.40979%);fill-opacity:1;" d="M 83.027344 269.324219 C 83.027344 272.601562 80.378906 275.253906 77.101562 275.253906 L 38.507812 275.253906 C 35.230469 275.253906 32.582031 272.601562 32.582031 269.324219 L 32.582031 236.191406 C 32.582031 232.914062 35.230469 230.265625 38.507812 230.265625 L 77.101562 230.265625 C 80.378906 230.265625 83.027344 232.914062 83.027344 236.191406 L 83.027344 269.324219 "/><path style=" stroke:none;fill-rule:nonzero;fill:rgb(83.918762%,54.119873%,29.40979%);fill-opacity:1;" d="M 147.898438 269.324219 C 147.898438 272.601562 145.25 275.253906 141.980469 275.253906 L 103.378906 275.253906 C 100.109375 275.253906 97.453125 272.601562 97.453125 269.324219 L 97.453125 236.191406 C 97.453125 232.914062 100.109375 230.265625 103.378906 230.265625 L 141.980469 230.265625 C 145.25 230.265625 147.898438 232.914062 147.898438 236.191406 L 147.898438 269.324219 "/><path style=" stroke:none;fill-rule:nonzero;fill:rgb(83.918762%,54.119873%,29.40979%);fill-opacity:1;" d="M 212.777344 269.324219 C 212.777344 272.601562 210.125 275.253906 206.855469 275.253906 L 168.253906 275.253906 C 164.984375 275.253906 162.328125 272.601562 162.328125 269.324219 L 162.328125 236.191406 C 162.328125 232.914062 164.984375 230.265625 168.253906 230.265625 L 206.855469 230.265625 C 210.125 230.265625 212.777344 232.914062 212.777344 236.191406 L 212.777344 269.324219 "/><path style=" stroke:none;fill-rule:nonzero;fill:rgb(83.918762%,54.119873%,29.40979%);fill-opacity:1;" d="M 277.65625 269.324219 C 277.65625 272.601562 275 275.253906 271.730469 275.253906 L 233.132812 275.253906 C 229.859375 275.253906 227.207031 272.601562 227.207031 269.324219 L 227.207031 236.191406 C 227.207031 232.914062 229.859375 230.265625 233.132812 230.265625 L 271.730469 230.265625 C 275 230.265625 277.65625 232.914062 277.65625 236.191406 L 277.65625 269.324219 "/><path style=" stroke:none;fill-rule:nonzero;fill:rgb(83.918762%,54.119873%,29.40979%);fill-opacity:1;" d="M 342.523438 269.324219 C 342.523438 272.601562 339.878906 275.253906 336.601562 275.253906 L 297.996094 275.253906 C 294.734375 275.253906 292.082031 272.601562 292.082031 269.324219 L 292.082031 236.191406 C 292.082031 232.914062 294.734375 230.265625 297.996094 230.265625 L 336.601562 230.265625 C 339.878906 230.265625 342.523438 232.914062 342.523438 236.191406 L 342.523438 269.324219 "/><path style=" stroke:none;fill-rule:nonzero;fill:rgb(83.918762%,54.119873%,29.40979%);fill-opacity:1;" d="M 83.027344 327.234375 C 83.027344 330.515625 80.378906 333.171875 77.101562 333.171875 L 38.507812 333.171875 C 35.230469 333.171875 32.582031 330.515625 32.582031 327.234375 L 32.582031 294.097656 C 32.582031 290.828125 35.230469 288.171875 38.507812 288.171875 L 77.101562 288.171875 C 80.378906 288.171875 83.027344 290.828125 83.027344 294.097656 L 83.027344 327.234375 "/><path style=" stroke:none;fill-rule:nonzero;fill:rgb(83.918762%,54.119873%,29.40979%);fill-opacity:1;" d="M 147.898438 327.234375 C 147.898438 330.515625 145.25 333.171875 141.980469 333.171875 L 103.378906 333.171875 C 100.109375 333.171875 97.453125 330.515625 97.453125 327.234375 L 97.453125 294.097656 C 97.453125 290.828125 100.109375 288.171875 103.378906 288.171875 L 141.980469 288.171875 C 145.25 288.171875 147.898438 290.828125 147.898438 294.097656 L 147.898438 327.234375 "/><path style=" stroke:none;fill-rule:nonzero;fill:rgb(83.918762%,54.119873%,29.40979%);fill-opacity:1;" d="M 212.777344 327.234375 C 212.777344 330.515625 210.125 333.171875 206.855469 333.171875 L 168.253906 333.171875 C 164.984375 333.171875 162.328125 330.515625 162.328125 327.234375 L 162.328125 294.097656 C 162.328125 290.828125 164.984375 288.171875 168.253906 288.171875 L 206.855469 288.171875 C 210.125 288.171875 212.777344 290.828125 212.777344 294.097656 L 212.777344 327.234375 "/><path style=" stroke:none;fill-rule:nonzero;fill:rgb(83.918762%,54.119873%,29.40979%);fill-opacity:1;" d="M 277.65625 327.234375 C 277.65625 330.515625 275 333.171875 271.730469 333.171875 L 233.132812 333.171875 C 229.859375 333.171875 227.207031 330.515625 227.207031 327.234375 L 227.207031 294.097656 C 227.207031 290.828125 229.859375 288.171875 233.132812 288.171875 L 271.730469 288.171875 C 275 288.171875 277.65625 290.828125 277.65625 294.097656 L 277.65625 327.234375 "/><path style=" stroke:none;fill-rule:nonzero;fill:rgb(83.918762%,54.119873%,29.40979%);fill-opacity:1;" d="M 342.523438 327.234375 C 342.523438 330.515625 339.878906 333.171875 336.601562 333.171875 L 297.996094 333.171875 C 294.734375 333.171875 292.082031 330.515625 292.082031 327.234375 L 292.082031 294.097656 C 292.082031 290.828125 294.734375 288.171875 297.996094 288.171875 L 336.601562 288.171875 C 339.878906 288.171875 342.523438 290.828125 342.523438 294.097656 L 342.523438 327.234375 "/><path style=" stroke:none;fill-rule:nonzero;fill:rgb(100%,100%,100%);fill-opacity:1;" d="M 369.140625 137.355469 L 369.140625 85.195312 C 369.140625 61.636719 350.050781 42.535156 326.5 42.535156 L 48.605469 42.535156 C 25.058594 42.535156 5.96875 61.636719 5.96875 85.195312 L 5.96875 137.355469 L 369.140625 137.355469 "/><path style=" stroke:none;fill-rule:nonzero;fill:rgb(83.918762%,54.119873%,29.40979%);fill-opacity:1;" d="M 369.140625 137.355469 L 374.664062 137.355469 L 374.664062 85.195312 C 374.667969 71.90625 369.265625 59.828125 360.558594 51.121094 C 351.859375 42.410156 339.785156 37.003906 326.5 37.007812 L 48.605469 37.007812 C 35.320312 37.003906 23.246094 42.410156 14.550781 51.121094 C 5.84375 59.828125 0.441406 71.90625 0.445312 85.195312 L 0.445312 142.878906 L 374.664062 142.878906 L 374.664062 137.355469 L 369.140625 137.355469 L 369.140625 131.828125 L 11.492188 131.828125 L 11.492188 85.195312 C 11.496094 74.925781 15.640625 65.675781 22.363281 58.9375 C 29.09375 52.210938 38.339844 48.066406 48.605469 48.0625 L 326.5 48.0625 C 336.765625 48.066406 346.011719 52.210938 352.746094 58.9375 C 359.472656 65.675781 363.617188 74.925781 363.617188 85.195312 L 363.617188 137.355469 L 369.140625 137.355469 L 369.140625 131.828125 L 369.140625 137.355469 "/><path style=" stroke:none;fill-rule:nonzero;fill:rgb(100%,100%,100%);fill-opacity:1;" d="M 85.867188 61.910156 C 85.867188 70.820312 78.648438 78.042969 69.75 78.042969 C 60.847656 78.042969 53.640625 70.820312 53.640625 61.910156 L 53.640625 23.160156 C 53.640625 14.257812 60.847656 7.035156 69.75 7.035156 C 78.648438 7.035156 85.867188 14.257812 85.867188 23.160156 L 85.867188 61.910156 "/><g clip-rule="nonzero" clip-path="url(#clip1)"><path style=" stroke:none;fill-rule:nonzero;fill:rgb(83.918762%,54.119873%,29.40979%);fill-opacity:1;" d="M 85.867188 61.910156 L 80.34375 61.910156 C 80.339844 64.855469 79.167969 67.472656 77.242188 69.40625 C 75.304688 71.335938 72.691406 72.511719 69.75 72.515625 C 66.808594 72.511719 64.195312 71.335938 62.261719 69.410156 C 60.339844 67.472656 59.164062 64.855469 59.164062 61.910156 L 59.164062 23.160156 C 59.164062 20.21875 60.339844 17.601562 62.261719 15.667969 C 64.195312 13.742188 66.808594 12.5625 69.75 12.5625 C 72.691406 12.5625 75.304688 13.742188 77.242188 15.667969 C 79.167969 17.605469 80.339844 20.222656 80.34375 23.160156 L 80.34375 61.910156 L 91.390625 61.910156 L 91.390625 23.160156 C 91.394531 17.203125 88.960938 11.753906 85.050781 7.851562 C 81.15625 3.945312 75.710938 1.503906 69.75 1.507812 C 63.789062 1.503906 58.34375 3.945312 54.449219 7.851562 C 50.542969 11.753906 48.113281 17.203125 48.117188 23.160156 L 48.117188 61.910156 C 48.113281 67.875 50.542969 73.320312 54.449219 77.222656 C 58.34375 81.132812 63.789062 83.574219 69.75 83.570312 C 75.710938 83.570312 81.15625 81.132812 85.050781 77.222656 C 88.960938 73.324219 91.394531 67.875 91.390625 61.910156 L 85.867188 61.910156 "/></g><path style=" stroke:none;fill-rule:nonzero;fill:rgb(100%,100%,100%);fill-opacity:1;" d="M 321.46875 61.910156 C 321.46875 70.820312 314.257812 78.042969 305.359375 78.042969 C 296.457031 78.042969 289.25 70.820312 289.25 61.910156 L 289.25 23.160156 C 289.25 14.257812 296.457031 7.035156 305.359375 7.035156 C 314.257812 7.035156 321.46875 14.257812 321.46875 23.160156 L 321.46875 61.910156 "/><g clip-rule="nonzero" clip-path="url(#clip2)"><path style=" stroke:none;fill-rule:nonzero;fill:rgb(83.918762%,54.119873%,29.40979%);fill-opacity:1;" d="M 321.46875 61.910156 L 315.945312 61.910156 C 315.941406 64.855469 314.765625 67.472656 312.84375 69.410156 C 310.910156 71.335938 308.296875 72.511719 305.359375 72.515625 C 302.417969 72.511719 299.808594 71.335938 297.875 69.410156 C 295.953125 67.476562 294.777344 64.855469 294.773438 61.910156 L 294.773438 23.160156 C 294.777344 20.21875 295.953125 17.601562 297.875 15.667969 C 299.808594 13.734375 302.417969 12.5625 305.359375 12.5625 C 308.296875 12.5625 310.910156 13.734375 312.84375 15.667969 C 314.765625 17.601562 315.941406 20.21875 315.945312 23.160156 L 315.945312 61.910156 L 326.992188 61.910156 L 326.992188 23.160156 C 326.992188 17.203125 324.5625 11.753906 320.65625 7.851562 C 316.765625 3.945312 311.320312 1.503906 305.359375 1.507812 C 299.398438 1.503906 293.953125 3.945312 290.058594 7.855469 C 286.152344 11.757812 283.726562 17.203125 283.726562 23.160156 L 283.726562 61.910156 C 283.726562 67.871094 286.152344 73.320312 290.058594 77.222656 C 293.953125 81.132812 299.398438 83.574219 305.359375 83.570312 C 311.320312 83.574219 316.761719 81.132812 320.65625 77.222656 C 324.5625 73.320312 326.992188 67.875 326.992188 61.910156 L 321.46875 61.910156 "/></g></g></svg>