<?xml version="1.0" encoding="UTF-8"?><svg xmlns="http://www.w3.org/2000/svg" xmlns:xlink="http://www.w3.org/1999/xlink" contentScriptType="text/ecmascript" width="375pt" zoomAndPan="magnify" contentStyleType="text/css" viewBox="0 0 375 374.999991" height="374.999991pt" preserveAspectRatio="xMidYMid meet" version="1.2"><defs><clipPath xml:id="clip1" id="clip1"><path d="M 0 20.390625 L 328 20.390625 L 328 190 L 0 190 Z M 0 20.390625 "/></clipPath><clipPath xml:id="clip2" id="clip2"><path d="M 70 222 L 375 222 L 375 354.890625 L 70 354.890625 Z M 70 222 "/></clipPath><clipPath xml:id="clip3" id="clip3"><path d="M 213 288 L 351 288 L 351 354.890625 L 213 354.890625 Z M 213 288 "/></clipPath></defs><g xml:id="surface1" id="surface1"><path style=" stroke:none;fill-rule:nonzero;fill:rgb(95.689392%,96.859741%,90.979004%);fill-opacity:1;" d="M 316.410156 167.429688 C 316.410156 238.746094 258.695312 296.558594 187.5 296.558594 C 116.304688 296.558594 58.589844 238.746094 58.589844 167.429688 C 58.589844 96.113281 116.304688 38.304688 187.5 38.304688 C 258.695312 38.304688 316.410156 96.113281 316.410156 167.429688 "/><path style=" stroke:none;fill-rule:nonzero;fill:rgb(92.158508%,56.858826%,24.708557%);fill-opacity:1;" d="M 107.292969 254.15625 C 143.410156 266.8125 172.796875 276.9375 172.796875 276.9375 C 172.796875 276.9375 181.140625 271.492188 193.933594 263.371094 C 174.96875 257.195312 144.945312 249.277344 120.664062 240.765625 C 95.460938 231.929688 87.738281 243.773438 85.371094 251.742188 C 90.574219 250.441406 97.640625 250.773438 107.292969 254.15625 "/><g clip-rule="nonzero" clip-path="url(#clip1)"><path style=" stroke:none;fill-rule:nonzero;fill:rgb(96.469116%,74.899292%,43.139648%);fill-opacity:1;" d="M 327.308594 73.519531 L 186.867188 20.378906 L 52.890625 55.460938 L 0.0742188 95.429688 L 0.0742188 189.121094 L 85.796875 113.390625 C 85.796875 113.390625 113.996094 122.863281 140.34375 113.644531 C 164.984375 105.019531 228.644531 72.582031 228.644531 72.582031 C 228.644531 72.582031 257.488281 81.0625 292.945312 91.703125 C 328.398438 102.34375 327.308594 73.519531 327.308594 73.519531 "/></g><path style=" stroke:none;fill-rule:nonzero;fill:rgb(92.158508%,56.858826%,24.708557%);fill-opacity:1;" d="M 245.5 53.464844 L 120.125 61.320312 L 120.125 72.882812 C 120.125 72.882812 224.707031 75.136719 236.449219 74.882812 C 248.183594 74.632812 245.5 53.464844 245.5 53.464844 "/><path style=" stroke:none;fill-rule:nonzero;fill:rgb(92.158508%,56.858826%,24.708557%);fill-opacity:1;" d="M 310.445312 84.949219 L 316.195312 87.246094 L 322.355469 71.648438 L 304.484375 64.886719 C 304.347656 65.160156 303.316406 67.796875 303.207031 68.085938 C 300.550781 74.746094 303.792969 82.296875 310.445312 84.949219 "/><path style=" stroke:none;fill-rule:nonzero;fill:rgb(97.648621%,85.099792%,66.268921%);fill-opacity:1;" d="M 311.335938 82.585938 L 317.167969 84.796875 L 322.355469 71.648438 L 304.484375 64.886719 C 304.347656 65.160156 304.210938 65.433594 304.09375 65.726562 C 301.445312 72.382812 304.6875 79.933594 311.335938 82.585938 "/><path style=" stroke:none;fill-rule:nonzero;fill:rgb(92.158508%,56.858826%,24.708557%);fill-opacity:1;" d="M 194.789062 89.367188 L 168.519531 80.203125 L 127.550781 99.882812 L 172.015625 100.167969 C 179.605469 96.660156 187.445312 92.925781 194.789062 89.367188 "/><path style=" stroke:none;fill-rule:nonzero;fill:rgb(92.158508%,56.858826%,24.708557%);fill-opacity:1;" d="M 0.0742188 189.117188 L 85.769531 113.410156 C 76.667969 110.4375 70.613281 106.042969 63.480469 98.726562 L 0.0742188 166.984375 L 0.0742188 189.117188 "/><path style=" stroke:none;fill-rule:nonzero;fill:rgb(96.469116%,74.899292%,43.139648%);fill-opacity:1;" d="M 239.683594 61.320312 L 120.125 61.320312 L 117.445312 100.167969 C 117.445312 100.167969 165.597656 92.765625 212.0625 90 C 245.910156 87.984375 240.195312 69 239.683594 61.320312 "/><path style=" stroke:none;fill-rule:nonzero;fill:rgb(92.158508%,56.858826%,24.708557%);fill-opacity:1;" d="M 208.765625 61.320312 C 208.765625 61.371094 208.753906 61.421875 208.753906 61.472656 C 208.753906 70.417969 215.988281 77.667969 224.921875 77.667969 L 232.644531 77.667969 L 232.644531 61.320312 L 208.765625 61.320312 "/><path style=" stroke:none;fill-rule:nonzero;fill:rgb(92.158508%,56.858826%,24.708557%);fill-opacity:1;" d="M 208.765625 63.558594 C 208.765625 63.609375 208.753906 63.660156 208.753906 63.710938 C 208.753906 72.652344 215.988281 79.902344 224.921875 79.902344 L 232.644531 79.902344 L 232.644531 63.558594 L 208.765625 63.558594 "/><path style=" stroke:none;fill-rule:nonzero;fill:rgb(97.648621%,85.099792%,66.268921%);fill-opacity:1;" d="M 208.765625 61.320312 C 208.765625 61.371094 208.753906 61.421875 208.753906 61.472656 C 208.753906 70.417969 215.988281 77.667969 224.921875 77.667969 L 232.644531 77.667969 L 232.644531 61.320312 L 208.765625 61.320312 "/><path style=" stroke:none;fill-rule:nonzero;fill:rgb(30.979919%,22.349548%,15.689087%);fill-opacity:1;" d="M 275.242188 276.695312 C 275.328125 275.078125 275.378906 273.449219 275.378906 271.808594 C 275.378906 223.195312 236.035156 183.78125 187.5 183.78125 C 138.964844 183.785156 99.621094 223.195312 99.621094 271.808594 C 99.621094 273.449219 99.671875 275.078125 99.757812 276.695312 L 275.242188 276.695312 "/><path style=" stroke:none;fill-rule:nonzero;fill:rgb(61.569214%,86.669922%,79.219055%);fill-opacity:1;" d="M 151.816406 128.371094 C 149.238281 128.371094 147.03125 129.941406 146.085938 132.179688 C 145.546875 131.058594 144.414062 130.28125 143.085938 130.28125 C 142.335938 130.28125 141.648438 130.539062 141.089844 130.960938 C 140.367188 127.40625 137.226562 124.730469 133.464844 124.730469 C 129.195312 124.730469 125.734375 128.175781 125.691406 132.441406 C 124.933594 132.148438 124.113281 131.980469 123.253906 131.980469 C 120.082031 131.980469 117.425781 134.183594 116.714844 137.144531 C 115.785156 136.535156 114.675781 136.171875 113.480469 136.171875 C 110.65625 136.171875 108.300781 138.164062 107.726562 140.820312 L 151.816406 140.820312 C 155.25 140.820312 158.03125 138.03125 158.03125 134.59375 C 158.03125 131.15625 155.25 128.371094 151.816406 128.371094 "/><path style=" stroke:none;fill-rule:nonzero;fill:rgb(61.569214%,86.669922%,79.219055%);fill-opacity:1;" d="M 202.597656 121.21875 C 202.054688 121.21875 201.5625 121.410156 201.164062 121.71875 C 201.183594 121.527344 201.195312 121.332031 201.195312 121.136719 C 201.195312 117.582031 198.316406 114.695312 194.765625 114.695312 C 192.117188 114.695312 189.847656 116.296875 188.859375 118.582031 C 188.355469 118.175781 187.726562 117.921875 187.027344 117.921875 C 186.394531 117.921875 185.808594 118.128906 185.328125 118.472656 C 184.488281 117.164062 183.023438 116.292969 181.355469 116.292969 C 178.746094 116.292969 176.625 118.414062 176.625 121.027344 C 176.625 121.414062 176.679688 121.789062 176.765625 122.144531 C 176.152344 121.859375 175.472656 121.691406 174.75 121.691406 C 172.304688 121.691406 170.292969 123.554688 170.046875 125.9375 L 202.597656 125.9375 C 203.898438 125.9375 204.953125 124.882812 204.953125 123.578125 C 204.953125 122.273438 203.898438 121.21875 202.597656 121.21875 "/><path style=" stroke:none;fill-rule:nonzero;fill:rgb(61.569214%,86.669922%,79.219055%);fill-opacity:1;" d="M 117.953125 159.761719 C 117.316406 159.761719 116.757812 160.097656 116.4375 160.597656 C 115.886719 158.304688 113.828125 156.601562 111.367188 156.601562 C 109.234375 156.601562 107.40625 157.882812 106.59375 159.714844 C 106.042969 159.351562 105.386719 159.136719 104.675781 159.136719 C 103.101562 159.136719 101.773438 160.1875 101.351562 161.628906 C 100.9375 161.3125 100.421875 161.121094 99.863281 161.121094 C 98.582031 161.121094 97.535156 162.105469 97.433594 163.359375 L 117.953125 163.359375 C 118.941406 163.359375 119.746094 162.554688 119.746094 161.5625 C 119.746094 160.570312 118.941406 159.761719 117.953125 159.761719 "/><path style=" stroke:none;fill-rule:nonzero;fill:rgb(94.119263%,81.17981%,12.939453%);fill-opacity:1;" d="M 240.292969 166.496094 L 247.867188 160.277344 C 244.730469 159.648438 241.808594 158.425781 239.222656 156.734375 L 240.292969 166.496094 "/><path style=" stroke:none;fill-rule:nonzero;fill:rgb(88.62915%,72.549438%,6.269836%);fill-opacity:1;" d="M 257.503906 111.519531 L 252.753906 98.324219 L 248.003906 111.519531 C 249.542969 111.21875 251.125 111.058594 252.753906 111.058594 C 254.378906 111.058594 255.964844 111.21875 257.503906 111.519531 "/><path style=" stroke:none;fill-rule:nonzero;fill:rgb(88.62915%,72.549438%,6.269836%);fill-opacity:1;" d="M 273.328125 122.023438 L 279.285156 109.332031 L 266.613281 115.296875 C 269.261719 117.085938 271.542969 119.375 273.328125 122.023438 "/><path style=" stroke:none;fill-rule:nonzero;fill:rgb(88.62915%,72.549438%,6.269836%);fill-opacity:1;" d="M 238.890625 115.296875 L 226.21875 109.332031 L 232.171875 122.023438 C 233.960938 119.375 236.242188 117.085938 238.890625 115.296875 "/><path style=" stroke:none;fill-rule:nonzero;fill:rgb(88.62915%,72.549438%,6.269836%);fill-opacity:1;" d="M 277.101562 140.667969 L 290.273438 135.910156 L 277.101562 131.152344 C 277.398438 132.691406 277.5625 134.28125 277.5625 135.910156 C 277.5625 137.539062 277.398438 139.128906 277.101562 140.667969 "/><path style=" stroke:none;fill-rule:nonzero;fill:rgb(88.62915%,72.549438%,6.269836%);fill-opacity:1;" d="M 248.003906 160.300781 L 252.753906 173.496094 L 257.503906 160.300781 C 255.964844 160.597656 254.378906 160.761719 252.753906 160.761719 C 251.125 160.761719 249.542969 160.597656 248.003906 160.300781 "/><path style=" stroke:none;fill-rule:nonzero;fill:rgb(88.62915%,72.549438%,6.269836%);fill-opacity:1;" d="M 266.613281 156.523438 L 279.285156 162.488281 L 273.328125 149.796875 C 271.542969 152.445312 269.261719 154.734375 266.613281 156.523438 "/><path style=" stroke:none;fill-rule:nonzero;fill:rgb(94.119263%,81.17981%,12.939453%);fill-opacity:1;" d="M 283.285156 148.390625 L 277.078125 140.804688 C 276.453125 143.945312 275.230469 146.871094 273.542969 149.460938 L 283.285156 148.390625 "/><path style=" stroke:none;fill-rule:nonzero;fill:rgb(94.119263%,81.17981%,12.939453%);fill-opacity:1;" d="M 265.53125 166.363281 L 266.5 156.597656 C 263.929688 158.3125 261.019531 159.5625 257.890625 160.222656 L 265.53125 166.363281 "/><path style=" stroke:none;fill-rule:nonzero;fill:rgb(88.62915%,72.549438%,6.269836%);fill-opacity:1;" d="M 228.402344 131.152344 L 215.230469 135.910156 L 228.402344 140.667969 C 228.105469 139.128906 227.941406 137.539062 227.941406 135.910156 C 227.941406 134.28125 228.105469 132.691406 228.402344 131.152344 "/><path style=" stroke:none;fill-rule:nonzero;fill:rgb(88.62915%,72.549438%,6.269836%);fill-opacity:1;" d="M 232.171875 149.796875 L 226.21875 162.488281 L 238.890625 156.523438 C 236.242188 154.734375 233.960938 152.445312 232.171875 149.796875 "/><path style=" stroke:none;fill-rule:nonzero;fill:rgb(94.119263%,81.17981%,12.939453%);fill-opacity:1;" d="M 222.21875 123.429688 L 228.425781 131.015625 C 229.054688 127.875 230.273438 124.949219 231.960938 122.355469 L 222.21875 123.429688 "/><path style=" stroke:none;fill-rule:nonzero;fill:rgb(94.119263%,81.17981%,12.939453%);fill-opacity:1;" d="M 222.351562 148.710938 L 232.101562 149.679688 C 230.386719 147.105469 229.136719 144.191406 228.480469 141.058594 L 222.351562 148.710938 "/><path style=" stroke:none;fill-rule:nonzero;fill:rgb(94.119263%,81.17981%,12.939453%);fill-opacity:1;" d="M 239.972656 105.457031 L 239.003906 115.222656 C 241.578125 113.503906 244.488281 112.257812 247.613281 111.597656 L 239.972656 105.457031 "/><path style=" stroke:none;fill-rule:nonzero;fill:rgb(94.119263%,81.17981%,12.939453%);fill-opacity:1;" d="M 265.214844 105.324219 L 257.636719 111.542969 C 260.773438 112.171875 263.695312 113.394531 266.285156 115.085938 L 265.214844 105.324219 "/><path style=" stroke:none;fill-rule:nonzero;fill:rgb(94.119263%,81.17981%,12.939453%);fill-opacity:1;" d="M 283.152344 123.109375 L 273.402344 122.140625 C 275.117188 124.714844 276.367188 127.628906 277.023438 130.761719 L 283.152344 123.109375 "/><path style=" stroke:none;fill-rule:nonzero;fill:rgb(94.119263%,81.17981%,12.939453%);fill-opacity:1;" d="M 231.890625 135.910156 C 231.890625 147.449219 241.230469 156.804688 252.753906 156.804688 L 252.753906 115.011719 C 241.230469 115.011719 231.890625 124.371094 231.890625 135.910156 "/><path style=" stroke:none;fill-rule:nonzero;fill:rgb(88.62915%,72.549438%,6.269836%);fill-opacity:1;" d="M 252.753906 115.011719 L 252.753906 156.804688 C 264.273438 156.804688 273.613281 147.449219 273.613281 135.910156 C 273.613281 124.371094 264.273438 115.011719 252.753906 115.011719 "/><path style=" stroke:none;fill-rule:nonzero;fill:rgb(42.749023%,71.759033%,18.429565%);fill-opacity:1;" d="M 143.1875 211.28125 L 143.1875 157.542969 C 132.03125 157.542969 122.988281 166.601562 122.988281 177.777344 C 122.988281 196.445312 143.1875 211.28125 143.1875 211.28125 "/><path style=" stroke:none;fill-rule:nonzero;fill:rgb(34.118652%,60.389709%,19.60907%);fill-opacity:1;" d="M 163.386719 177.777344 C 163.386719 166.601562 154.34375 157.542969 143.1875 157.542969 L 143.1875 211.28125 C 143.1875 211.28125 163.386719 198.011719 163.386719 177.777344 "/><path style=" stroke:none;fill-rule:nonzero;fill:rgb(42.349243%,30.198669%,20.388794%);fill-opacity:1;" d="M 132.195312 181.457031 C 133.660156 184.488281 135.433594 187.398438 137.511719 190.117188 C 138.75 191.742188 140.105469 193.292969 141.5625 194.753906 L 140.4375 218.625 L 143.1875 218.625 L 143.1875 160.363281 L 141.78125 190.136719 C 141.058594 189.519531 140.351562 188.875 139.667969 188.207031 C 137.363281 185.960938 135.277344 183.445312 133.441406 180.738281 C 132.523438 179.382812 131.671875 177.976562 130.886719 176.523438 C 130.109375 175.074219 129.386719 173.582031 128.804688 172.027344 C 129.15625 173.652344 129.664062 175.246094 130.230469 176.820312 C 130.804688 178.390625 131.460938 179.941406 132.195312 181.457031 "/><path style=" stroke:none;fill-rule:nonzero;fill:rgb(30.979919%,22.349548%,15.689087%);fill-opacity:1;" d="M 145.9375 218.625 L 145.300781 205.101562 C 147.503906 203.222656 149.574219 201.199219 151.453125 199.015625 C 153.464844 196.679688 155.261719 194.171875 156.753906 191.511719 C 157.5 190.179688 158.171875 188.8125 158.75 187.410156 C 159.316406 186.007812 159.816406 184.574219 160.109375 183.097656 C 159.589844 184.503906 158.875 185.816406 158.105469 187.085938 C 157.332031 188.347656 156.476562 189.554688 155.558594 190.707031 C 153.726562 193.011719 151.652344 195.09375 149.425781 196.96875 C 148.03125 198.140625 146.570312 199.222656 145.070312 200.234375 L 144.367188 185.308594 C 144.710938 185.054688 145.054688 184.796875 145.382812 184.527344 C 147.742188 182.621094 149.753906 180.367188 151.394531 177.914062 C 152.210938 176.691406 152.941406 175.417969 153.582031 174.105469 C 154.210938 172.792969 154.769531 171.445312 155.164062 170.058594 C 154.546875 171.359375 153.78125 172.574219 152.960938 173.738281 C 152.132812 174.898438 151.234375 175.996094 150.265625 177.019531 C 148.457031 178.933594 146.410156 180.582031 144.203125 181.886719 L 143.1875 160.363281 L 143.1875 218.625 L 145.9375 218.625 "/><path style=" stroke:none;fill-rule:nonzero;fill:rgb(42.749023%,71.759033%,18.429565%);fill-opacity:1;" d="M 114.121094 193 C 111.101562 196.171875 107.734375 198.75 107.734375 198.75 C 107.734375 198.75 110.238281 199.171875 115.027344 198.269531 C 114.179688 199.332031 113.253906 200.417969 112.273438 201.453125 C 108.324219 205.613281 103.917969 208.992188 103.917969 208.992188 C 103.917969 208.992188 107.023438 209.515625 112.972656 208.449219 C 112.1875 209.382812 111.351562 210.320312 110.476562 211.222656 C 105.632812 216.25 100.214844 220.332031 100.214844 220.332031 C 100.214844 220.332031 104.042969 220.96875 111.375 219.671875 C 110.597656 220.574219 109.789062 221.46875 108.949219 222.339844 C 103.332031 228.171875 97.058594 232.898438 97.058594 232.898438 C 97.058594 232.898438 105.039062 234.230469 120.125 229.679688 L 120.125 184.902344 C 120.125 184.902344 117.585938 189.351562 114.121094 193 "/><path style=" stroke:none;fill-rule:nonzero;fill:rgb(34.118652%,60.389709%,19.60907%);fill-opacity:1;" d="M 126.125 193 C 129.144531 196.171875 132.515625 198.75 132.515625 198.75 C 132.515625 198.75 130.011719 199.171875 125.21875 198.269531 C 126.066406 199.332031 126.992188 200.417969 127.972656 201.453125 C 131.921875 205.613281 136.328125 208.992188 136.328125 208.992188 C 136.328125 208.992188 133.222656 209.515625 127.269531 208.449219 C 128.058594 209.382812 128.894531 210.320312 129.765625 211.222656 C 134.613281 216.25 140.027344 220.332031 140.027344 220.332031 C 140.027344 220.332031 136.203125 220.96875 128.871094 219.671875 C 129.644531 220.574219 130.457031 221.46875 131.296875 222.339844 C 136.914062 228.171875 143.1875 232.898438 143.1875 232.898438 C 143.1875 232.898438 135.207031 234.230469 120.125 229.679688 L 120.125 184.902344 C 120.125 184.902344 122.660156 189.351562 126.125 193 "/><path style=" stroke:none;fill-rule:nonzero;fill:rgb(42.349243%,30.198669%,20.388794%);fill-opacity:1;" d="M 117.707031 239.273438 L 120.125 239.273438 L 120.125 188.085938 Z M 117.707031 239.273438 "/><path style=" stroke:none;fill-rule:nonzero;fill:rgb(30.979919%,22.349548%,15.689087%);fill-opacity:1;" d="M 120.125 188.085938 L 120.125 239.273438 L 122.539062 239.273438 Z M 120.125 188.085938 "/><path style=" stroke:none;fill-rule:nonzero;fill:rgb(61.178589%,83.529663%,13.729858%);fill-opacity:1;" d="M 116.523438 243 C 116.460938 242.996094 116.398438 242.996094 116.335938 242.996094 C 113.785156 242.996094 111.71875 245.066406 111.71875 247.621094 C 111.71875 250.175781 113.785156 252.246094 116.335938 252.246094 C 117.085938 252.246094 119.339844 252.246094 121.664062 252.246094 L 121.664062 238.417969 C 119.15625 238.746094 117.128906 240.589844 116.523438 243 "/><path style=" stroke:none;fill-rule:nonzero;fill:rgb(52.159119%,77.249146%,15.289307%);fill-opacity:1;" d="M 128.59375 244.558594 C 128.59375 244.539062 128.59375 244.523438 128.59375 244.503906 C 128.59375 241.113281 125.851562 238.367188 122.464844 238.367188 C 122.195312 238.367188 121.925781 238.382812 121.664062 238.417969 L 121.664062 252.246094 C 124.273438 252.246094 126.96875 252.246094 127.722656 252.246094 C 129.871094 252.246094 131.609375 250.503906 131.609375 248.351562 C 131.609375 246.5 130.320312 244.953125 128.59375 244.558594 "/><path style=" stroke:none;fill-rule:nonzero;fill:rgb(61.178589%,83.529663%,13.729858%);fill-opacity:1;" d="M 211.84375 145.5625 C 206.191406 145.5625 201.394531 149.226562 199.6875 154.3125 C 193.886719 155.542969 189.535156 160.699219 189.535156 166.875 C 189.535156 167.921875 189.660156 168.933594 189.898438 169.90625 C 186.980469 172.585938 185.148438 176.4375 185.148438 180.71875 C 185.148438 186.554688 188.554688 191.597656 193.484375 193.960938 C 193.59375 200.5 198.917969 205.769531 205.472656 205.769531 C 207.882812 205.769531 210.121094 205.050781 212 203.828125 L 212 145.566406 C 211.945312 145.566406 211.894531 145.5625 211.84375 145.5625 "/><path style=" stroke:none;fill-rule:nonzero;fill:rgb(52.159119%,77.249146%,15.289307%);fill-opacity:1;" d="M 235.480469 168.613281 C 235.660156 167.785156 235.757812 166.925781 235.757812 166.046875 C 235.757812 159.457031 230.464844 154.109375 223.902344 154.035156 C 222.132812 149.140625 217.480469 145.632812 212 145.566406 L 212 203.828125 C 212.207031 203.6875 212.414062 203.550781 212.617188 203.402344 C 214.785156 204.894531 217.414062 205.769531 220.242188 205.769531 C 227.144531 205.769531 232.832031 200.585938 233.648438 193.894531 C 238.507812 191.503906 241.847656 186.503906 241.847656 180.71875 C 241.847656 175.691406 239.324219 171.257812 235.480469 168.613281 "/><path style=" stroke:none;fill-rule:nonzero;fill:rgb(42.349243%,30.198669%,20.388794%);fill-opacity:1;" d="M 199.019531 172.898438 C 200.75 176.480469 202.84375 179.917969 205.296875 183.125 C 206.757812 185.042969 208.359375 186.875 210.082031 188.601562 L 208.753906 216.777344 L 212 216.777344 L 212 148 L 210.339844 183.148438 C 209.484375 182.417969 208.652344 181.660156 207.84375 180.867188 C 205.125 178.214844 202.660156 175.25 200.492188 172.050781 C 199.410156 170.453125 198.402344 168.792969 197.480469 167.078125 C 196.5625 165.363281 195.707031 163.605469 195.019531 161.769531 C 195.4375 163.6875 196.035156 165.570312 196.703125 167.429688 C 197.382812 169.285156 198.15625 171.113281 199.019531 172.898438 "/><path style=" stroke:none;fill-rule:nonzero;fill:rgb(30.979919%,22.349548%,15.689087%);fill-opacity:1;" d="M 215.246094 216.777344 L 214.492188 200.816406 C 217.09375 198.597656 219.539062 196.207031 221.757812 193.628906 C 224.128906 190.871094 226.25 187.910156 228.015625 184.769531 C 228.894531 183.199219 229.6875 181.585938 230.367188 179.929688 C 231.039062 178.273438 231.628906 176.578125 231.976562 174.839844 C 231.359375 176.496094 230.515625 178.050781 229.609375 179.542969 C 228.695312 181.035156 227.683594 182.460938 226.601562 183.820312 C 224.4375 186.539062 221.992188 189 219.363281 191.210938 C 217.714844 192.597656 215.996094 193.871094 214.21875 195.066406 L 213.386719 177.449219 C 213.796875 177.148438 214.199219 176.84375 214.59375 176.523438 C 217.375 174.273438 219.75 171.613281 221.683594 168.722656 C 222.652344 167.277344 223.515625 165.769531 224.265625 164.222656 C 225.011719 162.671875 225.667969 161.082031 226.140625 159.445312 C 225.40625 160.980469 224.503906 162.414062 223.535156 163.789062 C 222.558594 165.15625 221.496094 166.453125 220.355469 167.660156 C 218.21875 169.925781 215.804688 171.871094 213.199219 173.40625 L 212 148 L 212 216.777344 L 215.246094 216.777344 "/><g clip-rule="nonzero" clip-path="url(#clip2)"><path style=" stroke:none;fill-rule:nonzero;fill:rgb(96.469116%,74.899292%,43.139648%);fill-opacity:1;" d="M 374.925781 294.441406 L 317.085938 235.601562 C 303.527344 222.023438 286.167969 218.796875 261.027344 226.324219 C 235.171875 234.070312 172.421875 275.8125 172.421875 275.8125 C 172.421875 275.8125 143.035156 265.6875 106.917969 253.027344 C 70.804688 240.367188 70.574219 270.179688 70.574219 270.179688 L 213.5 327.554688 L 285.414062 302.722656 L 329.648438 355.171875 L 374.925781 355.171875 L 374.925781 294.441406 "/></g><path style=" stroke:none;fill-rule:nonzero;fill:rgb(92.158508%,56.858826%,24.708557%);fill-opacity:1;" d="M 88.792969 258.449219 L 83.085938 255.679688 L 81.660156 258.933594 L 75.660156 272.222656 L 94.039062 279.601562 C 94.082031 279.511719 94.136719 279.421875 94.179688 279.328125 C 97.226562 272.578125 95.53125 261.503906 88.792969 258.449219 "/><path style=" stroke:none;fill-rule:nonzero;fill:rgb(97.648621%,85.099792%,66.268921%);fill-opacity:1;" d="M 87.492188 261.574219 L 81.660156 258.933594 L 75.660156 272.222656 L 94.039062 279.601562 C 94.082031 279.511719 94.136719 279.421875 94.179688 279.328125 C 97.226562 272.578125 94.234375 264.628906 87.492188 261.574219 "/><path style=" stroke:none;fill-rule:nonzero;fill:rgb(92.158508%,56.858826%,24.708557%);fill-opacity:1;" d="M 176.007812 264.117188 C 157.511719 264.636719 157.550781 294.183594 157.550781 294.183594 L 263.777344 291.640625 L 248.515625 269.921875 L 176.007812 264.117188 "/><g clip-rule="nonzero" clip-path="url(#clip3)"><path style=" stroke:none;fill-rule:nonzero;fill:rgb(92.158508%,56.858826%,24.708557%);fill-opacity:1;" d="M 329.648438 355.171875 L 350.289062 355.171875 C 327.367188 327.953125 296.15625 288.496094 296.15625 288.496094 L 213.5 327.554688 L 285.414062 302.722656 L 329.648438 355.171875 "/></g><path style=" stroke:none;fill-rule:nonzero;fill:rgb(92.158508%,56.858826%,24.708557%);fill-opacity:1;" d="M 230.886719 240.214844 C 216.386719 248.113281 200.867188 257.617188 189.46875 264.8125 L 266.097656 266.917969 L 230.886719 240.214844 "/><path style=" stroke:none;fill-rule:nonzero;fill:rgb(96.469116%,74.899292%,43.139648%);fill-opacity:1;" d="M 160.492188 286.917969 L 283.957031 292.5625 L 287.445312 245.277344 C 287.445312 245.277344 238.59375 257.632812 190.359375 258.605469 C 154.34375 259.332031 160.492188 286.917969 160.492188 286.917969 "/><path style=" stroke:none;fill-rule:nonzero;fill:rgb(92.158508%,56.858826%,24.708557%);fill-opacity:1;" d="M 192.417969 288.378906 C 192.425781 288.320312 192.433594 288.273438 192.4375 288.21875 C 192.855469 278.984375 185.828125 269.039062 176.605469 268.617188 L 168.625 268.253906 L 167.753906 287.246094 L 192.417969 288.378906 "/><path style=" stroke:none;fill-rule:nonzero;fill:rgb(97.648621%,85.099792%,66.268921%);fill-opacity:1;" d="M 192.417969 288.378906 C 192.425781 288.320312 192.433594 288.273438 192.4375 288.21875 C 192.855469 278.984375 185.925781 272.125 176.710938 271.699219 L 168.476562 271.582031 L 167.753906 287.246094 L 192.417969 288.378906 "/><path style=" stroke:none;fill-rule:nonzero;fill:rgb(42.749023%,71.759033%,18.429565%);fill-opacity:1;" d="M 195.023438 227.640625 L 195.023438 158.335938 C 180.636719 158.335938 168.972656 170.019531 168.972656 184.429688 C 168.972656 208.503906 195.023438 227.640625 195.023438 227.640625 "/><path style=" stroke:none;fill-rule:nonzero;fill:rgb(34.118652%,60.389709%,19.60907%);fill-opacity:1;" d="M 221.070312 184.429688 C 221.070312 170.019531 209.410156 158.335938 195.023438 158.335938 L 195.023438 227.640625 C 195.023438 227.640625 221.070312 210.523438 221.070312 184.429688 "/><path style=" stroke:none;fill-rule:nonzero;fill:rgb(42.349243%,30.198669%,20.388794%);fill-opacity:1;" d="M 180.84375 189.175781 C 182.734375 193.085938 185.019531 196.839844 187.699219 200.34375 C 189.296875 202.441406 191.046875 204.4375 192.929688 206.328125 L 191.476562 237.109375 L 195.023438 237.109375 L 195.023438 161.96875 L 193.210938 200.371094 C 192.277344 199.570312 191.363281 198.742188 190.480469 197.878906 C 187.511719 194.984375 184.820312 191.742188 182.453125 188.246094 C 181.269531 186.5 180.167969 184.6875 179.15625 182.816406 C 178.15625 180.941406 177.222656 179.019531 176.472656 177.015625 C 176.925781 179.109375 177.578125 181.167969 178.3125 183.195312 C 179.050781 185.222656 179.898438 187.21875 180.84375 189.175781 "/><path style=" stroke:none;fill-rule:nonzero;fill:rgb(30.979919%,22.349548%,15.689087%);fill-opacity:1;" d="M 198.566406 237.109375 L 197.742188 219.671875 C 200.585938 217.246094 203.257812 214.636719 205.683594 211.820312 C 208.273438 208.808594 210.589844 205.574219 212.519531 202.140625 C 213.480469 200.425781 214.347656 198.660156 215.089844 196.851562 C 215.820312 195.042969 216.46875 193.195312 216.84375 191.292969 C 216.171875 193.105469 215.25 194.800781 214.261719 196.433594 C 213.261719 198.0625 212.160156 199.617188 210.976562 201.105469 C 208.613281 204.078125 205.9375 206.761719 203.066406 209.179688 C 201.269531 210.691406 199.386719 212.085938 197.449219 213.390625 L 196.539062 194.144531 C 196.988281 193.816406 197.425781 193.480469 197.855469 193.132812 C 200.898438 190.675781 203.488281 187.769531 205.601562 184.609375 C 206.660156 183.03125 207.601562 181.386719 208.421875 179.695312 C 209.238281 178 209.957031 176.265625 210.46875 174.476562 C 209.667969 176.152344 208.683594 177.722656 207.625 179.21875 C 206.558594 180.71875 205.394531 182.132812 204.148438 183.453125 C 201.816406 185.925781 199.175781 188.050781 196.332031 189.730469 L 195.023438 161.96875 L 195.023438 237.109375 L 198.566406 237.109375 "/><path style=" stroke:none;fill-rule:nonzero;fill:rgb(42.749023%,71.759033%,18.429565%);fill-opacity:1;" d="M 244.78125 172.320312 C 241.171875 176.117188 237.144531 179.195312 237.144531 179.195312 C 237.144531 179.195312 240.136719 179.699219 245.863281 178.621094 C 244.851562 179.890625 243.746094 181.191406 242.570312 182.425781 C 237.851562 187.402344 232.582031 191.4375 232.582031 191.4375 C 232.582031 191.4375 236.296875 192.0625 243.410156 190.789062 C 242.46875 191.90625 241.46875 193.023438 240.425781 194.105469 C 234.632812 200.117188 228.160156 204.996094 228.160156 204.996094 C 228.160156 204.996094 232.734375 205.757812 241.5 204.207031 C 240.574219 205.28125 239.601562 206.355469 238.597656 207.398438 C 231.882812 214.363281 224.386719 220.019531 224.386719 220.019531 C 224.386719 220.019531 233.925781 221.609375 251.957031 216.167969 L 251.957031 162.640625 C 251.957031 162.640625 248.921875 167.960938 244.78125 172.320312 "/><path style=" stroke:none;fill-rule:nonzero;fill:rgb(34.118652%,60.389709%,19.60907%);fill-opacity:1;" d="M 259.132812 172.320312 C 262.742188 176.117188 266.769531 179.195312 266.769531 179.195312 C 266.769531 179.195312 263.773438 179.699219 258.050781 178.621094 C 259.0625 179.890625 260.167969 181.191406 261.339844 182.425781 C 266.0625 187.402344 271.328125 191.4375 271.328125 191.4375 C 271.328125 191.4375 267.617188 192.0625 260.5 190.789062 C 261.445312 191.90625 262.441406 193.023438 263.484375 194.105469 C 269.28125 200.117188 275.75 204.996094 275.75 204.996094 C 275.75 204.996094 271.179688 205.757812 262.414062 204.207031 C 263.339844 205.28125 264.308594 206.355469 265.3125 207.398438 C 272.03125 214.363281 279.527344 220.019531 279.527344 220.019531 C 279.527344 220.019531 269.988281 221.609375 251.957031 216.167969 L 251.957031 162.640625 C 251.957031 162.640625 254.992188 167.960938 259.132812 172.320312 "/><path style=" stroke:none;fill-rule:nonzero;fill:rgb(42.349243%,30.198669%,20.388794%);fill-opacity:1;" d="M 249.066406 227.636719 L 251.957031 227.636719 L 251.957031 166.449219 Z M 249.066406 227.636719 "/><path style=" stroke:none;fill-rule:nonzero;fill:rgb(30.979919%,22.349548%,15.689087%);fill-opacity:1;" d="M 251.957031 166.449219 L 251.957031 227.636719 L 254.84375 227.636719 Z M 251.957031 166.449219 "/><path style=" stroke:none;fill-rule:nonzero;fill:rgb(61.178589%,83.529663%,13.729858%);fill-opacity:1;" d="M 209.773438 223.703125 C 209.6875 223.699219 209.601562 223.695312 209.515625 223.695312 C 206.007812 223.695312 203.160156 226.546875 203.160156 230.058594 C 203.160156 233.574219 206.007812 236.421875 209.515625 236.421875 C 210.550781 236.421875 213.648438 236.421875 216.84375 236.421875 L 216.84375 217.398438 C 213.398438 217.851562 210.609375 220.386719 209.773438 223.703125 "/><path style=" stroke:none;fill-rule:nonzero;fill:rgb(52.159119%,77.249146%,15.289307%);fill-opacity:1;" d="M 226.378906 225.847656 C 226.382812 225.824219 226.382812 225.796875 226.382812 225.773438 C 226.382812 221.109375 222.605469 217.328125 217.949219 217.328125 C 217.574219 217.328125 217.207031 217.351562 216.84375 217.398438 L 216.84375 236.421875 C 220.4375 236.421875 224.144531 236.421875 225.179688 236.421875 C 228.132812 236.421875 230.527344 234.023438 230.527344 231.066406 C 230.527344 228.519531 228.757812 226.394531 226.378906 225.847656 "/><path style=" stroke:none;fill-rule:nonzero;fill:rgb(34.118652%,60.389709%,19.60907%);fill-opacity:1;" d="M 178.941406 244.820312 C 179.007812 244.820312 179.074219 244.816406 179.140625 244.816406 C 181.902344 244.816406 184.136719 247.058594 184.136719 249.820312 C 184.136719 252.585938 181.902344 254.828125 179.140625 254.828125 C 178.328125 254.828125 175.890625 254.828125 173.375 254.828125 L 173.375 239.863281 C 176.085938 240.21875 178.28125 242.214844 178.941406 244.820312 "/><path style=" stroke:none;fill-rule:nonzero;fill:rgb(42.749023%,71.759033%,18.429565%);fill-opacity:1;" d="M 165.875 246.507812 C 165.875 246.488281 165.875 246.472656 165.875 246.453125 C 165.875 242.78125 168.84375 239.804688 172.507812 239.804688 C 172.800781 239.804688 173.089844 239.828125 173.375 239.863281 L 173.375 254.828125 C 170.550781 254.828125 167.632812 254.828125 166.820312 254.828125 C 164.496094 254.828125 162.613281 252.941406 162.613281 250.613281 C 162.613281 248.609375 164.007812 246.9375 165.875 246.507812 "/><path style=" stroke:none;fill-rule:nonzero;fill:rgb(61.178589%,83.529663%,13.729858%);fill-opacity:1;" d="M 159.816406 184.527344 C 155.1875 184.527344 151.261719 187.527344 149.867188 191.691406 C 145.117188 192.699219 141.550781 196.921875 141.550781 201.980469 C 141.550781 202.832031 141.65625 203.660156 141.847656 204.457031 C 139.460938 206.652344 137.960938 209.804688 137.960938 213.308594 C 137.960938 218.089844 140.75 222.21875 144.785156 224.152344 C 144.875 229.503906 149.234375 233.816406 154.597656 233.816406 C 156.570312 233.816406 158.40625 233.230469 159.941406 232.226562 L 159.941406 184.535156 C 159.898438 184.535156 159.859375 184.527344 159.816406 184.527344 "/><path style=" stroke:none;fill-rule:nonzero;fill:rgb(52.159119%,77.249146%,15.289307%);fill-opacity:1;" d="M 179.164062 203.402344 C 179.3125 202.722656 179.390625 202.019531 179.390625 201.296875 C 179.390625 195.90625 175.058594 191.527344 169.6875 191.46875 C 168.242188 187.457031 164.429688 184.589844 159.941406 184.535156 L 159.941406 232.226562 C 160.113281 232.117188 160.285156 232.003906 160.449219 231.882812 C 162.226562 233.101562 164.375 233.816406 166.691406 233.816406 C 172.34375 233.816406 177 229.574219 177.667969 224.097656 C 181.644531 222.140625 184.378906 218.046875 184.378906 213.308594 C 184.378906 209.195312 182.3125 205.566406 179.164062 203.402344 "/><path style=" stroke:none;fill-rule:nonzero;fill:rgb(42.349243%,30.198669%,20.388794%);fill-opacity:1;" d="M 149.316406 206.910156 C 150.734375 209.839844 152.449219 212.652344 154.457031 215.28125 C 155.652344 216.851562 156.964844 218.347656 158.375 219.761719 L 157.285156 242.832031 L 159.941406 242.832031 L 159.941406 186.523438 L 158.582031 215.300781 C 157.886719 214.703125 157.203125 214.082031 156.539062 213.433594 C 154.3125 211.261719 152.296875 208.835938 150.523438 206.214844 C 149.636719 204.90625 148.8125 203.546875 148.054688 202.144531 C 147.304688 200.742188 146.605469 199.300781 146.042969 197.800781 C 146.382812 199.371094 146.871094 200.910156 147.421875 202.429688 C 147.976562 203.949219 148.609375 205.445312 149.316406 206.910156 "/><path style=" stroke:none;fill-rule:nonzero;fill:rgb(30.979919%,22.349548%,15.689087%);fill-opacity:1;" d="M 162.601562 242.832031 L 161.984375 229.761719 C 164.113281 227.949219 166.113281 225.992188 167.929688 223.878906 C 169.875 221.621094 171.609375 219.199219 173.054688 216.625 C 173.777344 215.339844 174.425781 214.019531 174.980469 212.664062 C 175.53125 211.308594 176.015625 209.921875 176.296875 208.5 C 175.792969 209.855469 175.101562 211.125 174.359375 212.347656 C 173.613281 213.570312 172.785156 214.738281 171.898438 215.851562 C 170.125 218.078125 168.125 220.089844 165.972656 221.898438 C 164.625 223.035156 163.214844 224.078125 161.761719 225.058594 L 161.082031 210.632812 C 161.414062 210.390625 161.746094 210.136719 162.066406 209.878906 C 164.34375 208.035156 166.289062 205.855469 167.871094 203.488281 C 168.664062 202.304688 169.371094 201.074219 169.984375 199.804688 C 170.59375 198.539062 171.132812 197.238281 171.519531 195.894531 C 170.917969 197.152344 170.179688 198.328125 169.386719 199.449219 C 168.589844 200.574219 167.71875 201.632812 166.785156 202.621094 C 165.035156 204.472656 163.058594 206.066406 160.925781 207.324219 L 159.941406 186.523438 L 159.941406 242.832031 L 162.601562 242.832031 "/></g></svg>