<?xml version="1.0" encoding="UTF-8"?><svg xmlns="http://www.w3.org/2000/svg" xmlns:xlink="http://www.w3.org/1999/xlink" contentScriptType="text/ecmascript" width="375pt" zoomAndPan="magnify" contentStyleType="text/css" viewBox="0 0 375 374.999991" height="374.999991pt" preserveAspectRatio="xMidYMid meet" version="1.2"><defs><clipPath xml:id="clip2" id="clip2"><path d="M 0.398438 0.398438 L 336.878906 0.398438 L 336.878906 361.359375 L 0.398438 361.359375 Z M 0.398438 0.398438 "/></clipPath><clipPath xml:id="clip4" id="clip4"><path d="M 1 0.398438 L 336.878906 0.398438 L 336.878906 361 L 1 361 Z M 1 0.398438 "/></clipPath><clipPath xml:id="clip3" id="clip3"><rect x="0" width="337" y="0" height="362"/></clipPath><clipPath xml:id="clip1" id="clip1"><rect x="0" width="337" y="0" height="362"/></clipPath><clipPath xml:id="clip5" id="clip5"><path d="M 84 71 L 292 71 L 292 331 L 84 331 Z M 84 71 "/></clipPath><clipPath xml:id="clip6" id="clip6"><path d="M 58.109375 99.636719 L 134.53125 45.335938 L 316.984375 302.117188 L 240.5625 356.417969 Z M 58.109375 99.636719 "/></clipPath><clipPath xml:id="clip7" id="clip7"><path d="M 58.109375 99.636719 L 134.53125 45.335938 L 316.984375 302.117188 L 240.5625 356.417969 Z M 58.109375 99.636719 "/></clipPath><clipPath xml:id="clip8" id="clip8"><path d="M 69 68 L 316 68 L 316 305 L 69 305 Z M 69 68 "/></clipPath><clipPath xml:id="clip9" id="clip9"><path d="M 105.113281 336.507812 L 37.707031 265.027344 L 278.886719 37.597656 L 346.292969 109.078125 Z M 105.113281 336.507812 "/></clipPath><clipPath xml:id="clip10" id="clip10"><path d="M 105.113281 336.507812 L 37.707031 265.027344 L 278.886719 37.597656 L 346.292969 109.078125 Z M 105.113281 336.507812 "/></clipPath></defs><g xml:id="surface1" id="surface1"><g transform="matrix(1,0,0,1,14,8)"><g xml:id="surface8" id="surface8" clip-path="url(#clip1)"><g clip-rule="nonzero" clip-path="url(#clip2)"><g comp-op="multiply"><g xml:id="surface6" id="surface6" clip-path="url(#clip3)"><g clip-rule="nonzero" clip-path="url(#clip4)"><path style=" stroke:none;fill-rule:nonzero;fill:rgb(60.778809%,8.239746%,41.178894%);fill-opacity:1;" d="M 242.78125 3.039062 C 237.40625 4.136719 44.113281 30.675781 29.355469 125.019531 C 14.59375 219.367188 -43.136719 281.738281 66.9375 318.507812 C 177.015625 355.277344 248.148438 395.265625 293.789062 310.488281 C 339.429688 225.710938 378.355469 -24.59375 242.78125 3.039062 Z M 242.78125 3.039062 "/></g></g></g></g></g></g><g clip-rule="nonzero" clip-path="url(#clip5)"><g clip-rule="nonzero" clip-path="url(#clip6)"><g clip-rule="nonzero" clip-path="url(#clip7)"><path style=" stroke:none;fill-rule:nonzero;fill:rgb(100%,100%,100%);fill-opacity:1;" d="M 273.160156 269.304688 L 268.054688 298.140625 L 122.792969 93.707031 L 151.707031 98.371094 C 154.210938 98.796875 156.628906 98.136719 158.546875 96.777344 C 160.515625 95.375 161.898438 93.257812 162.335938 90.667969 C 163.148438 85.609375 159.742188 80.816406 154.683594 80.007812 L 103.867188 71.777344 C 98.859375 70.929688 94.113281 74.300781 93.214844 79.34375 L 84.269531 130.042969 C 83.371094 135.082031 86.726562 139.914062 91.820312 140.773438 C 96.863281 141.667969 101.691406 138.3125 102.554688 133.21875 L 107.664062 104.382812 L 252.925781 308.816406 L 224.011719 304.152344 C 218.953125 303.34375 214.160156 306.75 213.347656 311.808594 C 212.535156 316.863281 215.941406 321.65625 220.996094 322.464844 L 271.816406 330.699219 C 274.320312 331.121094 276.738281 330.464844 278.65625 329.101562 C 280.574219 327.738281 281.992188 325.667969 282.414062 323.167969 L 291.363281 272.46875 C 292.261719 267.425781 288.90625 262.597656 283.8125 261.738281 C 278.855469 260.855469 274.0625 264.261719 273.160156 269.304688 Z M 273.160156 269.304688 "/></g></g></g><g clip-rule="nonzero" clip-path="url(#clip8)"><g clip-rule="nonzero" clip-path="url(#clip9)"><g clip-rule="nonzero" clip-path="url(#clip10)"><path style=" stroke:none;fill-rule:nonzero;fill:rgb(100%,100%,100%);fill-opacity:1;" d="M 250.992188 87.984375 L 281.730469 89.058594 L 89.71875 270.125 L 90.449219 239.378906 C 90.53125 236.710938 89.503906 234.292969 87.8125 232.5 C 86.074219 230.65625 83.671875 229.53125 80.914062 229.457031 C 75.535156 229.355469 71.035156 233.601562 70.914062 238.976562 L 69.597656 293.023438 C 69.429688 298.355469 73.617188 302.792969 78.992188 302.984375 L 133.023438 304.839844 C 138.398438 305.035156 142.941406 300.835938 143.113281 295.414062 C 143.324219 290.039062 139.144531 285.507812 133.722656 285.359375 L 102.984375 284.285156 L 294.992188 103.21875 L 294.265625 133.964844 C 294.144531 139.34375 298.375 143.828125 303.75 143.929688 C 309.128906 144.03125 313.632812 139.789062 313.753906 134.410156 L 315.070312 80.363281 C 315.152344 77.699219 314.125 75.28125 312.433594 73.484375 C 310.742188 71.691406 308.386719 70.523438 305.71875 70.449219 L 251.691406 68.59375 C 246.3125 68.402344 241.769531 72.597656 241.597656 78.023438 C 241.386719 83.304688 245.617188 87.789062 250.992188 87.984375 Z M 250.992188 87.984375 "/></g></g></g></g></svg>