<?xml version="1.0" encoding="UTF-8"?><svg xmlns="http://www.w3.org/2000/svg" xmlns:xlink="http://www.w3.org/1999/xlink" contentScriptType="text/ecmascript" width="375pt" zoomAndPan="magnify" contentStyleType="text/css" viewBox="0 0 375 374.999991" height="374.999991pt" preserveAspectRatio="xMidYMid meet" version="1.2"><defs><clipPath xml:id="clip1" id="clip1"><path d="M 2.410156 2.410156 L 262 2.410156 L 262 262 L 2.410156 262 Z M 2.410156 2.410156 "/></clipPath><clipPath xml:id="clip2" id="clip2"><path d="M 235 238 L 370 238 L 370 372.910156 L 235 372.910156 Z M 235 238 "/></clipPath></defs><g xml:id="surface1" id="surface1"><g clip-rule="nonzero" clip-path="url(#clip1)"><path style=" stroke:none;fill-rule:nonzero;fill:rgb(100%,56.858826%,30.198669%);fill-opacity:1;" d="M 132.179688 45.0625 C 180.265625 45.0625 219.25 84.035156 219.25 132.101562 C 219.25 180.207031 180.265625 219.210938 132.179688 219.210938 C 84.089844 219.210938 45.113281 180.214844 45.113281 132.101562 C 45.113281 84.035156 84.089844 45.0625 132.179688 45.0625 M 132.179688 2.410156 C 60.660156 2.410156 2.460938 60.605469 2.460938 132.101562 C 2.460938 203.652344 60.660156 261.820312 132.179688 261.820312 C 203.703125 261.820312 261.878906 203.644531 261.878906 132.101562 C 261.878906 60.605469 203.703125 2.410156 132.179688 2.410156 Z M 132.179688 2.410156 "/></g><g clip-rule="nonzero" clip-path="url(#clip2)"><path style=" stroke:none;fill-rule:nonzero;fill:rgb(100%,56.858826%,30.198669%);fill-opacity:1;" d="M 333.847656 372.875 C 324.734375 372.875 315.675781 369.414062 308.726562 362.464844 L 245.644531 299.371094 C 231.753906 285.503906 231.753906 263.039062 245.644531 249.117188 C 259.535156 235.242188 282.007812 235.242188 295.898438 249.117188 L 358.980469 312.21875 C 372.867188 326.101562 372.867188 348.582031 358.980469 362.464844 C 352.039062 369.414062 342.96875 372.875 333.847656 372.875 Z M 333.847656 372.875 "/></g><path style=" stroke:none;fill-rule:nonzero;fill:rgb(100%,56.858826%,30.198669%);fill-opacity:1;" d="M 232.519531 205.886719 L 267.179688 240.527344 L 237.027344 270.699219 L 202.367188 236.058594 Z M 232.519531 205.886719 "/></g></svg>