<?xml version="1.0" encoding="UTF-8"?><svg xmlns="http://www.w3.org/2000/svg" xmlns:xlink="http://www.w3.org/1999/xlink" contentScriptType="text/ecmascript" width="375pt" zoomAndPan="magnify" contentStyleType="text/css" viewBox="0 0 375 374.999991" height="374.999991pt" preserveAspectRatio="xMidYMid meet" version="1.2"><defs><clipPath xml:id="clip1" id="clip1"><path d="M 0 306 L 15 306 L 15 323.8125 L 0 323.8125 Z M 0 306 "/></clipPath><clipPath xml:id="clip2" id="clip2"><path d="M 359 306 L 375 306 L 375 323.8125 L 359 323.8125 Z M 359 306 "/></clipPath><clipPath xml:id="clip3" id="clip3"><path d="M 102 51.5625 L 272 51.5625 L 272 224 L 102 224 Z M 102 51.5625 "/></clipPath></defs><g xml:id="surface1" id="surface1"><path style=" stroke:none;fill-rule:nonzero;fill:rgb(0%,76.078796%,79.60968%);fill-opacity:1;" d="M 29.375 265.75 C 30.261719 266.042969 30.855469 266.339844 31.742188 266.339844 C 34.109375 266.339844 36.179688 265.15625 37.066406 262.785156 L 41.503906 252.417969 C 42.6875 249.453125 41.503906 245.898438 38.546875 244.714844 C 35.585938 243.53125 32.039062 244.714844 30.855469 247.675781 L 26.417969 258.046875 C 25.234375 260.710938 26.417969 264.265625 29.375 265.75 Z M 29.375 265.75 "/><path style=" stroke:none;fill-rule:nonzero;fill:rgb(0%,76.078796%,79.60968%);fill-opacity:1;" d="M 44.460938 215.683594 L 40.023438 226.347656 C 38.839844 229.308594 40.023438 232.863281 42.984375 234.050781 C 43.871094 234.347656 44.460938 234.640625 45.351562 234.640625 C 47.714844 234.640625 49.789062 233.457031 50.675781 231.085938 L 55.113281 220.71875 C 56.296875 217.757812 55.113281 214.203125 52.152344 213.015625 C 49.195312 211.238281 45.644531 212.71875 44.460938 215.683594 Z M 44.460938 215.683594 "/><path style=" stroke:none;fill-rule:nonzero;fill:rgb(0%,76.078796%,79.60968%);fill-opacity:1;" d="M 53.632812 194.648438 C 52.449219 197.613281 53.632812 201.167969 56.589844 202.351562 C 57.480469 202.648438 58.070312 202.945312 58.957031 202.945312 C 61.324219 202.945312 63.394531 201.757812 64.285156 199.390625 L 68.722656 189.019531 C 69.90625 186.058594 68.722656 182.503906 65.761719 181.316406 C 62.804688 180.132812 59.253906 181.316406 58.070312 184.28125 Z M 53.632812 194.648438 "/><path style=" stroke:none;fill-rule:nonzero;fill:rgb(0%,76.078796%,79.60968%);fill-opacity:1;" d="M 18.132812 297.742188 C 20.5 297.742188 22.570312 296.558594 23.457031 294.1875 L 27.894531 283.820312 C 29.078125 280.855469 27.894531 277.300781 24.9375 276.117188 C 21.980469 274.933594 18.429688 276.117188 17.246094 279.078125 L 17.246094 279.375 C 16.0625 277.597656 14.582031 276.710938 12.511719 276.710938 L 6.890625 276.710938 C 3.636719 276.710938 0.972656 279.375 0.972656 282.632812 C 0.972656 285.894531 3.636719 288.558594 6.890625 288.558594 L 12.808594 288.558594 C 13.105469 288.558594 13.105469 288.558594 13.398438 288.558594 L 12.808594 289.449219 C 11.625 292.410156 12.808594 295.964844 15.765625 297.148438 C 16.652344 297.445312 17.542969 297.742188 18.132812 297.742188 Z M 18.132812 297.742188 "/><g clip-rule="nonzero" clip-path="url(#clip1)"><path style=" stroke:none;fill-rule:nonzero;fill:rgb(0%,76.078796%,79.60968%);fill-opacity:1;" d="M 11.328125 307.222656 C 8.371094 306.039062 4.820312 307.222656 3.636719 310.183594 L 1.269531 315.515625 C 0.0859375 318.480469 1.269531 322.035156 4.226562 323.21875 C 5.117188 323.515625 5.707031 323.8125 6.59375 323.8125 C 8.960938 323.8125 11.03125 322.628906 11.921875 320.257812 L 14.285156 314.925781 C 15.765625 312.257812 14.285156 308.703125 11.328125 307.222656 Z M 11.328125 307.222656 "/></g><path style=" stroke:none;fill-rule:nonzero;fill:rgb(0%,76.078796%,79.60968%);fill-opacity:1;" d="M 343.851562 247.382812 C 342.667969 244.417969 339.117188 242.9375 336.160156 244.417969 C 333.199219 245.605469 331.722656 249.160156 333.199219 252.121094 L 337.636719 262.488281 C 338.523438 264.859375 340.597656 266.042969 342.960938 266.042969 C 343.851562 266.042969 344.441406 265.75 345.328125 265.453125 C 348.289062 264.265625 349.765625 260.710938 348.289062 257.75 Z M 343.851562 247.382812 "/><path style=" stroke:none;fill-rule:nonzero;fill:rgb(0%,76.078796%,79.60968%);fill-opacity:1;" d="M 367.8125 276.710938 L 361.894531 276.710938 C 360.121094 276.710938 358.347656 277.597656 357.164062 279.078125 L 357.164062 278.78125 C 355.980469 275.820312 352.429688 274.339844 349.472656 275.820312 C 346.511719 277.003906 345.035156 280.5625 346.511719 283.523438 L 350.949219 293.890625 C 351.839844 296.261719 353.910156 297.445312 356.277344 297.445312 C 357.164062 297.445312 357.753906 297.148438 358.640625 296.855469 C 361.601562 295.667969 363.078125 292.113281 361.601562 289.152344 L 361.304688 288.261719 C 361.601562 288.261719 361.601562 288.261719 361.894531 288.261719 L 367.8125 288.261719 C 371.066406 288.261719 373.730469 285.597656 373.730469 282.339844 C 373.730469 279.078125 371.066406 276.710938 367.8125 276.710938 Z M 367.8125 276.710938 "/><path style=" stroke:none;fill-rule:nonzero;fill:rgb(0%,76.078796%,79.60968%);fill-opacity:1;" d="M 310.421875 158.210938 L 305.390625 158.210938 L 303.023438 152.582031 C 301.839844 149.621094 298.292969 148.136719 295.332031 149.621094 C 292.375 150.804688 290.894531 154.359375 292.375 157.320312 L 294.148438 161.46875 C 293.855469 162.359375 293.558594 163.246094 293.558594 164.136719 C 293.558594 167.097656 295.628906 169.46875 298.585938 170.0625 C 299.769531 170.949219 300.953125 171.542969 302.433594 171.542969 C 303.320312 171.542969 303.914062 171.246094 304.800781 170.949219 C 305.390625 170.652344 305.6875 170.355469 306.277344 170.0625 L 310.714844 170.0625 C 313.96875 170.0625 316.632812 167.394531 316.632812 164.136719 C 316.632812 160.878906 313.675781 158.210938 310.421875 158.210938 Z M 310.421875 158.210938 "/><path style=" stroke:none;fill-rule:nonzero;fill:rgb(0%,76.078796%,79.60968%);fill-opacity:1;" d="M 322.550781 212.71875 C 319.589844 213.90625 318.113281 217.460938 319.589844 220.421875 L 324.027344 230.792969 C 324.917969 233.160156 326.988281 234.347656 329.355469 234.347656 C 330.242188 234.347656 330.832031 234.050781 331.722656 233.753906 C 334.679688 232.570312 336.160156 229.015625 334.679688 226.050781 L 330.242188 215.683594 C 329.058594 212.71875 325.507812 211.238281 322.550781 212.71875 Z M 322.550781 212.71875 "/><path style=" stroke:none;fill-rule:nonzero;fill:rgb(0%,76.078796%,79.60968%);fill-opacity:1;" d="M 316.632812 184.28125 C 315.449219 181.316406 311.898438 179.835938 308.941406 181.316406 C 305.984375 182.503906 304.503906 186.058594 305.984375 189.019531 L 310.421875 199.390625 C 311.308594 201.757812 313.378906 202.945312 315.746094 202.945312 C 316.632812 202.945312 317.226562 202.648438 318.113281 202.351562 C 321.070312 201.167969 322.550781 197.613281 321.070312 194.648438 Z M 316.632812 184.28125 "/><g clip-rule="nonzero" clip-path="url(#clip2)"><path style=" stroke:none;fill-rule:nonzero;fill:rgb(0%,76.078796%,79.60968%);fill-opacity:1;" d="M 363.375 307.222656 C 360.417969 308.40625 358.9375 311.960938 360.417969 314.925781 L 362.785156 320.257812 C 363.671875 322.628906 365.742188 323.8125 368.109375 323.8125 C 368.996094 323.8125 369.589844 323.515625 370.476562 323.21875 C 373.433594 322.035156 374.914062 318.480469 373.433594 315.515625 L 371.066406 310.183594 C 369.589844 307.519531 366.039062 306.039062 363.375 307.222656 Z M 363.375 307.222656 "/></g><path style=" stroke:none;fill-rule:nonzero;fill:rgb(0%,76.078796%,79.60968%);fill-opacity:1;" d="M 41.800781 158.210938 L 35.882812 158.210938 C 32.628906 158.210938 29.964844 160.878906 29.964844 164.136719 C 29.964844 167.394531 32.628906 170.0625 35.882812 170.0625 L 41.800781 170.0625 C 45.054688 170.0625 47.714844 167.394531 47.714844 164.136719 C 47.714844 160.878906 45.054688 158.210938 41.800781 158.210938 Z M 41.800781 158.210938 "/><path style=" stroke:none;fill-rule:nonzero;fill:rgb(0%,76.078796%,79.60968%);fill-opacity:1;" d="M 338.820312 158.210938 L 332.902344 158.210938 C 329.648438 158.210938 326.988281 160.878906 326.988281 164.136719 C 326.988281 167.394531 329.648438 170.0625 332.902344 170.0625 L 338.820312 170.0625 C 342.074219 170.0625 344.738281 167.394531 344.738281 164.136719 C 344.738281 160.878906 342.074219 158.210938 338.820312 158.210938 Z M 338.820312 158.210938 "/><path style=" stroke:none;fill-rule:nonzero;fill:rgb(0%,76.078796%,79.60968%);fill-opacity:1;" d="M 36.769531 276.710938 C 33.515625 276.710938 30.855469 279.375 30.855469 282.632812 C 30.855469 285.894531 33.515625 288.558594 36.769531 288.558594 L 48.898438 288.558594 C 52.152344 288.558594 54.816406 285.894531 54.816406 282.632812 C 54.816406 279.375 52.152344 276.710938 48.898438 276.710938 Z M 36.769531 276.710938 "/><path style=" stroke:none;fill-rule:nonzero;fill:rgb(0%,76.078796%,79.60968%);fill-opacity:1;" d="M 145.046875 276.710938 C 141.792969 276.710938 139.128906 279.375 139.128906 282.632812 C 139.128906 285.894531 141.792969 288.558594 145.046875 288.558594 L 157.175781 288.558594 C 160.429688 288.558594 163.09375 285.894531 163.09375 282.632812 C 163.09375 279.375 160.429688 276.710938 157.175781 276.710938 Z M 145.046875 276.710938 "/><path style=" stroke:none;fill-rule:nonzero;fill:rgb(0%,76.078796%,79.60968%);fill-opacity:1;" d="M 253.621094 276.710938 C 250.367188 276.710938 247.703125 279.375 247.703125 282.632812 C 247.703125 285.894531 250.367188 288.558594 253.621094 288.558594 L 265.75 288.558594 C 269.003906 288.558594 271.664062 285.894531 271.664062 282.632812 C 271.664062 279.375 269.003906 276.710938 265.75 276.710938 Z M 253.621094 276.710938 "/><path style=" stroke:none;fill-rule:nonzero;fill:rgb(0%,76.078796%,79.60968%);fill-opacity:1;" d="M 217.527344 276.710938 C 214.273438 276.710938 211.609375 279.375 211.609375 282.632812 C 211.609375 285.894531 214.273438 288.558594 217.527344 288.558594 L 229.65625 288.558594 C 232.910156 288.558594 235.574219 285.894531 235.574219 282.632812 C 235.574219 279.375 232.910156 276.710938 229.65625 276.710938 Z M 217.527344 276.710938 "/><path style=" stroke:none;fill-rule:nonzero;fill:rgb(0%,76.078796%,79.60968%);fill-opacity:1;" d="M 337.933594 276.710938 L 325.804688 276.710938 C 322.550781 276.710938 319.886719 279.375 319.886719 282.632812 C 319.886719 285.894531 322.550781 288.558594 325.804688 288.558594 L 337.933594 288.558594 C 341.1875 288.558594 343.851562 285.894531 343.851562 282.632812 C 343.851562 279.375 341.1875 276.710938 337.933594 276.710938 Z M 337.933594 276.710938 "/><path style=" stroke:none;fill-rule:nonzero;fill:rgb(0%,76.078796%,79.60968%);fill-opacity:1;" d="M 301.839844 276.710938 L 289.710938 276.710938 C 286.457031 276.710938 283.796875 279.375 283.796875 282.632812 C 283.796875 285.894531 286.457031 288.558594 289.710938 288.558594 L 301.839844 288.558594 C 305.09375 288.558594 307.757812 285.894531 307.757812 282.632812 C 307.757812 279.375 305.09375 276.710938 301.839844 276.710938 Z M 301.839844 276.710938 "/><path style=" stroke:none;fill-rule:nonzero;fill:rgb(0%,76.078796%,79.60968%);fill-opacity:1;" d="M 121.085938 276.710938 L 108.953125 276.710938 C 105.699219 276.710938 103.039062 279.375 103.039062 282.632812 C 103.039062 285.894531 105.699219 288.558594 108.953125 288.558594 L 121.085938 288.558594 C 124.339844 288.558594 127 285.894531 127 282.632812 C 127 279.375 124.339844 276.710938 121.085938 276.710938 Z M 121.085938 276.710938 "/><path style=" stroke:none;fill-rule:nonzero;fill:rgb(0%,76.078796%,79.60968%);fill-opacity:1;" d="M 84.992188 276.710938 L 72.863281 276.710938 C 69.609375 276.710938 66.945312 279.375 66.945312 282.632812 C 66.945312 285.894531 69.609375 288.558594 72.863281 288.558594 L 84.992188 288.558594 C 88.246094 288.558594 90.910156 285.894531 90.910156 282.632812 C 90.910156 279.375 88.246094 276.710938 84.992188 276.710938 Z M 84.992188 276.710938 "/><path style=" stroke:none;fill-rule:nonzero;fill:rgb(0%,76.078796%,79.60968%);fill-opacity:1;" d="M 181.433594 276.710938 C 178.179688 276.710938 175.519531 279.375 175.519531 282.632812 C 175.519531 285.894531 178.179688 288.558594 181.433594 288.558594 L 193.269531 288.558594 C 196.523438 288.558594 199.1875 285.894531 199.1875 282.632812 C 199.1875 279.375 196.523438 276.710938 193.269531 276.710938 Z M 181.433594 276.710938 "/><path style=" stroke:none;fill-rule:nonzero;fill:rgb(0%,76.078796%,79.60968%);fill-opacity:1;" d="M 82.921875 126.214844 L 80.554688 131.550781 C 79.371094 134.511719 80.554688 138.066406 83.511719 139.25 C 84.402344 139.546875 84.992188 139.84375 85.878906 139.84375 C 88.246094 139.84375 90.316406 138.660156 91.203125 136.289062 L 91.5 135.695312 C 90.910156 131.84375 91.203125 127.992188 92.386719 124.4375 C 91.796875 123.847656 91.203125 123.253906 90.613281 122.957031 C 87.65625 121.773438 84.402344 123.253906 82.921875 126.214844 Z M 82.921875 126.214844 "/><path style=" stroke:none;fill-rule:nonzero;fill:rgb(0%,76.078796%,79.60968%);fill-opacity:1;" d="M 291.78125 126.214844 C 290.597656 123.253906 287.050781 121.773438 284.089844 123.253906 C 283.203125 123.550781 282.613281 124.144531 282.316406 124.734375 C 283.5 128.289062 283.796875 132.140625 283.203125 135.992188 L 283.5 136.585938 C 284.386719 138.953125 286.457031 140.140625 288.824219 140.140625 C 289.710938 140.140625 290.304688 139.84375 291.191406 139.546875 C 294.148438 138.363281 295.628906 134.808594 294.148438 131.84375 Z M 291.78125 126.214844 "/><path style=" stroke:none;fill-rule:nonzero;fill:rgb(0%,76.078796%,79.60968%);fill-opacity:1;" d="M 71.679688 152.582031 L 69.3125 158.210938 L 64.285156 158.210938 C 61.03125 158.210938 58.367188 160.878906 58.367188 164.136719 C 58.367188 167.394531 61.03125 170.0625 64.285156 170.0625 L 68.722656 170.0625 C 69.015625 170.355469 69.609375 170.652344 70.199219 170.949219 C 71.085938 171.246094 71.679688 171.542969 72.566406 171.542969 C 74.046875 171.542969 75.230469 170.949219 76.414062 170.0625 C 79.074219 169.765625 81.441406 167.097656 81.441406 164.136719 C 81.441406 163.246094 81.144531 162.359375 80.851562 161.46875 L 82.625 157.320312 C 83.808594 154.359375 82.625 150.804688 79.667969 149.621094 C 76.414062 148.433594 72.863281 149.621094 71.679688 152.582031 Z M 71.679688 152.582031 "/><path style=" stroke:none;fill-rule:nonzero;fill:rgb(0%,76.078796%,79.60968%);fill-opacity:1;" d="M 276.992188 158.210938 L 265.75 158.210938 C 265.15625 158.210938 264.566406 158.210938 263.679688 158.507812 L 262.789062 169.171875 C 263.679688 169.765625 264.566406 170.0625 265.75 170.0625 L 276.992188 170.0625 C 280.246094 170.0625 282.90625 167.394531 282.90625 164.136719 C 282.90625 160.878906 280.246094 158.210938 276.992188 158.210938 Z M 276.992188 158.210938 "/><path style=" stroke:none;fill-rule:nonzero;fill:rgb(0%,76.078796%,79.60968%);fill-opacity:1;" d="M 91.796875 164.136719 C 91.796875 167.394531 94.460938 170.0625 97.714844 170.0625 L 108.953125 170.0625 C 109.84375 170.0625 111.027344 169.765625 111.914062 169.171875 L 111.027344 158.507812 C 110.136719 158.210938 109.546875 158.210938 108.953125 158.210938 L 97.714844 158.210938 C 94.460938 158.210938 91.796875 160.878906 91.796875 164.136719 Z M 91.796875 164.136719 "/><g clip-rule="nonzero" clip-path="url(#clip3)"><path style=" stroke:none;fill-rule:nonzero;fill:rgb(0%,76.078796%,79.60968%);fill-opacity:1;" d="M 195.339844 54.820312 C 192.972656 52.746094 190.308594 51.5625 187.351562 51.5625 C 184.394531 51.5625 181.730469 52.746094 179.363281 54.820312 L 106.589844 123.847656 C 103.039062 127.105469 101.855469 132.4375 103.628906 136.882812 C 105.40625 141.324219 109.546875 144.289062 114.574219 144.289062 L 121.378906 144.289062 L 126.707031 208.277344 C 127.296875 216.867188 134.691406 223.386719 142.976562 223.386719 L 231.726562 223.386719 C 240.011719 223.386719 247.40625 216.570312 248 208.277344 L 253.324219 144.289062 L 260.128906 144.289062 C 264.863281 144.289062 269.300781 141.324219 271.074219 136.882812 C 272.847656 132.4375 271.664062 127.105469 268.117188 123.847656 Z M 204.804688 211.535156 L 169.898438 211.535156 L 169.898438 178.949219 L 204.804688 178.949219 Z M 204.804688 211.535156 "/></g></g></svg>