<?xml version="1.0" encoding="UTF-8"?><svg xmlns="http://www.w3.org/2000/svg" xmlns:xlink="http://www.w3.org/1999/xlink" contentScriptType="text/ecmascript" width="375pt" zoomAndPan="magnify" contentStyleType="text/css" viewBox="0 0 375 374.999991" height="374.999991pt" preserveAspectRatio="xMidYMid meet" version="1.2"><defs><clipPath xml:id="clip1" id="clip1"><path d="M 22.214844 31 L 348 31 L 348 325.886719 L 22.214844 325.886719 Z M 22.214844 31 "/></clipPath><clipPath xml:id="clip2" id="clip2"><path d="M 162.628906 166.859375 C 148.007812 165.695312 157.5625 155.039062 154.914062 154.945312 C 140.332031 154.417969 140.054688 136.757812 153.191406 135.554688 C 166.742188 134.3125 167.132812 154.210938 167.691406 154.234375 C 174.597656 154.582031 177.691406 158.3125 178.488281 164.027344 C 179.441406 170.824219 175.980469 176.515625 175.980469 176.515625 C 175.980469 176.515625 175.824219 167.910156 162.628906 166.859375 Z M 179.015625 92.117188 C 206.71875 89.578125 207.515625 130.253906 208.660156 130.3125 C 222.785156 131.015625 229.105469 138.640625 230.738281 150.332031 C 232.683594 164.234375 225.613281 175.859375 225.613281 175.859375 C 225.613281 175.859375 225.292969 158.273438 198.308594 156.125 C 168.414062 153.738281 187.953125 131.960938 182.539062 131.765625 C 152.726562 130.683594 152.152344 94.574219 179.015625 92.117188 Z M 205.449219 257.628906 C 198.628906 257.628906 193.617188 248.796875 193.617188 234.855469 C 193.617188 221.660156 198.097656 212.292969 204.597656 212.398438 C 212.804688 212.398438 216.324219 222.726562 216.324219 235.601562 C 216.324219 248.796875 212.164062 257.628906 205.449219 257.628906 Z M 204.703125 196.011719 C 182.636719 196.011719 167.289062 211.867188 167.289062 234.855469 C 167.289062 261.457031 183.175781 274.339844 205.449219 274.339844 C 229.542969 274.339844 242.972656 259.648438 242.972656 235.601562 C 242.972656 211.65625 230.816406 196.011719 204.703125 196.011719 Z M 150.152344 245.492188 L 162.621094 259.117188 C 155.375 267.101562 144.285156 274.125 130.320312 274.125 C 107.726562 274.125 92.695312 259.648438 92.695312 235.921875 C 92.695312 211.441406 111.136719 196.761719 125.097656 196.761719 C 135.757812 196.761719 140.554688 202.714844 141.515625 203.992188 L 143.964844 198.035156 L 160.703125 198.035156 L 160.703125 228.253906 L 141.621094 228.253906 C 141.304688 221.339844 137.890625 214.851562 130.320312 214.851562 C 122.648438 214.851562 117.636719 224.316406 117.636719 235.921875 C 117.636719 246.453125 123.074219 255.925781 133.199219 255.925781 C 142.152344 255.925781 149.1875 246.5625 150.152344 245.492188 Z M 279.546875 267.992188 L 292.390625 267.992188 L 292.390625 284.242188 L 251.109375 284.242188 L 251.109375 273.179688 C 255.316406 266.3125 257.378906 264.097656 262.273438 260.207031 C 267.695312 255.398438 275.800781 252.191406 275.800781 247.460938 C 275.800781 243.570312 272.898438 242.425781 269.382812 242.425781 C 265.253906 242.425781 262.273438 245.785156 259.980469 248.222656 L 251.722656 239.523438 C 257.074219 233.339844 263.953125 230.058594 271.597656 230.058594 C 281.761719 230.058594 289.789062 236.472656 289.789062 246.773438 C 289.789062 255.546875 285.664062 258.601562 277.558594 263.863281 C 273.890625 266.234375 267.851562 271.039062 266.09375 274.09375 L 279.546875 274.09375 Z M 298.261719 304.199219 L 71.992188 304.199219 C 46.808594 304.199219 36.601562 286.546875 49.191406 264.773438 L 162.324219 69.140625 C 174.917969 47.363281 195.332031 47.363281 207.925781 69.140625 L 321.0625 264.773438 C 333.652344 286.546875 323.445312 304.199219 298.261719 304.199219 Z M 339.644531 254.058594 L 226.507812 58.425781 C 216.574219 41.238281 201.488281 31.382812 185.125 31.382812 C 168.765625 31.382812 153.679688 41.238281 143.742188 58.425781 L 30.609375 254.058594 C 20.671875 271.25 19.664062 289.21875 27.839844 303.363281 C 36.023438 317.507812 52.113281 325.625 71.992188 325.625 L 298.261719 325.625 C 318.140625 325.625 334.230469 317.507812 342.40625 303.363281 C 350.589844 289.21875 349.582031 271.25 339.644531 254.058594 Z M 339.644531 254.058594 "/></clipPath><clipPath xml:id="clip3" id="clip3"><path d="M 162.628906 166.859375 C 148.007812 165.695312 157.5625 155.039062 154.914062 154.945312 C 140.332031 154.417969 140.054688 136.757812 153.191406 135.554688 C 166.742188 134.3125 167.132812 154.210938 167.691406 154.234375 C 174.597656 154.582031 177.691406 158.3125 178.488281 164.027344 C 179.441406 170.824219 175.980469 176.515625 175.980469 176.515625 C 175.980469 176.515625 175.824219 167.910156 162.628906 166.859375 Z M 179.015625 92.117188 C 206.71875 89.578125 207.515625 130.253906 208.660156 130.3125 C 222.785156 131.015625 229.105469 138.640625 230.738281 150.332031 C 232.683594 164.234375 225.613281 175.859375 225.613281 175.859375 C 225.613281 175.859375 225.292969 158.273438 198.308594 156.125 C 168.414062 153.738281 187.953125 131.960938 182.539062 131.765625 C 152.726562 130.683594 152.152344 94.574219 179.015625 92.117188 Z M 205.449219 257.628906 C 198.628906 257.628906 193.617188 248.796875 193.617188 234.855469 C 193.617188 221.660156 198.097656 212.292969 204.597656 212.398438 C 212.804688 212.398438 216.324219 222.726562 216.324219 235.601562 C 216.324219 248.796875 212.164062 257.628906 205.449219 257.628906 Z M 204.703125 196.011719 C 182.636719 196.011719 167.289062 211.867188 167.289062 234.855469 C 167.289062 261.457031 183.175781 274.339844 205.449219 274.339844 C 229.542969 274.339844 242.972656 259.648438 242.972656 235.601562 C 242.972656 211.65625 230.816406 196.011719 204.703125 196.011719 Z M 150.152344 245.492188 L 162.621094 259.117188 C 155.375 267.101562 144.285156 274.125 130.320312 274.125 C 107.726562 274.125 92.695312 259.648438 92.695312 235.921875 C 92.695312 211.441406 111.136719 196.761719 125.097656 196.761719 C 135.757812 196.761719 140.554688 202.714844 141.515625 203.992188 L 143.964844 198.035156 L 160.703125 198.035156 L 160.703125 228.253906 L 141.621094 228.253906 C 141.304688 221.339844 137.890625 214.851562 130.320312 214.851562 C 122.648438 214.851562 117.636719 224.316406 117.636719 235.921875 C 117.636719 246.453125 123.074219 255.925781 133.199219 255.925781 C 142.152344 255.925781 149.1875 246.5625 150.152344 245.492188 Z M 279.546875 267.992188 L 292.390625 267.992188 L 292.390625 284.242188 L 251.109375 284.242188 L 251.109375 273.179688 C 255.316406 266.3125 257.378906 264.097656 262.273438 260.207031 C 267.695312 255.398438 275.800781 252.191406 275.800781 247.460938 C 275.800781 243.570312 272.898438 242.425781 269.382812 242.425781 C 265.253906 242.425781 262.273438 245.785156 259.980469 248.222656 L 251.722656 239.523438 C 257.074219 233.339844 263.953125 230.058594 271.597656 230.058594 C 281.761719 230.058594 289.789062 236.472656 289.789062 246.773438 C 289.789062 255.546875 285.664062 258.601562 277.558594 263.863281 C 273.890625 266.234375 267.851562 271.039062 266.09375 274.09375 L 279.546875 274.09375 Z M 298.261719 304.199219 L 71.992188 304.199219 C 46.808594 304.199219 36.601562 286.546875 49.191406 264.773438 L 162.324219 69.140625 C 174.917969 47.363281 195.332031 47.363281 207.925781 69.140625 L 321.0625 264.773438 C 333.652344 286.546875 323.445312 304.199219 298.261719 304.199219 Z M 339.644531 254.058594 L 226.507812 58.425781 C 216.574219 41.238281 201.488281 31.382812 185.125 31.382812 C 168.765625 31.382812 153.679688 41.238281 143.742188 58.425781 L 30.609375 254.058594 C 20.671875 271.25 19.664062 289.21875 27.839844 303.363281 C 36.023438 317.507812 52.113281 325.625 71.992188 325.625 L 298.261719 325.625 C 318.140625 325.625 334.230469 317.507812 342.40625 303.363281 C 350.589844 289.21875 349.582031 271.25 339.644531 254.058594 "/></clipPath><clipPath xml:id="clip4" id="clip4"><path d="M 185.125 -133.808594 L -127.695312 178.503906 L 185.125 490.816406 L 497.949219 178.503906 Z M 185.125 -133.808594 "/></clipPath><linearGradient x1="-0.323721" gradientTransform="matrix(224.581175,224.214625,-224.581175,224.214625,72.835506,126.010497)" xmlns:xlink="http://www.w3.org/1999/xlink" y1="0" x2="1.059067" gradientUnits="userSpaceOnUse" y2="0" xlink:type="simple" xlink:actuate="onLoad" id="linear0" xlink:show="other" xml:id="linear0"><stop style="stop-color:rgb(92.89856%,8.599854%,34.098816%);stop-opacity:1;" offset="0"/><stop style="stop-color:rgb(92.89856%,8.599854%,34.098816%);stop-opacity:1;" offset="0.25"/><stop style="stop-color:rgb(92.89856%,8.627319%,34.098816%);stop-opacity:1;" offset="0.3125"/><stop style="stop-color:rgb(92.89856%,8.827209%,34.060669%);stop-opacity:1;" offset="0.328125"/><stop style="stop-color:rgb(92.89856%,8.999634%,33.860779%);stop-opacity:1;" offset="0.34375"/><stop style="stop-color:rgb(92.89856%,9.199524%,33.499146%);stop-opacity:1;" offset="0.347656"/><stop style="stop-color:rgb(92.89856%,9.399414%,33.299255%);stop-opacity:1;" offset="0.351562"/><stop style="stop-color:rgb(92.89856%,9.599304%,33.099365%);stop-opacity:1;" offset="0.355469"/><stop style="stop-color:rgb(92.89856%,9.799194%,32.899475%);stop-opacity:1;" offset="0.359375"/><stop style="stop-color:rgb(92.89856%,9.999084%,32.699585%);stop-opacity:1;" offset="0.363281"/><stop style="stop-color:rgb(92.89856%,10.198975%,32.499695%);stop-opacity:1;" offset="0.367188"/><stop style="stop-color:rgb(92.89856%,10.398865%,32.348633%);stop-opacity:1;" offset="0.371094"/><stop style="stop-color:rgb(92.89856%,10.598755%,32.199097%);stop-opacity:1;" offset="0.375"/><stop style="stop-color:rgb(93.09845%,10.798645%,31.999207%);stop-opacity:1;" offset="0.378906"/><stop style="stop-color:rgb(93.299866%,10.998535%,31.799316%);stop-opacity:1;" offset="0.382812"/><stop style="stop-color:rgb(93.299866%,11.198425%,31.771851%);stop-opacity:1;" offset="0.386719"/><stop style="stop-color:rgb(93.299866%,11.399841%,31.744385%);stop-opacity:1;" offset="0.390625"/><stop style="stop-color:rgb(93.299866%,11.599731%,31.57196%);stop-opacity:1;" offset="0.394531"/><stop style="stop-color:rgb(93.299866%,11.799622%,31.399536%);stop-opacity:1;" offset="0.398437"/><stop style="stop-color:rgb(93.299866%,11.999512%,31.199646%);stop-opacity:1;" offset="0.402344"/><stop style="stop-color:rgb(93.299866%,12.199402%,30.999756%);stop-opacity:1;" offset="0.40625"/><stop style="stop-color:rgb(93.299866%,12.348938%,30.799866%);stop-opacity:1;" offset="0.410156"/><stop style="stop-color:rgb(93.299866%,12.5%,30.599976%);stop-opacity:1;" offset="0.414062"/><stop style="stop-color:rgb(93.299866%,12.69989%,30.39856%);stop-opacity:1;" offset="0.417969"/><stop style="stop-color:rgb(93.299866%,12.89978%,30.198669%);stop-opacity:1;" offset="0.421875"/><stop style="stop-color:rgb(93.299866%,12.915039%,30.181885%);stop-opacity:1;" offset="0.429688"/><stop style="stop-color:rgb(93.299866%,13.114929%,29.782104%);stop-opacity:1;" offset="0.433594"/><stop style="stop-color:rgb(93.299866%,13.299561%,29.399109%);stop-opacity:1;" offset="0.4375"/><stop style="stop-color:rgb(93.299866%,13.499451%,29.156494%);stop-opacity:1;" offset="0.441406"/><stop style="stop-color:rgb(93.299866%,13.699341%,28.915405%);stop-opacity:1;" offset="0.445313"/><stop style="stop-color:rgb(93.299866%,13.928223%,28.727722%);stop-opacity:1;" offset="0.449219"/><stop style="stop-color:rgb(93.299866%,14.15863%,28.540039%);stop-opacity:1;" offset="0.453125"/><stop style="stop-color:rgb(93.299866%,14.546204%,28.352356%);stop-opacity:1;" offset="0.457031"/><stop style="stop-color:rgb(93.299866%,14.933777%,28.164673%);stop-opacity:1;" offset="0.460938"/><stop style="stop-color:rgb(93.299866%,15.12146%,27.97699%);stop-opacity:1;" offset="0.46875"/><stop style="stop-color:rgb(93.299866%,15.504456%,27.644348%);stop-opacity:1;" offset="0.476562"/><stop style="stop-color:rgb(93.330383%,15.930176%,27.2995%);stop-opacity:1;" offset="0.480469"/><stop style="stop-color:rgb(93.360901%,16.160583%,27.099609%);stop-opacity:1;" offset="0.484375"/><stop style="stop-color:rgb(93.530273%,16.529846%,26.899719%);stop-opacity:1;" offset="0.488281"/><stop style="stop-color:rgb(93.699646%,16.899109%,26.699829%);stop-opacity:1;" offset="0.492188"/><stop style="stop-color:rgb(93.699646%,17.103577%,26.49231%);stop-opacity:1;" offset="0.496094"/><stop style="stop-color:rgb(93.699646%,17.308044%,26.286316%);stop-opacity:1;" offset="0.5"/><stop style="stop-color:rgb(93.699646%,17.64679%,26.092529%);stop-opacity:1;" offset="0.503906"/><stop style="stop-color:rgb(93.699646%,17.987061%,25.898743%);stop-opacity:1;" offset="0.507813"/><stop style="stop-color:rgb(93.699646%,18.374634%,25.698853%);stop-opacity:1;" offset="0.511719"/><stop style="stop-color:rgb(93.699646%,18.762207%,25.498962%);stop-opacity:1;" offset="0.515625"/><stop style="stop-color:rgb(93.699646%,18.980408%,25.299072%);stop-opacity:1;" offset="0.519531"/><stop style="stop-color:rgb(93.699646%,19.198608%,25.099182%);stop-opacity:1;" offset="0.523438"/><stop style="stop-color:rgb(93.699646%,19.406128%,24.899292%);stop-opacity:1;" offset="0.527344"/><stop style="stop-color:rgb(93.699646%,19.613647%,24.699402%);stop-opacity:1;" offset="0.53125"/><stop style="stop-color:rgb(93.699646%,20.001221%,24.504089%);stop-opacity:1;" offset="0.535156"/><stop style="stop-color:rgb(93.699646%,20.388794%,24.308777%);stop-opacity:1;" offset="0.539063"/><stop style="stop-color:rgb(93.699646%,20.776367%,23.921204%);stop-opacity:1;" offset="0.542969"/><stop style="stop-color:rgb(93.699646%,21.165466%,23.53363%);stop-opacity:1;" offset="0.546875"/><stop style="stop-color:rgb(93.899536%,21.55304%,23.345947%);stop-opacity:1;" offset="0.550781"/><stop style="stop-color:rgb(94.099426%,21.940613%,23.158264%);stop-opacity:1;" offset="0.554688"/><stop style="stop-color:rgb(94.099426%,22.288513%,22.927856%);stop-opacity:1;" offset="0.558594"/><stop style="stop-color:rgb(94.099426%,22.636414%,22.698975%);stop-opacity:1;" offset="0.5625"/><stop style="stop-color:rgb(94.099426%,22.866821%,22.3526%);stop-opacity:1;" offset="0.566406"/><stop style="stop-color:rgb(94.099426%,23.098755%,22.007751%);stop-opacity:1;" offset="0.570312"/><stop style="stop-color:rgb(94.099426%,23.683167%,21.618652%);stop-opacity:1;" offset="0.574219"/><stop style="stop-color:rgb(94.099426%,24.267578%,21.231079%);stop-opacity:1;" offset="0.578125"/><stop style="stop-color:rgb(94.099426%,24.655151%,21.043396%);stop-opacity:1;" offset="0.582031"/><stop style="stop-color:rgb(94.099426%,25.042725%,20.855713%);stop-opacity:1;" offset="0.585938"/><stop style="stop-color:rgb(94.099426%,25.430298%,20.66803%);stop-opacity:1;" offset="0.589844"/><stop style="stop-color:rgb(94.099426%,25.817871%,20.480347%);stop-opacity:1;" offset="0.59375"/><stop style="stop-color:rgb(94.099426%,26.205444%,20.439148%);stop-opacity:1;" offset="0.597656"/><stop style="stop-color:rgb(94.099426%,26.593018%,20.399475%);stop-opacity:1;" offset="0.601562"/><stop style="stop-color:rgb(94.299316%,27.030945%,20.214844%);stop-opacity:1;" offset="0.605469"/><stop style="stop-color:rgb(94.499207%,27.468872%,20.030212%);stop-opacity:1;" offset="0.609375"/><stop style="stop-color:rgb(94.499207%,27.806091%,19.841003%);stop-opacity:1;" offset="0.613281"/><stop style="stop-color:rgb(94.499207%,28.144836%,19.65332%);stop-opacity:1;" offset="0.617188"/><stop style="stop-color:rgb(94.499207%,28.692627%,19.465637%);stop-opacity:1;" offset="0.621094"/><stop style="stop-color:rgb(94.499207%,29.240417%,19.277954%);stop-opacity:1;" offset="0.625"/><stop style="stop-color:rgb(94.499207%,29.667664%,18.890381%);stop-opacity:1;" offset="0.628906"/><stop style="stop-color:rgb(94.499207%,30.09491%,18.502808%);stop-opacity:1;" offset="0.632813"/><stop style="stop-color:rgb(94.499207%,30.682373%,18.115234%);stop-opacity:1;" offset="0.636719"/><stop style="stop-color:rgb(94.499207%,31.271362%,17.727661%);stop-opacity:1;" offset="0.640625"/><stop style="stop-color:rgb(94.699097%,31.700134%,17.347717%);stop-opacity:1;" offset="0.644531"/><stop style="stop-color:rgb(94.898987%,32.128906%,16.969299%);stop-opacity:1;" offset="0.648438"/><stop style="stop-color:rgb(94.898987%,32.475281%,16.734314%);stop-opacity:1;" offset="0.652344"/><stop style="stop-color:rgb(94.898987%,32.821655%,16.499329%);stop-opacity:1;" offset="0.65625"/><stop style="stop-color:rgb(94.898987%,33.558655%,16.149902%);stop-opacity:1;" offset="0.660156"/><stop style="stop-color:rgb(94.898987%,34.295654%,15.800476%);stop-opacity:1;" offset="0.664062"/><stop style="stop-color:rgb(94.898987%,34.733582%,15.612793%);stop-opacity:1;" offset="0.667969"/><stop style="stop-color:rgb(94.898987%,35.173035%,15.42511%);stop-opacity:1;" offset="0.671875"/><stop style="stop-color:rgb(95.024109%,35.760498%,15.037537%);stop-opacity:1;" offset="0.675781"/><stop style="stop-color:rgb(95.149231%,36.347961%,14.649963%);stop-opacity:1;" offset="0.679688"/><stop style="stop-color:rgb(95.223999%,36.819458%,14.26239%);stop-opacity:1;" offset="0.683594"/><stop style="stop-color:rgb(95.298767%,37.29248%,13.874817%);stop-opacity:1;" offset="0.6875"/><stop style="stop-color:rgb(95.298767%,37.796021%,13.63678%);stop-opacity:1;" offset="0.691406"/><stop style="stop-color:rgb(95.298767%,38.299561%,13.398743%);stop-opacity:1;" offset="0.695312"/><stop style="stop-color:rgb(95.298767%,38.887024%,13.011169%);stop-opacity:1;" offset="0.699219"/><stop style="stop-color:rgb(95.298767%,39.474487%,12.623596%);stop-opacity:1;" offset="0.703125"/><stop style="stop-color:rgb(95.298767%,39.988708%,12.466431%);stop-opacity:1;" offset="0.707031"/><stop style="stop-color:rgb(95.298767%,40.50293%,12.310791%);stop-opacity:1;" offset="0.710938"/><stop style="stop-color:rgb(95.498657%,41.078186%,12.141418%);stop-opacity:1;" offset="0.714844"/><stop style="stop-color:rgb(95.698547%,41.653442%,11.972046%);stop-opacity:1;" offset="0.71875"/><stop style="stop-color:rgb(95.698547%,42.202759%,11.784363%);stop-opacity:1;" offset="0.722656"/><stop style="stop-color:rgb(95.698547%,42.753601%,11.59668%);stop-opacity:1;" offset="0.726562"/><stop style="stop-color:rgb(95.698547%,43.603516%,11.358643%);stop-opacity:1;" offset="0.730469"/><stop style="stop-color:rgb(95.698547%,44.454956%,11.120605%);stop-opacity:1;" offset="0.734375"/><stop style="stop-color:rgb(95.825195%,45.030212%,10.932922%);stop-opacity:1;" offset="0.738281"/><stop style="stop-color:rgb(95.953369%,45.606995%,10.745239%);stop-opacity:1;" offset="0.742187"/><stop style="stop-color:rgb(96.026611%,46.382141%,10.557556%);stop-opacity:1;" offset="0.746094"/><stop style="stop-color:rgb(96.099854%,47.157288%,10.369873%);stop-opacity:1;" offset="0.75"/><stop style="stop-color:rgb(96.099854%,47.68219%,10.18219%);stop-opacity:1;" offset="0.753906"/><stop style="stop-color:rgb(96.099854%,48.208618%,9.994507%);stop-opacity:1;" offset="0.757812"/><stop style="stop-color:rgb(96.099854%,48.783875%,9.806824%);stop-opacity:1;" offset="0.761719"/><stop style="stop-color:rgb(96.099854%,49.359131%,9.619141%);stop-opacity:1;" offset="0.765625"/><stop style="stop-color:rgb(96.203613%,50.082397%,9.205627%);stop-opacity:1;" offset="0.769531"/><stop style="stop-color:rgb(96.307373%,50.80719%,8.792114%);stop-opacity:1;" offset="0.773438"/><stop style="stop-color:rgb(96.403503%,51.419067%,8.580017%);stop-opacity:1;" offset="0.777344"/><stop style="stop-color:rgb(96.499634%,52.030945%,8.36792%);stop-opacity:1;" offset="0.78125"/><stop style="stop-color:rgb(96.499634%,52.671814%,8.180237%);stop-opacity:1;" offset="0.785156"/><stop style="stop-color:rgb(96.499634%,53.312683%,7.992554%);stop-opacity:1;" offset="0.789062"/><stop style="stop-color:rgb(96.499634%,53.996277%,7.827759%);stop-opacity:1;" offset="0.792969"/><stop style="stop-color:rgb(96.499634%,54.681396%,7.662964%);stop-opacity:1;" offset="0.796875"/><stop style="stop-color:rgb(96.699524%,55.26886%,7.380676%);stop-opacity:1;" offset="0.800781"/><stop style="stop-color:rgb(96.899414%,55.856323%,7.099915%);stop-opacity:1;" offset="0.804688"/><stop style="stop-color:rgb(96.899414%,56.443787%,6.832886%);stop-opacity:1;" offset="0.808594"/><stop style="stop-color:rgb(96.899414%,57.032776%,6.565857%);stop-opacity:1;" offset="0.8125"/><stop style="stop-color:rgb(96.899414%,57.723999%,6.32782%);stop-opacity:1;" offset="0.816406"/><stop style="stop-color:rgb(96.899414%,58.416748%,6.089783%);stop-opacity:1;" offset="0.820312"/><stop style="stop-color:rgb(96.990967%,59.100342%,5.993652%);stop-opacity:1;" offset="0.824219"/><stop style="stop-color:rgb(97.084045%,59.783936%,5.899048%);stop-opacity:1;" offset="0.828125"/><stop style="stop-color:rgb(97.190857%,60.371399%,5.818176%);stop-opacity:1;" offset="0.832031"/><stop style="stop-color:rgb(97.299194%,60.958862%,5.738831%);stop-opacity:1;" offset="0.835937"/><stop style="stop-color:rgb(97.299194%,61.59668%,5.618286%);stop-opacity:1;" offset="0.839844"/><stop style="stop-color:rgb(97.299194%,62.236023%,5.499268%);stop-opacity:1;" offset="0.84375"/><stop style="stop-color:rgb(97.299194%,62.77771%,5.44281%);stop-opacity:1;" offset="0.847656"/><stop style="stop-color:rgb(97.299194%,63.320923%,5.387878%);stop-opacity:1;" offset="0.851562"/><stop style="stop-color:rgb(97.369385%,64.102173%,5.24292%);stop-opacity:1;" offset="0.855469"/><stop style="stop-color:rgb(97.439575%,64.884949%,5.099487%);stop-opacity:1;" offset="0.859375"/><stop style="stop-color:rgb(97.518921%,65.472412%,4.899597%);stop-opacity:1;" offset="0.863281"/><stop style="stop-color:rgb(97.599792%,66.061401%,4.699707%);stop-opacity:1;" offset="0.867187"/><stop style="stop-color:rgb(97.599792%,66.700745%,4.699707%);stop-opacity:1;" offset="0.871094"/><stop style="stop-color:rgb(97.599792%,67.340088%,4.699707%);stop-opacity:1;" offset="0.875"/><stop style="stop-color:rgb(97.599792%,67.881775%,4.499817%);stop-opacity:1;" offset="0.878906"/><stop style="stop-color:rgb(97.599792%,68.424988%,4.299927%);stop-opacity:1;" offset="0.882812"/><stop style="stop-color:rgb(97.799683%,69.155884%,4.299927%);stop-opacity:1;" offset="0.886719"/><stop style="stop-color:rgb(97.999573%,69.888306%,4.299927%);stop-opacity:1;" offset="0.890625"/><stop style="stop-color:rgb(97.999573%,70.529175%,4.098511%);stop-opacity:1;" offset="0.894531"/><stop style="stop-color:rgb(97.999573%,71.170044%,3.898621%);stop-opacity:1;" offset="0.898437"/><stop style="stop-color:rgb(97.999573%,71.684265%,3.898621%);stop-opacity:1;" offset="0.902344"/><stop style="stop-color:rgb(97.999573%,72.198486%,3.898621%);stop-opacity:1;" offset="0.90625"/><stop style="stop-color:rgb(97.999573%,72.198486%,3.898621%);stop-opacity:1;" offset="0.9375"/><stop style="stop-color:rgb(97.999573%,72.198486%,3.898621%);stop-opacity:1;" offset="1"/></linearGradient><clipPath xml:id="clip5" id="clip5"><path d="M 43.203125 344 L 59.992188 344 L 59.992188 359.117188 L 43.203125 359.117188 Z M 43.203125 344 "/></clipPath><clipPath xml:id="clip6" id="clip6"><path d="M 237 15.234375 L 257 15.234375 L 257 35 L 237 35 Z M 237 15.234375 "/></clipPath><clipPath xml:id="clip7" id="clip7"><path d="M 356 325 L 374.859375 325 L 374.859375 343.695312 L 356 343.695312 Z M 356 325 "/></clipPath></defs><g xml:id="surface1" id="surface1"><g clip-rule="nonzero" clip-path="url(#clip1)"><g clip-rule="nonzero" clip-path="url(#clip2)"><g clip-rule="nonzero" clip-path="url(#clip3)"><g clip-rule="nonzero" clip-path="url(#clip4)"><path style=" stroke:none;fill-rule:nonzero;fill:url(#linear0);" d="M 185.402344 -131.539062 L -125.148438 178.503906 L 185.402344 488.546875 L 495.949219 178.503906 Z M 185.402344 -131.539062 "/></g></g></g></g><path style=" stroke:none;fill-rule:nonzero;fill:rgb(14.509583%,13.729858%,13.729858%);fill-opacity:1;" d="M 361.207031 268.851562 C 360.960938 268.699219 360.765625 268.464844 360.660156 268.171875 C 360.324219 267.21875 359.953125 266.253906 359.554688 265.316406 C 359.273438 264.652344 359.582031 263.882812 360.25 263.597656 C 360.914062 263.320312 361.691406 263.632812 361.96875 264.292969 C 362.390625 265.285156 362.78125 266.296875 363.136719 267.304688 C 363.378906 267.988281 363.019531 268.730469 362.335938 268.972656 C 361.945312 269.109375 361.53125 269.050781 361.207031 268.851562 Z M 363.578125 279.03125 C 363.25 278.828125 363.011719 278.480469 362.964844 278.066406 C 362.855469 277.070312 362.699219 276.058594 362.515625 275.050781 C 362.382812 274.339844 362.851562 273.65625 363.5625 273.523438 C 364.273438 273.394531 364.960938 273.859375 365.09375 274.570312 C 365.289062 275.640625 365.453125 276.714844 365.574219 277.773438 C 365.65625 278.492188 365.136719 279.140625 364.417969 279.222656 C 364.109375 279.257812 363.816406 279.183594 363.578125 279.03125 Z M 363.390625 289.476562 C 362.957031 289.207031 362.703125 288.695312 362.785156 288.160156 C 362.941406 287.171875 363.054688 286.160156 363.128906 285.148438 C 363.179688 284.425781 363.804688 283.882812 364.527344 283.933594 C 365.25 283.984375 365.792969 284.609375 365.746094 285.332031 C 365.667969 286.417969 365.542969 287.503906 365.378906 288.5625 C 365.265625 289.28125 364.597656 289.769531 363.878906 289.65625 C 363.699219 289.628906 363.535156 289.566406 363.390625 289.476562 Z M 360.199219 299.40625 C 359.628906 299.050781 359.414062 298.308594 359.722656 297.699219 C 360.179688 296.8125 360.597656 295.886719 360.960938 294.953125 C 361.226562 294.28125 361.984375 293.945312 362.664062 294.210938 C 363.335938 294.476562 363.667969 295.234375 363.402344 295.90625 C 363.007812 296.921875 362.554688 297.925781 362.0625 298.890625 C 361.730469 299.535156 360.941406 299.789062 360.296875 299.460938 C 360.265625 299.441406 360.230469 299.425781 360.199219 299.40625 "/><path style=" stroke:none;fill-rule:nonzero;fill:rgb(14.509583%,13.729858%,13.729858%);fill-opacity:1;" d="M 294.425781 134.628906 C 294.308594 134.621094 294.203125 134.597656 294.09375 134.554688 C 293.40625 134.316406 293.050781 133.566406 293.292969 132.886719 C 293.4375 132.488281 293.585938 132.085938 293.738281 131.679688 C 294.3125 130.167969 295.027344 128.285156 294.640625 127.558594 C 294.269531 126.859375 292.253906 126.378906 290.785156 126.027344 C 288.5 125.484375 286.140625 124.917969 285.179688 123.179688 C 284.238281 121.46875 285.011719 119.195312 285.765625 117 C 286.285156 115.472656 286.9375 113.570312 286.527344 112.851562 C 286.136719 112.160156 284.105469 111.730469 282.628906 111.421875 C 280.332031 110.933594 277.953125 110.429688 276.953125 108.714844 C 275.960938 107.019531 276.691406 104.726562 277.394531 102.511719 C 277.882812 100.972656 278.492188 99.0625 278.070312 98.351562 C 277.660156 97.664062 275.710938 97.289062 274.140625 96.980469 C 271.832031 96.535156 269.445312 96.074219 268.421875 94.371094 C 267.402344 92.683594 268.101562 90.375 268.78125 88.144531 C 269.25 86.605469 269.832031 84.691406 269.40625 83.988281 C 268.988281 83.304688 267.027344 82.945312 265.457031 82.652344 C 263.144531 82.226562 260.753906 81.785156 259.71875 80.089844 C 258.679688 78.410156 259.375 76.09375 260.042969 73.851562 L 260.183594 73.394531 C 260.382812 72.699219 261.109375 72.304688 261.808594 72.507812 C 262.503906 72.710938 262.898438 73.441406 262.695312 74.132812 L 262.558594 74.597656 C 262.101562 76.128906 261.535156 78.035156 261.953125 78.722656 C 262.382812 79.421875 264.351562 79.785156 265.933594 80.074219 C 268.238281 80.503906 270.617188 80.941406 271.648438 82.628906 C 272.683594 84.328125 271.976562 86.65625 271.292969 88.90625 C 270.828125 90.433594 270.25 92.332031 270.664062 93.015625 C 271.089844 93.722656 273.058594 94.105469 274.640625 94.410156 C 276.941406 94.859375 279.316406 95.320312 280.328125 97.015625 C 281.351562 98.734375 280.613281 101.054688 279.894531 103.300781 C 279.417969 104.820312 278.8125 106.707031 279.21875 107.398438 C 279.632812 108.109375 281.59375 108.523438 283.171875 108.855469 C 285.460938 109.339844 287.832031 109.839844 288.808594 111.554688 C 289.804688 113.300781 289.011719 115.613281 288.246094 117.847656 C 287.734375 119.347656 287.09375 121.21875 287.480469 121.914062 C 287.882812 122.644531 289.828125 123.109375 291.394531 123.480469 C 293.671875 124.027344 296.03125 124.585938 296.957031 126.332031 C 297.898438 128.105469 297.03125 130.394531 296.195312 132.609375 C 296.046875 132.992188 295.898438 133.382812 295.765625 133.761719 C 295.5625 134.335938 295.003906 134.679688 294.425781 134.628906 "/><path style=" stroke:none;fill-rule:nonzero;fill:rgb(14.509583%,13.729858%,13.729858%);fill-opacity:1;" d="M 256.953125 347.695312 Z M 270.265625 351.480469 C 268.371094 351.375 267.242188 349.109375 266.046875 346.703125 C 265.523438 345.648438 264.660156 343.914062 264.148438 343.546875 C 263.539062 343.796875 262.261719 345.519531 261.558594 346.460938 C 259.921875 348.65625 258.523438 350.550781 256.6875 350.285156 C 254.75 350.003906 253.898438 347.566406 252.992188 344.976562 C 252.875 344.644531 252.761719 344.316406 252.644531 343.988281 C 252.398438 343.308594 252.746094 342.558594 253.425781 342.308594 C 254.109375 342.066406 254.859375 342.414062 255.109375 343.09375 C 255.230469 343.429688 255.347656 343.769531 255.472656 344.113281 C 255.851562 345.210938 256.550781 347.199219 257.054688 347.65625 C 257.628906 347.347656 258.757812 345.828125 259.453125 344.894531 C 261.039062 342.769531 262.558594 340.734375 264.390625 340.914062 C 266.171875 341.066406 267.199219 343.136719 268.398438 345.539062 C 268.910156 346.570312 269.84375 348.449219 270.398438 348.828125 C 270.945312 348.484375 271.941406 346.84375 272.558594 345.839844 C 273.9375 343.574219 275.242188 341.433594 277.113281 341.445312 C 278.910156 341.46875 280.105469 343.476562 281.472656 345.8125 C 282.054688 346.804688 283.113281 348.609375 283.683594 348.949219 C 284.214844 348.585938 285.15625 346.878906 285.726562 345.828125 C 286.996094 343.5 288.191406 341.300781 290.0625 341.238281 C 291.878906 341.1875 293.148438 343.164062 294.609375 345.46875 C 295.222656 346.433594 296.339844 348.199219 296.914062 348.515625 C 297.445312 348.144531 298.347656 346.402344 298.902344 345.335938 C 300.117188 342.980469 301.265625 340.757812 303.132812 340.660156 C 304.960938 340.578125 306.261719 342.546875 307.761719 344.839844 L 308.21875 345.539062 C 308.621094 346.144531 308.457031 346.953125 307.847656 347.351562 C 307.246094 347.753906 306.429688 347.589844 306.035156 346.984375 L 305.5625 346.269531 C 304.90625 345.265625 303.828125 343.609375 303.261719 343.308594 C 302.714844 343.667969 301.753906 345.523438 301.230469 346.539062 C 299.96875 348.972656 298.878906 351.074219 297.039062 351.160156 C 295.140625 351.234375 293.816406 349.121094 292.390625 346.867188 C 291.75 345.859375 290.703125 344.199219 290.144531 343.886719 C 289.585938 344.234375 288.578125 346.074219 288.023438 347.085938 C 286.714844 349.488281 285.582031 351.566406 283.738281 351.601562 C 281.875 351.625 280.5625 349.445312 279.210938 347.136719 C 278.609375 346.109375 277.621094 344.425781 277.078125 344.089844 C 276.5 344.40625 275.402344 346.214844 274.796875 347.199219 C 273.375 349.539062 272.140625 351.558594 270.304688 351.480469 C 270.289062 351.480469 270.277344 351.480469 270.265625 351.480469 "/><path style=" stroke:none;fill-rule:nonzero;fill:rgb(14.509583%,13.729858%,13.729858%);fill-opacity:1;" d="M 4.441406 279.886719 C 4.027344 279.949219 3.589844 279.8125 3.28125 279.484375 C 2.789062 278.953125 2.824219 278.125 3.355469 277.632812 C 3.585938 277.414062 3.828125 277.203125 4.066406 276.984375 C 4.851562 276.273438 6.320312 274.953125 6.34375 274.445312 C 6.261719 273.957031 4.667969 272.804688 3.8125 272.179688 C 1.957031 270.839844 0.0390625 269.449219 0.183594 267.578125 C 0.324219 265.734375 2.320312 264.714844 4.433594 263.640625 C 5.398438 263.144531 7.191406 262.230469 7.335938 261.738281 C 7.375 261.253906 6.195312 259.734375 5.566406 258.921875 C 4.144531 257.089844 2.671875 255.195312 3.355469 253.414062 C 4.003906 251.714844 6.179688 251.304688 8.488281 250.875 C 9.5 250.683594 11.617188 250.289062 11.875 249.835938 C 12.027344 249.390625 11.3125 247.644531 10.933594 246.707031 C 10.050781 244.554688 9.140625 242.328125 10.273438 240.769531 C 11.316406 239.324219 13.503906 239.457031 15.8125 239.59375 C 16.859375 239.660156 19.035156 239.789062 19.390625 239.402344 C 19.625 239 19.300781 237.152344 19.125 236.15625 C 18.722656 233.882812 18.308594 231.523438 19.707031 230.226562 C 21.007812 229.023438 23.113281 229.542969 25.347656 230.09375 L 26.070312 230.265625 C 26.777344 230.433594 27.210938 231.140625 27.042969 231.839844 C 26.878906 232.542969 26.167969 232.980469 25.464844 232.8125 L 24.726562 232.632812 C 23.738281 232.390625 21.90625 231.945312 21.464844 232.167969 C 21.152344 232.535156 21.527344 234.675781 21.707031 235.703125 C 22.09375 237.867188 22.453125 239.914062 21.339844 241.15625 C 20.144531 242.480469 17.859375 242.339844 15.660156 242.210938 C 14.640625 242.148438 12.757812 242.035156 12.367188 242.335938 C 12.148438 242.757812 12.96875 244.757812 13.363281 245.71875 C 14.1875 247.738281 14.96875 249.652344 14.175781 251.101562 C 13.324219 252.632812 11.210938 253.03125 8.972656 253.449219 C 7.964844 253.636719 6.085938 253.988281 5.785156 254.382812 C 5.71875 254.84375 6.964844 256.453125 7.636719 257.316406 C 8.984375 259.050781 10.253906 260.6875 9.894531 262.308594 C 9.519531 263.988281 7.628906 264.949219 5.628906 265.972656 C 4.691406 266.449219 2.957031 267.332031 2.792969 267.804688 C 2.871094 268.265625 4.484375 269.433594 5.351562 270.0625 C 7.160156 271.371094 8.867188 272.609375 8.964844 274.304688 C 9.058594 276.011719 7.488281 277.429688 5.824219 278.929688 C 5.59375 279.140625 5.359375 279.347656 5.140625 279.550781 C 4.9375 279.742188 4.695312 279.851562 4.441406 279.886719 "/><path style=" stroke:none;fill-rule:nonzero;fill:rgb(14.509583%,13.729858%,13.729858%);fill-opacity:1;" d="M 334.667969 151.148438 L 329.199219 154.101562 C 329.121094 154.148438 329.082031 154.214844 329.074219 154.300781 C 329.074219 154.390625 329.113281 154.460938 329.1875 154.503906 L 334.484375 157.753906 C 334.5625 157.800781 334.640625 157.800781 334.714844 157.757812 C 334.792969 157.71875 334.835938 157.652344 334.835938 157.5625 L 335.007812 151.355469 C 335.011719 151.269531 334.976562 151.203125 334.898438 151.15625 C 334.824219 151.109375 334.746094 151.109375 334.667969 151.148438 Z M 334.605469 160.410156 C 334.089844 160.410156 333.574219 160.269531 333.109375 159.984375 L 327.8125 156.734375 C 326.933594 156.195312 326.429688 155.257812 326.453125 154.226562 C 326.484375 153.199219 327.042969 152.289062 327.949219 151.800781 L 333.417969 148.84375 C 334.324219 148.351562 335.394531 148.386719 336.273438 148.921875 C 337.152344 149.460938 337.660156 150.398438 337.632812 151.429688 L 337.460938 157.636719 C 337.429688 158.667969 336.871094 159.570312 335.96875 160.0625 C 335.535156 160.296875 335.070312 160.410156 334.605469 160.410156 "/><path style=" stroke:none;fill-rule:nonzero;fill:rgb(14.509583%,13.729858%,13.729858%);fill-opacity:1;" d="M 154.453125 345.882812 C 154.964844 345.882812 155.445312 346.175781 155.660156 346.671875 L 156.601562 348.84375 C 156.714844 349.101562 156.917969 349.304688 157.183594 349.40625 C 157.441406 349.511719 157.734375 349.507812 157.996094 349.394531 C 158.253906 349.285156 158.457031 349.074219 158.5625 348.8125 C 158.664062 348.550781 158.660156 348.261719 158.546875 348.003906 L 157.605469 345.828125 C 157.46875 345.511719 157.464844 345.148438 157.589844 344.828125 C 157.71875 344.503906 157.972656 344.246094 158.289062 344.105469 L 160.46875 343.167969 C 161.003906 342.9375 161.25 342.308594 161.019531 341.777344 C 160.789062 341.242188 160.160156 340.992188 159.625 341.226562 L 157.449219 342.164062 C 157.128906 342.300781 156.765625 342.304688 156.441406 342.179688 C 156.121094 342.050781 155.859375 341.796875 155.722656 341.484375 L 154.78125 339.308594 C 154.550781 338.773438 153.925781 338.523438 153.386719 338.757812 C 153.125 338.867188 152.925781 339.078125 152.824219 339.339844 C 152.714844 339.601562 152.722656 339.890625 152.835938 340.148438 L 153.773438 342.320312 C 154.066406 342.984375 153.757812 343.757812 153.09375 344.042969 L 150.917969 344.984375 C 150.65625 345.097656 150.453125 345.300781 150.351562 345.566406 C 150.25 345.828125 150.253906 346.117188 150.363281 346.378906 C 150.472656 346.636719 150.683594 346.835938 150.945312 346.9375 C 151.207031 347.042969 151.5 347.039062 151.757812 346.929688 L 153.933594 345.988281 C 154.105469 345.914062 154.28125 345.882812 154.453125 345.882812 Z M 157.574219 352.101562 C 157.117188 352.101562 156.65625 352.015625 156.21875 351.839844 C 155.304688 351.480469 154.585938 350.785156 154.191406 349.886719 L 153.769531 348.910156 L 152.796875 349.332031 C 150.9375 350.132812 148.761719 349.28125 147.953125 347.417969 C 147.148438 345.550781 148.011719 343.386719 149.875 342.578125 L 150.847656 342.15625 L 150.425781 341.1875 C 149.621094 339.324219 150.484375 337.15625 152.347656 336.351562 C 154.207031 335.546875 156.386719 336.40625 157.1875 338.269531 L 157.613281 339.238281 L 158.582031 338.820312 C 160.445312 338.015625 162.621094 338.871094 163.429688 340.734375 C 164.230469 342.597656 163.375 344.765625 161.511719 345.570312 L 160.535156 345.992188 L 160.957031 346.964844 C 161.765625 348.824219 160.898438 350.996094 159.039062 351.800781 C 158.566406 352 158.070312 352.101562 157.574219 352.101562 "/><path style=" stroke:none;fill-rule:nonzero;fill:rgb(14.509583%,13.729858%,13.729858%);fill-opacity:1;" d="M 175.558594 22.417969 C 174.921875 22.097656 174.65625 21.324219 174.96875 20.683594 L 176.835938 16.796875 C 177.148438 16.148438 177.9375 15.871094 178.589844 16.183594 C 179.195312 16.511719 179.515625 17.28125 179.203125 17.929688 L 177.332031 21.816406 C 177.019531 22.464844 176.234375 22.742188 175.578125 22.429688 C 175.574219 22.425781 175.566406 22.421875 175.558594 22.417969 "/><path style=" stroke:none;fill-rule:nonzero;fill:rgb(14.509583%,13.729858%,13.729858%);fill-opacity:1;" d="M 156.414062 25.890625 C 155.773438 25.570312 155.511719 24.800781 155.820312 24.152344 C 156.136719 23.5 156.917969 23.226562 157.574219 23.542969 L 161.460938 25.410156 C 162.113281 25.753906 162.386719 26.503906 162.074219 27.15625 C 161.761719 27.808594 160.976562 28.082031 160.324219 27.769531 L 156.433594 25.898438 C 156.425781 25.898438 156.417969 25.894531 156.414062 25.890625 "/><path style=" stroke:none;fill-rule:nonzero;fill:rgb(14.509583%,13.729858%,13.729858%);fill-opacity:1;" d="M 167.125 22.800781 C 166.835938 22.65625 166.597656 22.402344 166.484375 22.066406 L 165.050781 18 C 164.8125 17.316406 165.175781 16.574219 165.859375 16.335938 C 166.539062 16.09375 167.289062 16.453125 167.527344 17.136719 L 168.953125 21.199219 C 169.195312 21.882812 168.835938 22.628906 168.152344 22.867188 C 167.800781 22.988281 167.433594 22.957031 167.125 22.800781 "/><g clip-rule="nonzero" clip-path="url(#clip5)"><path style=" stroke:none;fill-rule:nonzero;fill:rgb(14.509583%,13.729858%,13.729858%);fill-opacity:1;" d="M 51.167969 346.160156 L 51.175781 346.160156 Z M 52.8125 346.695312 C 52.640625 346.695312 52.378906 346.75 52.171875 347 L 46.621094 353.648438 C 46.34375 353.984375 46.429688 354.339844 46.476562 354.476562 C 46.53125 354.613281 46.695312 354.941406 47.125 355.011719 L 55.671875 356.488281 C 56.097656 356.558594 56.363281 356.3125 56.460938 356.195312 C 56.550781 356.085938 56.75 355.78125 56.601562 355.371094 L 53.605469 347.246094 C 53.453125 346.835938 53.105469 346.734375 52.960938 346.710938 C 52.925781 346.699219 52.871094 346.695312 52.8125 346.695312 Z M 55.828125 359.117188 C 55.628906 359.117188 55.425781 359.101562 55.226562 359.070312 L 46.679688 357.59375 C 45.445312 357.382812 44.449219 356.554688 44.019531 355.382812 C 43.582031 354.207031 43.804688 352.933594 44.609375 351.972656 L 50.160156 345.320312 C 50.957031 344.359375 52.171875 343.917969 53.40625 344.125 C 54.644531 344.339844 55.636719 345.167969 56.070312 346.339844 L 59.0625 354.464844 C 59.496094 355.640625 59.277344 356.914062 58.472656 357.875 C 57.804688 358.675781 56.84375 359.117188 55.828125 359.117188 "/></g><g clip-rule="nonzero" clip-path="url(#clip6)"><path style=" stroke:none;fill-rule:nonzero;fill:rgb(14.509583%,13.729858%,13.729858%);fill-opacity:1;" d="M 248.132812 18.273438 L 248.144531 18.273438 Z M 242.097656 19.589844 C 241.582031 19.589844 241.066406 19.828125 240.734375 20.273438 C 240.167969 21.027344 240.324219 22.09375 241.074219 22.660156 L 243.492188 24.464844 C 243.769531 24.671875 243.957031 24.984375 244.003906 25.328125 C 244.054688 25.671875 243.964844 26.023438 243.753906 26.296875 L 241.945312 28.710938 C 241.382812 29.460938 241.535156 30.53125 242.285156 31.097656 C 243.042969 31.664062 244.113281 31.507812 244.679688 30.753906 L 246.484375 28.34375 C 246.921875 27.765625 247.742188 27.648438 248.324219 28.082031 L 250.742188 29.886719 C 251.492188 30.449219 252.5625 30.300781 253.125 29.546875 C 253.691406 28.792969 253.539062 27.722656 252.785156 27.160156 L 250.367188 25.351562 C 249.789062 24.917969 249.671875 24.097656 250.105469 23.519531 L 251.917969 21.105469 C 252.191406 20.742188 252.308594 20.292969 252.242188 19.84375 C 252.175781 19.390625 251.9375 18.996094 251.574219 18.722656 C 250.824219 18.15625 249.75 18.3125 249.183594 19.0625 L 247.375 21.476562 C 246.941406 22.054688 246.121094 22.171875 245.539062 21.738281 L 243.125 19.929688 C 242.816406 19.699219 242.457031 19.589844 242.097656 19.589844 Z M 243.304688 34.050781 C 242.402344 34.050781 241.488281 33.773438 240.714844 33.191406 C 238.804688 31.761719 238.414062 29.046875 239.84375 27.140625 L 240.871094 25.777344 L 239.503906 24.753906 C 237.59375 23.324219 237.199219 20.609375 238.632812 18.699219 C 240.066406 16.792969 242.789062 16.40625 244.695312 17.832031 L 246.0625 18.855469 L 247.085938 17.492188 C 248.519531 15.585938 251.238281 15.195312 253.148438 16.625 C 254.074219 17.316406 254.675781 18.328125 254.835938 19.46875 C 255 20.617188 254.710938 21.753906 254.015625 22.679688 L 252.992188 24.042969 L 254.359375 25.066406 C 256.269531 26.488281 256.660156 29.207031 255.230469 31.113281 C 254.53125 32.039062 253.519531 32.640625 252.375 32.804688 C 251.238281 32.964844 250.09375 32.675781 249.167969 31.980469 L 247.800781 30.960938 L 246.777344 32.324219 C 245.929688 33.453125 244.625 34.050781 243.304688 34.050781 "/></g><path style=" stroke:none;fill-rule:nonzero;fill:rgb(14.509583%,13.729858%,13.729858%);fill-opacity:1;" d="M 68.683594 145.101562 C 68.59375 145.101562 68.527344 145.148438 68.484375 145.195312 C 68.429688 145.246094 68.375 145.339844 68.414062 145.472656 L 70.160156 151.675781 C 70.195312 151.8125 70.292969 151.859375 70.367188 151.882812 C 70.441406 151.894531 70.554688 151.902344 70.648438 151.800781 L 75.15625 147.1875 C 75.25 147.089844 75.246094 146.976562 75.226562 146.910156 C 75.207031 146.835938 75.15625 146.742188 75.019531 146.703125 L 68.765625 145.117188 C 68.738281 145.109375 68.707031 145.101562 68.683594 145.101562 Z M 70.453125 154.507812 C 70.207031 154.507812 69.964844 154.480469 69.722656 154.417969 C 68.699219 154.15625 67.921875 153.398438 67.632812 152.386719 L 65.886719 146.183594 C 65.601562 145.167969 65.871094 144.117188 66.605469 143.363281 C 67.34375 142.609375 68.394531 142.316406 69.414062 142.574219 L 75.667969 144.167969 C 76.6875 144.425781 77.46875 145.183594 77.75 146.195312 C 78.039062 147.210938 77.773438 148.261719 77.035156 149.015625 L 72.523438 153.628906 C 71.96875 154.203125 71.226562 154.507812 70.453125 154.507812 "/><path style=" stroke:none;fill-rule:nonzero;fill:rgb(14.509583%,13.729858%,13.729858%);fill-opacity:1;" d="M 26.558594 192.648438 C 25.898438 192.648438 25.28125 193.070312 25.0625 193.734375 C 24.929688 194.128906 24.964844 194.554688 25.152344 194.929688 C 25.34375 195.304688 25.667969 195.582031 26.066406 195.714844 L 28.808594 196.609375 C 29.5 196.835938 29.875 197.574219 29.648438 198.261719 L 28.75 201 C 28.621094 201.398438 28.652344 201.824219 28.84375 202.199219 C 29.035156 202.574219 29.359375 202.851562 29.757812 202.980469 C 30.15625 203.113281 30.585938 203.082031 30.957031 202.890625 C 31.335938 202.699219 31.613281 202.375 31.746094 201.980469 L 32.640625 199.242188 C 32.867188 198.554688 33.605469 198.175781 34.296875 198.402344 L 37.039062 199.296875 C 37.441406 199.429688 37.863281 199.398438 38.242188 199.207031 C 38.613281 199.019531 38.894531 198.695312 39.023438 198.296875 C 39.296875 197.472656 38.84375 196.585938 38.019531 196.3125 L 35.277344 195.414062 C 34.945312 195.308594 34.671875 195.074219 34.515625 194.765625 C 34.359375 194.453125 34.332031 194.097656 34.4375 193.765625 L 35.335938 191.027344 C 35.605469 190.199219 35.15625 189.3125 34.332031 189.042969 C 33.503906 188.777344 32.613281 189.222656 32.34375 190.046875 L 31.445312 192.789062 C 31.339844 193.113281 31.101562 193.390625 30.792969 193.546875 C 30.480469 193.703125 30.121094 193.734375 29.789062 193.621094 L 27.046875 192.726562 C 26.886719 192.671875 26.722656 192.648438 26.558594 192.648438 Z M 30.242188 205.679688 C 29.8125 205.679688 29.375 205.613281 28.941406 205.46875 C 26.742188 204.753906 25.539062 202.378906 26.257812 200.1875 L 26.746094 198.691406 L 25.25 198.203125 C 24.183594 197.855469 23.320312 197.113281 22.816406 196.113281 C 22.308594 195.117188 22.222656 193.976562 22.570312 192.917969 C 23.292969 190.71875 25.664062 189.511719 27.867188 190.238281 L 29.363281 190.726562 L 29.851562 189.230469 C 30.199219 188.167969 30.945312 187.304688 31.945312 186.800781 C 32.945312 186.292969 34.082031 186.207031 35.148438 186.554688 C 37.34375 187.273438 38.550781 189.644531 37.832031 191.84375 L 37.339844 193.335938 L 38.835938 193.824219 C 41.035156 194.542969 42.238281 196.914062 41.515625 199.109375 C 41.167969 200.175781 40.425781 201.039062 39.425781 201.546875 C 38.425781 202.050781 37.285156 202.140625 36.222656 201.789062 L 34.722656 201.300781 L 34.238281 202.792969 C 33.660156 204.558594 32.011719 205.679688 30.242188 205.679688 "/><g clip-rule="nonzero" clip-path="url(#clip7)"><path style=" stroke:none;fill-rule:nonzero;fill:rgb(14.509583%,13.729858%,13.729858%);fill-opacity:1;" d="M 370.398438 326.976562 L 370.410156 326.976562 Z M 370.910156 328.238281 C 370.828125 328.238281 370.738281 328.246094 370.644531 328.265625 L 360.167969 330.253906 C 359.484375 330.382812 359.234375 330.902344 359.15625 331.125 C 359.078125 331.339844 358.953125 331.90625 359.40625 332.433594 L 366.367188 340.496094 C 366.820312 341.019531 367.398438 340.980469 367.625 340.933594 C 367.855469 340.894531 368.410156 340.722656 368.640625 340.066406 L 372.152344 330.015625 C 372.382812 329.355469 372.054688 328.882812 371.90625 328.707031 C 371.773438 328.554688 371.4375 328.238281 370.910156 328.238281 Z M 367.359375 343.578125 C 366.222656 343.578125 365.144531 343.089844 364.378906 342.207031 L 357.417969 334.140625 C 356.484375 333.054688 356.210938 331.605469 356.679688 330.257812 C 357.152344 328.910156 358.277344 327.945312 359.679688 327.679688 L 370.15625 325.691406 C 371.558594 325.429688 372.960938 325.910156 373.890625 326.996094 C 374.824219 328.074219 375.105469 329.527344 374.632812 330.878906 L 371.113281 340.929688 C 370.644531 342.277344 369.519531 343.242188 368.117188 343.507812 C 367.863281 343.558594 367.609375 343.578125 367.359375 343.578125 "/></g><path style=" stroke:none;fill-rule:nonzero;fill:rgb(14.509583%,13.729858%,13.729858%);fill-opacity:1;" d="M 351.75 209.648438 L 351.757812 209.648438 Z M 346.664062 210.554688 C 346.640625 210.554688 346.617188 210.554688 346.59375 210.558594 C 346.289062 210.574219 346.015625 210.710938 345.8125 210.9375 C 345.609375 211.167969 345.511719 211.457031 345.527344 211.761719 C 345.546875 212.0625 345.683594 212.34375 345.90625 212.542969 L 347.746094 214.164062 C 348.285156 214.644531 348.335938 215.472656 347.855469 216.011719 L 346.230469 217.847656 C 345.816406 218.3125 345.859375 219.035156 346.332031 219.453125 C 346.554688 219.652344 346.851562 219.753906 347.152344 219.734375 C 347.457031 219.71875 347.738281 219.578125 347.9375 219.351562 L 349.5625 217.519531 C 350.042969 216.980469 350.871094 216.929688 351.414062 217.410156 L 353.25 219.03125 C 353.476562 219.230469 353.753906 219.335938 354.074219 219.3125 C 354.378906 219.296875 354.652344 219.160156 354.855469 218.933594 C 355.058594 218.707031 355.160156 218.410156 355.140625 218.109375 C 355.125 217.804688 354.988281 217.527344 354.757812 217.328125 L 352.921875 215.707031 C 352.664062 215.476562 352.503906 215.148438 352.484375 214.804688 C 352.464844 214.457031 352.582031 214.117188 352.8125 213.855469 L 354.433594 212.027344 C 354.636719 211.796875 354.738281 211.507812 354.71875 211.203125 C 354.703125 210.902344 354.566406 210.625 354.335938 210.421875 C 354.105469 210.21875 353.816406 210.117188 353.511719 210.136719 C 353.210938 210.15625 352.929688 210.292969 352.730469 210.515625 L 351.105469 212.351562 C 350.621094 212.890625 349.792969 212.941406 349.253906 212.460938 L 347.421875 210.839844 C 347.207031 210.65625 346.945312 210.554688 346.664062 210.554688 Z M 347.082031 222.355469 C 346.164062 222.355469 345.285156 222.027344 344.59375 221.410156 C 343.039062 220.035156 342.890625 217.660156 344.269531 216.109375 L 345.023438 215.257812 L 344.167969 214.503906 C 343.414062 213.839844 342.96875 212.917969 342.90625 211.921875 C 342.847656 210.917969 343.183594 209.953125 343.847656 209.203125 C 344.511719 208.449219 345.433594 208.003906 346.433594 207.941406 C 347.429688 207.882812 348.40625 208.210938 349.15625 208.878906 L 350.011719 209.632812 L 350.765625 208.78125 C 351.429688 208.027344 352.351562 207.582031 353.351562 207.519531 C 354.347656 207.464844 355.324219 207.796875 356.074219 208.457031 C 356.828125 209.125 357.277344 210.042969 357.335938 211.042969 C 357.398438 212.042969 357.066406 213.007812 356.398438 213.761719 L 355.644531 214.613281 L 356.496094 215.367188 C 357.25 216.03125 357.699219 216.949219 357.757812 217.949219 C 357.820312 218.953125 357.488281 219.917969 356.820312 220.671875 C 356.15625 221.417969 355.234375 221.867188 354.230469 221.925781 C 353.230469 221.984375 352.261719 221.65625 351.507812 220.988281 L 350.65625 220.238281 L 349.902344 221.089844 C 349.238281 221.839844 348.3125 222.289062 347.3125 222.347656 C 347.234375 222.351562 347.160156 222.355469 347.082031 222.355469 "/><path style=" stroke:none;fill-rule:nonzero;fill:rgb(14.509583%,13.729858%,13.729858%);fill-opacity:1;" d="M 85.074219 86.273438 C 85.246094 86.273438 85.417969 86.308594 85.582031 86.378906 C 85.902344 86.507812 86.15625 86.765625 86.285156 87.085938 L 87.554688 90.164062 C 87.757812 90.664062 88.148438 91.050781 88.644531 91.261719 C 89.144531 91.464844 89.6875 91.46875 90.1875 91.265625 C 91.21875 90.839844 91.714844 89.660156 91.292969 88.632812 L 90.023438 85.554688 C 89.890625 85.234375 89.894531 84.875 90.023438 84.550781 C 90.160156 84.234375 90.417969 83.980469 90.738281 83.84375 L 93.820312 82.582031 C 94.320312 82.378906 94.710938 81.988281 94.914062 81.496094 C 95.125 81 95.125 80.453125 94.917969 79.953125 C 94.714844 79.453125 94.328125 79.0625 93.832031 78.855469 C 93.332031 78.652344 92.785156 78.644531 92.289062 78.851562 L 89.207031 80.117188 C 88.882812 80.246094 88.519531 80.246094 88.199219 80.117188 C 87.882812 79.980469 87.625 79.722656 87.492188 79.402344 L 86.226562 76.324219 C 86.019531 75.828125 85.632812 75.4375 85.136719 75.230469 C 84.636719 75.023438 84.089844 75.019531 83.59375 75.226562 C 82.558594 75.652344 82.066406 76.828125 82.492188 77.855469 L 83.757812 80.933594 C 84.03125 81.605469 83.710938 82.367188 83.039062 82.644531 L 79.960938 83.910156 C 78.929688 84.332031 78.4375 85.511719 78.859375 86.539062 C 79.0625 87.035156 79.449219 87.425781 79.949219 87.632812 C 80.449219 87.84375 80.992188 87.84375 81.496094 87.636719 L 84.578125 86.375 C 84.738281 86.308594 84.90625 86.273438 85.074219 86.273438 Z M 89.425781 94.035156 C 87.597656 94.035156 85.863281 92.949219 85.125 91.15625 L 84.359375 89.296875 L 82.492188 90.0625 C 81.34375 90.53125 80.078125 90.527344 78.9375 90.046875 C 77.792969 89.574219 76.902344 88.675781 76.429688 87.535156 C 75.460938 85.171875 76.59375 82.457031 78.960938 81.484375 L 80.832031 80.71875 L 80.0625 78.855469 C 79.09375 76.488281 80.226562 73.777344 82.59375 72.800781 C 83.742188 72.332031 85.003906 72.339844 86.148438 72.8125 C 87.289062 73.289062 88.179688 74.183594 88.652344 75.332031 L 89.421875 77.199219 L 91.289062 76.429688 C 92.433594 75.957031 93.699219 75.960938 94.839844 76.441406 C 95.984375 76.914062 96.878906 77.8125 97.347656 78.957031 C 97.816406 80.097656 97.8125 81.359375 97.339844 82.5 C 96.859375 83.648438 95.964844 84.535156 94.816406 85.007812 L 92.949219 85.773438 L 93.71875 87.636719 C 94.691406 90 93.554688 92.714844 91.183594 93.6875 C 90.609375 93.921875 90.011719 94.035156 89.425781 94.035156 "/><path style=" stroke:none;fill-rule:nonzero;fill:rgb(14.509583%,13.729858%,13.729858%);fill-opacity:1;" d="M 121.039062 39.632812 L 121.050781 39.632812 Z M 122.765625 39.878906 C 122.753906 39.878906 122.746094 39.878906 122.734375 39.878906 C 122.628906 39.890625 122.355469 39.933594 122.210938 40.222656 L 118.667969 47.183594 C 118.519531 47.472656 118.636719 47.71875 118.699219 47.808594 C 118.757812 47.898438 118.925781 48.09375 119.261719 48.089844 L 127.066406 47.675781 C 127.394531 47.65625 127.542969 47.429688 127.589844 47.332031 C 127.644531 47.234375 127.738281 46.980469 127.558594 46.707031 L 123.296875 40.167969 C 123.132812 39.917969 122.894531 39.878906 122.765625 39.878906 Z M 119.222656 50.710938 C 118.113281 50.710938 117.109375 50.167969 116.503906 49.238281 C 115.859375 48.253906 115.792969 47.039062 116.328125 45.996094 L 119.867188 39.039062 C 120.402344 37.988281 121.421875 37.332031 122.59375 37.265625 C 123.761719 37.199219 124.851562 37.753906 125.492188 38.734375 L 129.761719 45.277344 C 130.398438 46.261719 130.464844 47.472656 129.933594 48.519531 C 129.398438 49.566406 128.378906 50.226562 127.207031 50.292969 L 119.402344 50.707031 C 119.339844 50.710938 119.277344 50.710938 119.222656 50.710938 "/></g></svg>