<?xml version="1.0" encoding="UTF-8"?><svg xmlns="http://www.w3.org/2000/svg" xmlns:xlink="http://www.w3.org/1999/xlink" contentScriptType="text/ecmascript" width="375pt" zoomAndPan="magnify" contentStyleType="text/css" viewBox="0 0 375 374.999991" height="374.999991pt" preserveAspectRatio="xMidYMid meet" version="1.2"><g xml:id="surface1" id="surface1"><path style=" stroke:none;fill-rule:nonzero;fill:rgb(100%,56.858826%,30.198669%);fill-opacity:1;" d="M 204.546875 298.296875 C 204.546875 298.855469 204.519531 299.410156 204.464844 299.964844 C 204.410156 300.523438 204.328125 301.074219 204.21875 301.621094 C 204.109375 302.167969 203.972656 302.710938 203.8125 303.242188 C 203.648438 303.777344 203.460938 304.300781 203.246094 304.820312 C 203.035156 305.335938 202.796875 305.839844 202.53125 306.332031 C 202.269531 306.824219 201.984375 307.300781 201.671875 307.765625 C 201.363281 308.230469 201.03125 308.675781 200.675781 309.109375 C 200.320312 309.539062 199.949219 309.953125 199.554688 310.347656 C 199.15625 310.742188 198.746094 311.117188 198.3125 311.472656 C 197.882812 311.824219 197.433594 312.15625 196.96875 312.46875 C 196.503906 312.777344 196.027344 313.066406 195.535156 313.328125 C 195.042969 313.589844 194.539062 313.828125 194.023438 314.042969 C 193.507812 314.257812 192.980469 314.445312 192.449219 314.605469 C 191.914062 314.769531 191.371094 314.90625 190.824219 315.011719 C 190.277344 315.121094 189.726562 315.203125 189.171875 315.257812 C 188.613281 315.3125 188.058594 315.339844 187.5 315.339844 C 186.941406 315.339844 186.386719 315.3125 185.828125 315.257812 C 185.273438 315.203125 184.722656 315.121094 184.175781 315.011719 C 183.628906 314.90625 183.085938 314.769531 182.550781 314.605469 C 182.019531 314.445312 181.492188 314.257812 180.976562 314.042969 C 180.460938 313.828125 179.957031 313.589844 179.464844 313.328125 C 178.972656 313.066406 178.496094 312.777344 178.03125 312.46875 C 177.566406 312.15625 177.117188 311.824219 176.6875 311.472656 C 176.253906 311.117188 175.839844 310.742188 175.445312 310.347656 C 175.050781 309.953125 174.679688 309.539062 174.324219 309.109375 C 173.96875 308.675781 173.636719 308.230469 173.328125 307.765625 C 173.015625 307.300781 172.730469 306.824219 172.46875 306.332031 C 172.203125 305.839844 171.964844 305.335938 171.753906 304.820312 C 171.539062 304.300781 171.351562 303.777344 171.1875 303.242188 C 171.027344 302.710938 170.890625 302.167969 170.78125 301.621094 C 170.671875 301.074219 170.589844 300.523438 170.535156 299.964844 C 170.480469 299.410156 170.453125 298.855469 170.453125 298.296875 C 170.453125 297.738281 170.480469 297.179688 170.535156 296.625 C 170.589844 296.070312 170.671875 295.519531 170.78125 294.96875 C 170.890625 294.421875 171.027344 293.882812 171.1875 293.347656 C 171.351562 292.8125 171.539062 292.289062 171.753906 291.773438 C 171.964844 291.257812 172.203125 290.753906 172.46875 290.261719 C 172.730469 289.769531 173.015625 289.289062 173.328125 288.824219 C 173.636719 288.359375 173.96875 287.914062 174.324219 287.480469 C 174.679688 287.050781 175.050781 286.636719 175.445312 286.242188 C 175.839844 285.847656 176.253906 285.472656 176.6875 285.117188 C 177.117188 284.765625 177.566406 284.433594 178.03125 284.121094 C 178.496094 283.8125 178.972656 283.527344 179.464844 283.261719 C 179.957031 283 180.460938 282.761719 180.976562 282.546875 C 181.492188 282.332031 182.019531 282.144531 182.550781 281.984375 C 183.085938 281.820312 183.628906 281.6875 184.175781 281.578125 C 184.722656 281.46875 185.273438 281.386719 185.828125 281.332031 C 186.386719 281.277344 186.941406 281.25 187.5 281.25 C 188.058594 281.25 188.613281 281.277344 189.171875 281.332031 C 189.726562 281.386719 190.277344 281.46875 190.824219 281.578125 C 191.371094 281.6875 191.914062 281.820312 192.449219 281.984375 C 192.980469 282.144531 193.507812 282.332031 194.023438 282.546875 C 194.539062 282.761719 195.042969 283 195.535156 283.261719 C 196.027344 283.527344 196.503906 283.8125 196.96875 284.121094 C 197.433594 284.433594 197.882812 284.765625 198.3125 285.117188 C 198.746094 285.472656 199.15625 285.847656 199.554688 286.242188 C 199.949219 286.636719 200.320312 287.050781 200.675781 287.480469 C 201.03125 287.914062 201.363281 288.359375 201.671875 288.824219 C 201.984375 289.289062 202.269531 289.769531 202.53125 290.261719 C 202.796875 290.753906 203.035156 291.257812 203.246094 291.773438 C 203.460938 292.289062 203.648438 292.8125 203.8125 293.347656 C 203.972656 293.882812 204.109375 294.421875 204.21875 294.96875 C 204.328125 295.519531 204.410156 296.070312 204.464844 296.625 C 204.519531 297.179688 204.546875 297.738281 204.546875 298.296875 Z M 204.546875 298.296875 "/><path style=" stroke:none;fill-rule:nonzero;fill:rgb(100%,56.858826%,30.198669%);fill-opacity:1;" d="M 263.691406 127.160156 C 263.445312 125.070312 263.109375 122.996094 262.6875 120.9375 C 262.269531 118.878906 261.765625 116.839844 261.179688 114.820312 C 260.589844 112.800781 259.921875 110.8125 259.171875 108.847656 C 258.417969 106.882812 257.589844 104.953125 256.679688 103.058594 C 255.769531 101.164062 254.78125 99.308594 253.71875 97.496094 C 252.65625 95.683594 251.523438 93.914062 250.316406 92.195312 C 249.109375 90.472656 247.832031 88.804688 246.488281 87.1875 C 245.140625 85.574219 243.734375 84.015625 242.261719 82.515625 C 240.789062 81.015625 239.253906 79.578125 237.664062 78.203125 C 236.074219 76.828125 234.429688 75.523438 232.730469 74.285156 C 231.03125 73.046875 229.285156 71.878906 227.492188 70.785156 C 225.695312 69.6875 223.859375 68.667969 221.980469 67.722656 C 220.101562 66.78125 218.1875 65.914062 216.238281 65.128906 C 214.289062 64.339844 212.3125 63.636719 210.304688 63.011719 C 208.296875 62.386719 206.265625 61.847656 204.214844 61.390625 C 202.164062 60.933594 200.097656 60.558594 198.015625 60.273438 C 195.929688 59.984375 193.839844 59.785156 191.742188 59.667969 C 189.640625 59.550781 187.542969 59.523438 185.441406 59.582031 C 183.339844 59.636719 181.242188 59.78125 179.152344 60.011719 C 177.0625 60.242188 174.988281 60.554688 172.921875 60.957031 C 170.859375 61.355469 168.816406 61.839844 166.792969 62.410156 C 164.769531 62.976562 162.769531 63.628906 160.800781 64.359375 C 158.828125 65.09375 156.894531 65.90625 154.988281 66.796875 C 153.085938 67.6875 151.222656 68.65625 149.398438 69.703125 C 147.574219 70.746094 145.796875 71.867188 144.0625 73.058594 C 142.332031 74.25 140.652344 75.507812 139.023438 76.839844 C 137.394531 78.167969 135.824219 79.5625 134.308594 81.019531 C 132.792969 82.480469 131.34375 83.996094 129.953125 85.574219 C 128.566406 87.152344 127.242188 88.785156 125.988281 90.472656 C 124.734375 92.160156 123.550781 93.894531 122.4375 95.679688 C 121.324219 97.460938 120.289062 99.289062 119.328125 101.160156 C 118.363281 103.027344 117.480469 104.933594 116.675781 106.875 C 116.214844 107.996094 115.894531 109.15625 115.722656 110.355469 C 115.546875 111.554688 115.523438 112.757812 115.652344 113.960938 C 115.777344 115.167969 116.050781 116.339844 116.46875 117.476562 C 116.886719 118.613281 117.441406 119.683594 118.125 120.683594 C 118.839844 121.78125 119.679688 122.773438 120.644531 123.664062 C 121.609375 124.554688 122.667969 125.3125 123.824219 125.9375 C 124.976562 126.5625 126.1875 127.035156 127.460938 127.355469 C 128.730469 127.679688 130.023438 127.839844 131.335938 127.839844 L 134.574219 127.839844 C 136.128906 127.78125 137.644531 127.503906 139.125 127.015625 C 140.601562 126.523438 141.980469 125.835938 143.261719 124.953125 C 144.546875 124.070312 145.679688 123.027344 146.664062 121.824219 C 147.652344 120.617188 148.449219 119.300781 149.0625 117.871094 C 149.929688 116.070312 150.917969 114.339844 152.027344 112.679688 C 153.136719 111.019531 154.359375 109.445312 155.691406 107.957031 C 157.019531 106.46875 158.449219 105.078125 159.976562 103.792969 C 161.503906 102.503906 163.113281 101.328125 164.804688 100.269531 C 166.496094 99.207031 168.253906 98.269531 170.078125 97.453125 C 171.898438 96.640625 173.773438 95.957031 175.691406 95.40625 C 177.609375 94.855469 179.558594 94.441406 181.539062 94.164062 C 183.515625 93.886719 185.503906 93.746094 187.5 93.75 C 190.835938 93.746094 194.132812 94.113281 197.386719 94.859375 C 199.296875 95.316406 201.167969 95.90625 202.996094 96.621094 C 204.824219 97.339844 206.59375 98.179688 208.308594 99.140625 C 210.019531 100.105469 211.660156 101.179688 213.222656 102.367188 C 214.785156 103.558594 216.261719 104.847656 217.644531 106.242188 C 219.03125 107.632812 220.3125 109.117188 221.496094 110.6875 C 222.675781 112.257812 223.742188 113.902344 224.695312 115.617188 C 225.648438 117.335938 226.480469 119.113281 227.1875 120.945312 C 227.894531 122.777344 228.472656 124.648438 228.921875 126.5625 C 229.234375 127.929688 229.480469 129.3125 229.65625 130.703125 C 229.832031 132.09375 229.941406 133.492188 229.980469 134.894531 C 230.019531 136.296875 229.988281 137.699219 229.890625 139.101562 C 229.789062 140.5 229.621094 141.890625 229.386719 143.273438 C 229.148438 144.660156 228.84375 146.027344 228.472656 147.378906 C 228.097656 148.734375 227.660156 150.066406 227.15625 151.375 C 226.652344 152.683594 226.085938 153.964844 225.457031 155.21875 C 224.824219 156.472656 224.136719 157.695312 223.382812 158.878906 C 222.632812 160.066406 221.824219 161.210938 220.960938 162.316406 C 220.097656 163.421875 219.179688 164.484375 218.210938 165.5 C 217.242188 166.515625 216.226562 167.480469 215.160156 168.394531 C 214.097656 169.308594 212.992188 170.167969 211.839844 170.976562 C 210.691406 171.78125 209.507812 172.527344 208.28125 173.214844 C 207.058594 173.902344 205.804688 174.53125 204.519531 175.09375 C 203.234375 175.660156 201.925781 176.160156 200.589844 176.59375 C 199.257812 177.027344 197.90625 177.398438 196.535156 177.699219 C 192.128906 178.527344 188.039062 180.148438 184.261719 182.558594 C 182.148438 183.960938 180.238281 185.597656 178.523438 187.46875 C 176.8125 189.339844 175.351562 191.386719 174.140625 193.617188 C 172.929688 195.84375 172.007812 198.1875 171.367188 200.640625 C 170.730469 203.09375 170.398438 205.589844 170.371094 208.125 L 170.371094 221.589844 C 170.371094 222.148438 170.398438 222.707031 170.453125 223.261719 C 170.507812 223.816406 170.589844 224.367188 170.695312 224.917969 C 170.804688 225.464844 170.941406 226.003906 171.101562 226.539062 C 171.265625 227.074219 171.453125 227.597656 171.667969 228.113281 C 171.878906 228.628906 172.117188 229.132812 172.382812 229.625 C 172.644531 230.117188 172.933594 230.597656 173.242188 231.0625 C 173.550781 231.523438 173.882812 231.972656 174.238281 232.40625 C 174.59375 232.835938 174.96875 233.25 175.363281 233.644531 C 175.757812 234.039062 176.167969 234.414062 176.601562 234.765625 C 177.03125 235.121094 177.480469 235.453125 177.945312 235.761719 C 178.410156 236.074219 178.886719 236.359375 179.378906 236.625 C 179.871094 236.886719 180.375 237.125 180.890625 237.339844 C 181.40625 237.550781 181.933594 237.742188 182.464844 237.902344 C 183 238.0625 183.542969 238.199219 184.089844 238.308594 C 184.636719 238.417969 185.1875 238.5 185.742188 238.554688 C 186.300781 238.609375 186.855469 238.636719 187.414062 238.636719 C 187.972656 238.636719 188.53125 238.609375 189.085938 238.554688 C 189.640625 238.5 190.191406 238.417969 190.738281 238.308594 C 191.289062 238.199219 191.828125 238.0625 192.363281 237.902344 C 192.898438 237.742188 193.421875 237.550781 193.9375 237.339844 C 194.453125 237.125 194.957031 236.886719 195.449219 236.625 C 195.941406 236.359375 196.421875 236.074219 196.882812 235.761719 C 197.347656 235.453125 197.796875 235.121094 198.226562 234.765625 C 198.660156 234.414062 199.074219 234.039062 199.46875 233.644531 C 199.863281 233.25 200.238281 232.835938 200.589844 232.40625 C 200.945312 231.972656 201.277344 231.523438 201.585938 231.0625 C 201.898438 230.597656 202.183594 230.117188 202.449219 229.625 C 202.710938 229.132812 202.949219 228.628906 203.164062 228.113281 C 203.375 227.597656 203.5625 227.074219 203.726562 226.539062 C 203.886719 226.003906 204.023438 225.464844 204.132812 224.917969 C 204.242188 224.367188 204.324219 223.816406 204.378906 223.261719 C 204.433594 222.707031 204.460938 222.148438 204.460938 221.589844 L 204.460938 217.671875 C 204.464844 216.765625 204.609375 215.886719 204.890625 215.027344 C 205.175781 214.167969 205.585938 213.375 206.121094 212.648438 C 206.65625 211.921875 207.292969 211.292969 208.03125 210.769531 C 208.765625 210.242188 209.5625 209.84375 210.425781 209.574219 C 212.539062 208.902344 214.617188 208.136719 216.660156 207.285156 C 218.707031 206.433594 220.710938 205.496094 222.675781 204.46875 C 224.640625 203.445312 226.558594 202.335938 228.425781 201.148438 C 230.296875 199.957031 232.109375 198.6875 233.871094 197.339844 C 235.628906 195.996094 237.328125 194.574219 238.964844 193.082031 C 240.601562 191.589844 242.171875 190.027344 243.675781 188.398438 C 245.179688 186.769531 246.609375 185.082031 247.964844 183.328125 C 249.324219 181.578125 250.601562 179.769531 251.804688 177.910156 C 253.007812 176.046875 254.125 174.136719 255.164062 172.179688 C 256.199219 170.21875 257.148438 168.21875 258.015625 166.179688 C 258.878906 164.140625 259.652344 162.066406 260.339844 159.960938 C 261.027344 157.851562 261.621094 155.71875 262.121094 153.5625 C 262.625 151.402344 263.03125 149.226562 263.347656 147.03125 C 263.660156 144.839844 263.878906 142.636719 264.003906 140.425781 C 264.128906 138.210938 264.160156 135.996094 264.09375 133.78125 C 264.027344 131.566406 263.863281 129.359375 263.609375 127.160156 Z M 263.691406 127.160156 "/><path style=" stroke:none;fill-rule:nonzero;fill:rgb(100%,56.858826%,30.198669%);fill-opacity:1;" d="M 187.5 0 C 184.429688 0 181.363281 0.0742188 178.300781 0.226562 C 175.234375 0.375 172.175781 0.601562 169.121094 0.902344 C 166.066406 1.203125 163.023438 1.578125 159.988281 2.03125 C 156.953125 2.480469 153.929688 3.003906 150.921875 3.601562 C 147.910156 4.203125 144.917969 4.875 141.941406 5.617188 C 138.964844 6.363281 136.007812 7.183594 133.070312 8.074219 C 130.136719 8.964844 127.222656 9.925781 124.332031 10.960938 C 121.445312 11.996094 118.582031 13.097656 115.746094 14.273438 C 112.910156 15.445312 110.105469 16.691406 107.332031 18.003906 C 104.558594 19.3125 101.820312 20.691406 99.113281 22.140625 C 96.40625 23.585938 93.738281 25.097656 91.105469 26.675781 C 88.472656 28.253906 85.882812 29.894531 83.332031 31.597656 C 80.777344 33.304688 78.269531 35.070312 75.804688 36.898438 C 73.339844 38.726562 70.921875 40.613281 68.550781 42.558594 C 66.179688 44.507812 63.855469 46.511719 61.582031 48.570312 C 59.308594 50.632812 57.085938 52.746094 54.917969 54.917969 C 52.746094 57.085938 50.632812 59.308594 48.570312 61.582031 C 46.511719 63.855469 44.507812 66.179688 42.558594 68.550781 C 40.613281 70.921875 38.726562 73.339844 36.898438 75.804688 C 35.070312 78.269531 33.304688 80.777344 31.597656 83.332031 C 29.894531 85.882812 28.253906 88.472656 26.675781 91.105469 C 25.097656 93.738281 23.585938 96.40625 22.140625 99.113281 C 20.691406 101.820312 19.3125 104.558594 18.003906 107.332031 C 16.691406 110.105469 15.445312 112.910156 14.273438 115.746094 C 13.097656 118.582031 11.996094 121.445312 10.960938 124.332031 C 9.925781 127.222656 8.964844 130.136719 8.074219 133.070312 C 7.183594 136.007812 6.363281 138.964844 5.617188 141.941406 C 4.875 144.917969 4.203125 147.910156 3.601562 150.921875 C 3.003906 153.929688 2.480469 156.953125 2.03125 159.988281 C 1.578125 163.023438 1.203125 166.066406 0.902344 169.121094 C 0.601562 172.175781 0.375 175.234375 0.226562 178.300781 C 0.0742188 181.363281 0 184.429688 0 187.5 C 0 190.570312 0.0742188 193.636719 0.226562 196.699219 C 0.375 199.765625 0.601562 202.824219 0.902344 205.878906 C 1.203125 208.933594 1.578125 211.976562 2.03125 215.011719 C 2.480469 218.046875 3.003906 221.070312 3.601562 224.078125 C 4.203125 227.089844 4.875 230.082031 5.617188 233.058594 C 6.363281 236.035156 7.183594 238.992188 8.074219 241.929688 C 8.964844 244.863281 9.925781 247.777344 10.960938 250.667969 C 11.996094 253.554688 13.097656 256.417969 14.273438 259.253906 C 15.445312 262.089844 16.691406 264.894531 18.003906 267.667969 C 19.3125 270.441406 20.691406 273.179688 22.140625 275.886719 C 23.585938 278.59375 25.097656 281.261719 26.675781 283.894531 C 28.253906 286.527344 29.894531 289.117188 31.597656 291.667969 C 33.304688 294.222656 35.070312 296.730469 36.898438 299.195312 C 38.726562 301.660156 40.613281 304.078125 42.558594 306.449219 C 44.507812 308.820312 46.511719 311.144531 48.570312 313.417969 C 50.632812 315.691406 52.746094 317.914062 54.917969 320.082031 C 57.085938 322.253906 59.308594 324.367188 61.582031 326.429688 C 63.855469 328.488281 66.179688 330.492188 68.550781 332.441406 C 70.921875 334.386719 73.339844 336.273438 75.804688 338.101562 C 78.269531 339.929688 80.777344 341.695312 83.332031 343.402344 C 85.882812 345.105469 88.472656 346.746094 91.105469 348.324219 C 93.738281 349.902344 96.40625 351.414062 99.113281 352.859375 C 101.820312 354.308594 104.558594 355.6875 107.332031 356.996094 C 110.105469 358.308594 112.910156 359.554688 115.746094 360.726562 C 118.582031 361.902344 121.445312 363.003906 124.332031 364.039062 C 127.222656 365.074219 130.136719 366.035156 133.070312 366.925781 C 136.007812 367.816406 138.964844 368.636719 141.941406 369.378906 C 144.917969 370.125 147.910156 370.796875 150.921875 371.398438 C 153.929688 371.996094 156.953125 372.519531 159.988281 372.96875 C 163.023438 373.421875 166.066406 373.796875 169.121094 374.097656 C 172.175781 374.398438 175.234375 374.625 178.300781 374.773438 C 181.363281 374.925781 184.429688 375 187.5 375 C 190.570312 375 193.636719 374.925781 196.699219 374.773438 C 199.765625 374.625 202.824219 374.398438 205.878906 374.097656 C 208.933594 373.796875 211.976562 373.421875 215.011719 372.96875 C 218.046875 372.519531 221.070312 371.996094 224.078125 371.398438 C 227.089844 370.796875 230.082031 370.125 233.058594 369.378906 C 236.035156 368.636719 238.992188 367.816406 241.929688 366.925781 C 244.863281 366.035156 247.777344 365.074219 250.667969 364.039062 C 253.554688 363.003906 256.417969 361.902344 259.253906 360.726562 C 262.089844 359.554688 264.894531 358.308594 267.667969 356.996094 C 270.441406 355.6875 273.179688 354.308594 275.886719 352.859375 C 278.59375 351.414062 281.261719 349.902344 283.894531 348.324219 C 286.527344 346.746094 289.117188 345.105469 291.667969 343.402344 C 294.222656 341.695312 296.730469 339.929688 299.195312 338.101562 C 301.660156 336.273438 304.078125 334.386719 306.449219 332.441406 C 308.820312 330.492188 311.144531 328.488281 313.417969 326.429688 C 315.691406 324.367188 317.914062 322.253906 320.082031 320.082031 C 322.253906 317.914062 324.367188 315.691406 326.429688 313.417969 C 328.488281 311.144531 330.492188 308.820312 332.441406 306.449219 C 334.386719 304.078125 336.273438 301.660156 338.101562 299.195312 C 339.929688 296.730469 341.695312 294.222656 343.402344 291.667969 C 345.105469 289.117188 346.746094 286.527344 348.324219 283.894531 C 349.902344 281.261719 351.414062 278.59375 352.859375 275.886719 C 354.308594 273.179688 355.6875 270.441406 356.996094 267.667969 C 358.308594 264.894531 359.554688 262.089844 360.726562 259.253906 C 361.902344 256.417969 363.003906 253.554688 364.039062 250.667969 C 365.074219 247.777344 366.035156 244.863281 366.925781 241.929688 C 367.816406 238.992188 368.636719 236.035156 369.378906 233.058594 C 370.125 230.082031 370.796875 227.089844 371.398438 224.078125 C 371.996094 221.070312 372.519531 218.046875 372.96875 215.011719 C 373.421875 211.976562 373.796875 208.933594 374.097656 205.878906 C 374.398438 202.824219 374.625 199.765625 374.773438 196.699219 C 374.925781 193.636719 375 190.570312 375 187.5 C 375 184.429688 374.925781 181.363281 374.773438 178.300781 C 374.625 175.234375 374.398438 172.175781 374.097656 169.121094 C 373.796875 166.066406 373.421875 163.023438 372.96875 159.988281 C 372.519531 156.953125 371.996094 153.929688 371.398438 150.921875 C 370.796875 147.910156 370.125 144.917969 369.378906 141.941406 C 368.636719 138.964844 367.816406 136.007812 366.925781 133.070312 C 366.035156 130.136719 365.074219 127.222656 364.039062 124.332031 C 363.003906 121.445312 361.902344 118.582031 360.726562 115.746094 C 359.554688 112.910156 358.308594 110.105469 356.996094 107.332031 C 355.6875 104.558594 354.308594 101.820312 352.859375 99.113281 C 351.414062 96.40625 349.902344 93.738281 348.324219 91.105469 C 346.746094 88.472656 345.105469 85.882812 343.402344 83.332031 C 341.695312 80.777344 339.929688 78.269531 338.101562 75.804688 C 336.273438 73.339844 334.386719 70.921875 332.441406 68.550781 C 330.492188 66.179688 328.488281 63.855469 326.429688 61.582031 C 324.367188 59.308594 322.253906 57.085938 320.082031 54.917969 C 317.914062 52.746094 315.691406 50.632812 313.417969 48.570312 C 311.144531 46.511719 308.820312 44.507812 306.449219 42.558594 C 304.078125 40.613281 301.660156 38.726562 299.195312 36.898438 C 296.730469 35.070312 294.222656 33.304688 291.667969 31.597656 C 289.117188 29.894531 286.527344 28.253906 283.894531 26.675781 C 281.261719 25.097656 278.59375 23.585938 275.886719 22.140625 C 273.179688 20.691406 270.441406 19.3125 267.667969 18.003906 C 264.894531 16.691406 262.089844 15.445312 259.253906 14.273438 C 256.417969 13.097656 253.554688 11.996094 250.667969 10.960938 C 247.777344 9.925781 244.863281 8.964844 241.929688 8.074219 C 238.992188 7.183594 236.035156 6.363281 233.058594 5.617188 C 230.082031 4.875 227.089844 4.203125 224.078125 3.601562 C 221.070312 3.003906 218.046875 2.480469 215.011719 2.03125 C 211.976562 1.578125 208.933594 1.203125 205.878906 0.902344 C 202.824219 0.601562 199.765625 0.375 196.699219 0.226562 C 193.636719 0.0742188 190.570312 0 187.5 0 Z M 187.5 332.386719 C 186.382812 332.386719 185.269531 332.332031 184.160156 332.222656 C 183.046875 332.113281 181.945312 331.949219 180.847656 331.730469 C 179.753906 331.511719 178.671875 331.242188 177.605469 330.917969 C 176.535156 330.59375 175.484375 330.21875 174.453125 329.792969 C 173.421875 329.363281 172.414062 328.886719 171.429688 328.359375 C 170.445312 327.835938 169.488281 327.261719 168.558594 326.640625 C 167.632812 326.019531 166.734375 325.355469 165.871094 324.648438 C 165.011719 323.941406 164.183594 323.191406 163.394531 322.402344 C 162.605469 321.613281 161.855469 320.785156 161.148438 319.921875 C 160.4375 319.058594 159.773438 318.164062 159.15625 317.234375 C 158.535156 316.308594 157.960938 315.351562 157.433594 314.367188 C 156.90625 313.382812 156.429688 312.371094 156.003906 311.339844 C 155.578125 310.308594 155.199219 309.261719 154.878906 308.191406 C 154.554688 307.121094 154.28125 306.042969 154.0625 304.945312 C 153.847656 303.851562 153.683594 302.75 153.574219 301.636719 C 153.464844 300.527344 153.410156 299.410156 153.410156 298.296875 C 153.410156 297.179688 153.464844 296.066406 153.574219 294.953125 C 153.683594 293.84375 153.847656 292.738281 154.0625 291.644531 C 154.28125 290.550781 154.554688 289.46875 154.878906 288.398438 C 155.199219 287.332031 155.578125 286.28125 156.003906 285.25 C 156.429688 284.21875 156.90625 283.210938 157.433594 282.226562 C 157.960938 281.242188 158.535156 280.285156 159.15625 279.355469 C 159.773438 278.425781 160.4375 277.53125 161.148438 276.667969 C 161.855469 275.804688 162.605469 274.980469 163.394531 274.191406 C 164.183594 273.398438 165.011719 272.652344 165.871094 271.941406 C 166.734375 271.234375 167.632812 270.570312 168.558594 269.949219 C 169.488281 269.328125 170.445312 268.757812 171.429688 268.230469 C 172.414062 267.703125 173.421875 267.226562 174.453125 266.800781 C 175.484375 266.371094 176.535156 265.996094 177.605469 265.671875 C 178.671875 265.347656 179.753906 265.078125 180.847656 264.859375 C 181.945312 264.640625 183.046875 264.476562 184.160156 264.367188 C 185.269531 264.257812 186.382812 264.203125 187.5 264.203125 C 188.617188 264.203125 189.730469 264.257812 190.839844 264.367188 C 191.953125 264.476562 193.054688 264.640625 194.152344 264.859375 C 195.246094 265.078125 196.328125 265.347656 197.394531 265.671875 C 198.464844 265.996094 199.515625 266.371094 200.546875 266.800781 C 201.578125 267.226562 202.585938 267.703125 203.570312 268.230469 C 204.554688 268.757812 205.511719 269.328125 206.441406 269.949219 C 207.367188 270.570312 208.265625 271.234375 209.128906 271.941406 C 209.988281 272.652344 210.816406 273.398438 211.605469 274.191406 C 212.394531 274.980469 213.144531 275.804688 213.851562 276.667969 C 214.5625 277.53125 215.226562 278.425781 215.84375 279.355469 C 216.464844 280.285156 217.039062 281.242188 217.566406 282.226562 C 218.09375 283.210938 218.570312 284.21875 218.996094 285.25 C 219.421875 286.28125 219.800781 287.332031 220.121094 288.398438 C 220.445312 289.46875 220.71875 290.550781 220.9375 291.644531 C 221.152344 292.738281 221.316406 293.84375 221.425781 294.953125 C 221.535156 296.066406 221.589844 297.179688 221.589844 298.296875 C 221.589844 299.410156 221.535156 300.527344 221.425781 301.636719 C 221.316406 302.75 221.152344 303.851562 220.9375 304.945312 C 220.71875 306.042969 220.445312 307.121094 220.121094 308.191406 C 219.800781 309.261719 219.421875 310.308594 218.996094 311.339844 C 218.570312 312.371094 218.089844 313.382812 217.566406 314.367188 C 217.039062 315.351562 216.464844 316.308594 215.84375 317.234375 C 215.226562 318.164062 214.5625 319.058594 213.851562 319.921875 C 213.144531 320.785156 212.394531 321.613281 211.605469 322.402344 C 210.816406 323.191406 209.988281 323.941406 209.128906 324.648438 C 208.265625 325.355469 207.367188 326.019531 206.441406 326.640625 C 205.511719 327.261719 204.554688 327.835938 203.570312 328.359375 C 202.585938 328.886719 201.578125 329.363281 200.546875 329.792969 C 199.515625 330.21875 198.464844 330.59375 197.394531 330.917969 C 196.328125 331.242188 195.246094 331.511719 194.152344 331.730469 C 193.054688 331.949219 191.953125 332.113281 190.839844 332.222656 C 189.730469 332.332031 188.617188 332.386719 187.5 332.386719 Z M 221.589844 223.722656 C 221.554688 224.835938 221.464844 225.949219 221.320312 227.058594 C 221.175781 228.164062 220.976562 229.261719 220.726562 230.347656 C 220.472656 231.4375 220.167969 232.511719 219.808594 233.566406 C 219.453125 234.625 219.042969 235.664062 218.582031 236.679688 C 218.125 237.699219 217.617188 238.691406 217.058594 239.660156 C 216.5 240.628906 215.898438 241.566406 215.25 242.472656 C 214.597656 243.382812 213.90625 244.257812 213.171875 245.097656 C 212.4375 245.9375 211.660156 246.738281 210.847656 247.503906 C 210.03125 248.269531 209.183594 248.992188 208.296875 249.671875 C 207.414062 250.351562 206.496094 250.988281 205.550781 251.582031 C 204.601562 252.171875 203.628906 252.714844 202.625 253.210938 C 201.625 253.703125 200.601562 254.148438 199.558594 254.542969 C 198.515625 254.9375 197.453125 255.28125 196.375 255.574219 C 195.296875 255.863281 194.207031 256.101562 193.105469 256.285156 C 192.003906 256.46875 190.894531 256.597656 189.78125 256.671875 C 188.667969 256.746094 187.550781 256.765625 186.433594 256.730469 C 185.320312 256.695312 184.207031 256.605469 183.101562 256.460938 C 181.992188 256.316406 180.894531 256.121094 179.808594 255.867188 C 178.71875 255.617188 177.644531 255.3125 176.589844 254.953125 C 175.53125 254.597656 174.492188 254.1875 173.472656 253.730469 C 172.457031 253.269531 171.464844 252.761719 170.496094 252.207031 C 169.527344 251.648438 168.589844 251.046875 167.679688 250.398438 C 166.769531 249.746094 165.894531 249.054688 165.054688 248.320312 C 164.214844 247.585938 163.410156 246.8125 162.648438 246 C 161.882812 245.183594 161.160156 244.335938 160.476562 243.449219 C 159.796875 242.566406 159.160156 241.648438 158.570312 240.703125 C 157.976562 239.753906 157.433594 238.78125 156.9375 237.78125 C 156.441406 236.78125 155.996094 235.757812 155.601562 234.714844 C 155.207031 233.667969 154.863281 232.605469 154.570312 231.527344 C 154.28125 230.449219 154.042969 229.359375 153.859375 228.261719 C 153.675781 227.160156 153.546875 226.050781 153.46875 224.9375 C 153.394531 223.820312 153.375 222.707031 153.410156 221.589844 L 153.410156 208.722656 C 153.40625 206.746094 153.527344 204.777344 153.765625 202.816406 C 154.007812 200.855469 154.367188 198.917969 154.847656 197.003906 C 155.328125 195.085938 155.921875 193.207031 156.636719 191.363281 C 157.347656 189.523438 158.171875 187.730469 159.105469 185.988281 C 160.039062 184.246094 161.074219 182.570312 162.214844 180.957031 C 163.355469 179.34375 164.589844 177.808594 165.921875 176.347656 C 167.25 174.886719 168.667969 173.515625 170.167969 172.230469 C 171.667969 170.945312 173.238281 169.757812 174.886719 168.664062 C 180.449219 165.089844 186.472656 162.648438 192.953125 161.335938 C 194.601562 160.976562 196.199219 160.457031 197.742188 159.78125 C 199.285156 159.105469 200.75 158.285156 202.132812 157.320312 C 203.515625 156.355469 204.789062 155.261719 205.957031 154.046875 C 207.121094 152.828125 208.15625 151.507812 209.0625 150.085938 C 209.992188 148.632812 210.765625 147.105469 211.386719 145.496094 C 212.003906 143.890625 212.457031 142.238281 212.742188 140.539062 C 213.027344 138.839844 213.140625 137.128906 213.082031 135.40625 C 213.023438 133.6875 212.789062 131.988281 212.386719 130.3125 C 212.113281 129.179688 211.761719 128.070312 211.339844 126.984375 C 210.914062 125.898438 210.414062 124.84375 209.847656 123.828125 C 209.277344 122.808594 208.640625 121.835938 207.9375 120.902344 C 207.238281 119.972656 206.472656 119.09375 205.652344 118.265625 C 204.828125 117.441406 203.953125 116.675781 203.023438 115.96875 C 202.097656 115.261719 201.125 114.621094 200.109375 114.046875 C 199.09375 113.472656 198.046875 112.96875 196.960938 112.539062 C 195.878906 112.109375 194.769531 111.753906 193.636719 111.476562 C 192.21875 111.125 190.777344 110.898438 189.320312 110.792969 C 187.863281 110.6875 186.40625 110.707031 184.953125 110.851562 C 183.496094 110.996094 182.066406 111.261719 180.65625 111.652344 C 179.246094 112.042969 177.882812 112.550781 176.5625 113.175781 C 175.238281 113.796875 173.980469 114.53125 172.785156 115.371094 C 171.585938 116.210938 170.472656 117.148438 169.4375 118.179688 C 168.398438 119.210938 167.460938 120.324219 166.613281 121.515625 C 165.769531 122.707031 165.03125 123.964844 164.402344 125.285156 C 163.757812 126.71875 163.015625 128.101562 162.175781 129.429688 C 161.332031 130.757812 160.402344 132.019531 159.382812 133.214844 C 158.363281 134.414062 157.261719 135.53125 156.082031 136.574219 C 154.902344 137.613281 153.65625 138.566406 152.34375 139.429688 C 151.027344 140.292969 149.660156 141.058594 148.238281 141.726562 C 146.8125 142.398438 145.351562 142.964844 143.847656 143.425781 C 142.34375 143.886719 140.816406 144.238281 139.261719 144.484375 C 137.710938 144.730469 136.144531 144.863281 134.574219 144.886719 L 131.335938 144.886719 C 129.984375 144.882812 128.640625 144.796875 127.300781 144.628906 C 125.960938 144.460938 124.636719 144.210938 123.328125 143.878906 C 122.019531 143.546875 120.734375 143.132812 119.476562 142.644531 C 118.21875 142.15625 116.992188 141.589844 115.804688 140.949219 C 114.617188 140.308594 113.472656 139.597656 112.371094 138.816406 C 111.269531 138.035156 110.21875 137.1875 109.222656 136.277344 C 108.226562 135.367188 107.289062 134.398438 106.410156 133.371094 C 105.535156 132.34375 104.722656 131.269531 103.976562 130.140625 C 103.25 129.0625 102.59375 127.941406 102.003906 126.777344 C 101.414062 125.617188 100.894531 124.425781 100.453125 123.199219 C 100.007812 121.976562 99.640625 120.726562 99.351562 119.457031 C 99.0625 118.1875 98.847656 116.90625 98.714844 115.609375 C 98.582031 114.316406 98.53125 113.015625 98.554688 111.714844 C 98.582031 110.410156 98.6875 109.117188 98.871094 107.828125 C 99.054688 106.539062 99.320312 105.265625 99.660156 104.007812 C 100 102.75 100.417969 101.519531 100.910156 100.3125 C 101.894531 97.941406 102.976562 95.613281 104.152344 93.328125 C 105.332031 91.046875 106.601562 88.816406 107.960938 86.636719 C 109.320312 84.457031 110.769531 82.339844 112.304688 80.277344 C 113.839844 78.21875 115.457031 76.226562 117.15625 74.300781 C 118.855469 72.371094 120.628906 70.519531 122.480469 68.738281 C 124.332031 66.957031 126.253906 65.253906 128.242188 63.632812 C 130.234375 62.007812 132.289062 60.46875 134.40625 59.015625 C 136.523438 57.5625 138.699219 56.195312 140.929688 54.921875 C 143.15625 53.644531 145.4375 52.464844 147.761719 51.375 C 150.089844 50.289062 152.457031 49.296875 154.867188 48.402344 C 157.273438 47.507812 159.714844 46.714844 162.1875 46.023438 C 164.664062 45.332031 167.160156 44.738281 169.683594 44.253906 C 172.203125 43.765625 174.742188 43.382812 177.296875 43.101562 C 179.847656 42.824219 182.410156 42.648438 184.976562 42.582031 C 187.546875 42.511719 190.113281 42.550781 192.675781 42.691406 C 195.242188 42.835938 197.796875 43.082031 200.339844 43.433594 C 202.886719 43.789062 205.410156 44.242188 207.917969 44.804688 C 210.425781 45.363281 212.90625 46.027344 215.359375 46.789062 C 217.808594 47.554688 220.226562 48.417969 222.609375 49.378906 C 224.992188 50.34375 227.328125 51.402344 229.625 52.554688 C 231.917969 53.710938 234.160156 54.957031 236.351562 56.296875 C 238.546875 57.636719 240.679688 59.0625 242.753906 60.578125 C 244.828125 62.09375 246.835938 63.6875 248.78125 65.367188 C 250.722656 67.046875 252.59375 68.804688 254.394531 70.640625 C 256.195312 72.472656 257.914062 74.375 259.558594 76.351562 C 261.199219 78.328125 262.757812 80.367188 264.234375 82.46875 C 265.707031 84.570312 267.09375 86.730469 268.390625 88.949219 C 269.6875 91.167969 270.894531 93.433594 272.003906 95.75 C 273.117188 98.066406 274.128906 100.421875 275.046875 102.820312 C 275.964844 105.222656 276.78125 107.65625 277.5 110.121094 C 278.214844 112.589844 278.832031 115.078125 279.34375 117.597656 C 279.855469 120.113281 280.265625 122.648438 280.566406 125.199219 C 280.875 127.757812 281.078125 130.324219 281.171875 132.898438 C 281.269531 135.472656 281.261719 138.042969 281.144531 140.617188 C 281.027344 143.191406 280.804688 145.757812 280.476562 148.3125 C 280.152344 150.867188 279.71875 153.402344 279.183594 155.921875 C 278.644531 158.441406 278.007812 160.9375 277.265625 163.402344 C 276.523438 165.871094 275.679688 168.300781 274.738281 170.699219 C 273.792969 173.097656 272.753906 175.453125 271.617188 177.761719 C 270.480469 180.074219 269.25 182.335938 267.929688 184.546875 C 266.605469 186.757812 265.191406 188.910156 263.691406 191.003906 C 262.191406 193.097656 260.609375 195.125 258.941406 197.089844 C 257.273438 199.050781 255.527344 200.941406 253.703125 202.761719 C 251.878906 204.582031 249.984375 206.324219 248.015625 207.984375 C 246.050781 209.648438 244.015625 211.230469 241.917969 212.722656 C 239.820312 214.21875 237.667969 215.628906 235.453125 216.945312 C 233.238281 218.261719 230.976562 219.488281 228.660156 220.617188 C 226.347656 221.75 223.992188 222.785156 221.589844 223.722656 Z M 221.589844 223.722656 "/></g></svg>