<?xml version="1.0" encoding="UTF-8"?><svg xmlns="http://www.w3.org/2000/svg" xmlns:xlink="http://www.w3.org/1999/xlink" contentScriptType="text/ecmascript" width="375pt" zoomAndPan="magnify" contentStyleType="text/css" viewBox="0 0 375 374.999991" height="374.999991pt" preserveAspectRatio="xMidYMid meet" version="1.2"><defs><clipPath xml:id="clip1" id="clip1"><path d="M 36 44.296875 L 323 44.296875 L 323 330.796875 L 36 330.796875 Z M 36 44.296875 "/></clipPath><clipPath xml:id="clip2" id="clip2"><path d="M 157 44.296875 L 211 44.296875 L 211 81 L 157 81 Z M 157 44.296875 "/></clipPath></defs><g xml:id="surface1" id="surface1"><g clip-rule="nonzero" clip-path="url(#clip1)"><path style=" stroke:none;fill-rule:nonzero;fill:rgb(0%,67.83905%,93.728638%);fill-opacity:1;" d="M 322.351562 187.75 C 322.351562 266.777344 258.328125 330.847656 179.347656 330.847656 C 100.371094 330.847656 36.347656 266.777344 36.347656 187.75 C 36.347656 108.71875 100.371094 44.65625 179.347656 44.65625 C 258.328125 44.65625 322.351562 108.71875 322.351562 187.75 "/></g><path style=" stroke:none;fill-rule:nonzero;fill:rgb(50.19989%,79.998779%,15.689087%);fill-opacity:1;" d="M 165.617188 216.582031 C 165.253906 215.792969 157.828125 209.9375 156.429688 209.5 C 151.523438 207.957031 149.867188 211.058594 147.863281 203.992188 C 145.355469 204.277344 142.777344 203.082031 140.632812 201.941406 C 136.488281 199.742188 138.382812 201.523438 136.605469 197.148438 C 134.109375 191.003906 131.734375 190.527344 126.808594 187.066406 C 124.054688 185.128906 120.519531 181.308594 117.160156 179.746094 C 113.203125 177.902344 108.359375 179.574219 104.246094 180.953125 C 104.035156 181.464844 104.234375 181.953125 104.097656 182.488281 C 103.601562 182.5 102.558594 182.351562 102.132812 182.464844 C 101.925781 180.535156 101.535156 178.652344 100.972656 176.894531 C 98.324219 178.304688 93.066406 186.554688 90.96875 180.835938 C 88.289062 179.917969 85.675781 181.886719 83.980469 178.90625 C 82.917969 177.042969 84.808594 172.433594 84.875 170.335938 C 81.574219 170.871094 79.960938 168.238281 77.003906 168.160156 C 78.542969 164.910156 79.445312 161.011719 81.40625 158.101562 C 79.839844 158.289062 76.921875 157.261719 75.640625 157.921875 C 74.054688 158.738281 73.597656 160.949219 72.828125 161.597656 C 71.101562 163.058594 72.34375 163.945312 69.191406 163.433594 C 68.046875 163.246094 66.410156 162.082031 65.945312 160.96875 C 63.371094 154.703125 71.996094 147.945312 76.085938 143.992188 C 79.140625 145.035156 84.957031 142.113281 87.738281 144.289062 C 90.09375 146.132812 88.316406 150.804688 91.324219 152.554688 C 94.019531 147.554688 90.832031 143.65625 95.28125 138.898438 C 98.390625 135.558594 102.015625 131.78125 104.507812 129.089844 C 109.164062 124.058594 121.238281 111.859375 127.214844 111.519531 C 127.128906 112.304688 127.238281 113.265625 127.09375 114.046875 C 129.394531 112.390625 131.160156 109.410156 134.179688 108.007812 C 134.300781 107.332031 134.351562 106.699219 134.410156 106.027344 C 129.734375 104.699219 127.867188 105.683594 123.035156 107.230469 C 125.945312 102.902344 129.917969 102.417969 134.097656 100.710938 C 136.933594 99.558594 142.925781 98.988281 145.355469 97.40625 C 150.917969 93.796875 145.085938 91.710938 143.496094 88.710938 C 142.152344 86.171875 143.875 85.601562 141.449219 84.449219 C 140.855469 84.171875 137.980469 85.539062 136.746094 84.992188 C 139.519531 76.082031 130.902344 80.316406 127.789062 86.0625 C 127.09375 87.363281 127.695312 89.285156 126.914062 90.484375 C 125.378906 92.832031 124.945312 92.070312 123.109375 93.550781 C 121.683594 94.695312 120.828125 94.3125 119.484375 95.617188 C 118.890625 96.195312 118.164062 98.894531 117.710938 99.757812 C 112.894531 101.230469 115.433594 93.382812 114.535156 90.890625 C 112.339844 91.460938 106.871094 94.277344 107.769531 91.035156 C 110.695312 89.246094 113.851562 85.550781 116.761719 83.367188 C 119.28125 81.46875 122.207031 78.863281 124.761719 77.25 C 126.4375 76.195312 142.960938 68.65625 134.226562 67.074219 C 130.441406 71.5 124.324219 71.71875 120.039062 73.050781 C 116.363281 74.191406 113 76.070312 109.679688 77.632812 C 105.363281 79.664062 98.914062 77.820312 96.898438 76.757812 C 94.816406 75.65625 78.15625 83.527344 65.707031 100.882812 C 47.902344 122.890625 42.621094 146.761719 43.558594 150.308594 C 44.300781 153.117188 45.351562 159.171875 48.375 160.597656 C 48.414062 156.617188 45.015625 144.375 48.3125 141.933594 C 49.394531 144.425781 49.886719 148.027344 50.644531 151.238281 C 51.394531 154.46875 53.085938 156.226562 53.480469 160.304688 C 53.601562 161.585938 53.320312 164.15625 53.878906 165.179688 C 55.101562 167.390625 56.078125 166.144531 57.625 167.316406 C 59.648438 168.855469 63.890625 174.210938 65.25 168.683594 C 68.164062 168.152344 71.699219 173.289062 74.332031 175.097656 C 77.257812 177.117188 80.195312 183.921875 83.351562 183.472656 C 83.015625 186.792969 85.976562 188.222656 88.597656 188.339844 C 88.355469 187.0625 88.898438 185.363281 88.632812 184.105469 C 97.101562 187.589844 86.589844 206.460938 89.253906 212.996094 C 90.519531 216.09375 92.433594 218.214844 94.253906 221.164062 C 95.769531 223.625 95.832031 226.070312 97.140625 228.289062 C 98.769531 231.042969 107.164062 236.378906 109.394531 235.546875 C 110.871094 242.195312 110.308594 249.152344 116.460938 254.742188 C 116.203125 258.15625 120.136719 273.007812 118.976562 273.476562 C 120.558594 276.523438 123.492188 280.613281 123.257812 283.535156 C 125.75 285.457031 125.582031 288.730469 127.488281 291.46875 C 129.140625 293.839844 130.550781 295.007812 132.851562 296.339844 C 133.519531 300.628906 135.679688 303.535156 143.179688 301.089844 C 142.640625 294.691406 138.1875 297.078125 138.667969 288.207031 C 138.71875 287.265625 134.039062 282.054688 134.359375 281.210938 C 134.808594 280.011719 138.980469 281.027344 139.476562 280.171875 C 140.738281 277.964844 138.726562 278.609375 137.777344 275.113281 C 137.449219 273.898438 133.3125 271.707031 135.546875 270.015625 C 136.546875 269.257812 140.125 272.226562 141.773438 272.160156 C 142.902344 269.472656 144.039062 266.832031 145.230469 263.980469 C 146.605469 260.695312 145.230469 256.421875 146.574219 253.019531 C 148.066406 249.21875 151.675781 247.6875 154.589844 245.894531 C 156.921875 244.46875 156.242188 247.632812 157.675781 243.839844 C 158.277344 242.261719 157.402344 238.917969 157.390625 237.117188 C 157.351562 230.921875 158.824219 231.976562 162.167969 227.71875 C 163.917969 225.488281 167.152344 219.914062 165.617188 216.582031 "/><path style=" stroke:none;fill-rule:nonzero;fill:rgb(50.19989%,79.998779%,15.689087%);fill-opacity:1;" d="M 145.222656 100.199219 C 143.023438 101.554688 139.476562 103.507812 140.082031 106.96875 C 142.144531 106.84375 152.824219 107.441406 152.941406 107.324219 C 155.925781 104.328125 146.1875 102.742188 146.257812 99.128906 C 145.609375 99.0625 144.972656 99.152344 144.289062 99.210938 "/><path style=" stroke:none;fill-rule:nonzero;fill:rgb(50.19989%,79.998779%,15.689087%);fill-opacity:1;" d="M 85.035156 157.28125 C 87.511719 158.550781 90.941406 155.757812 94.050781 157.527344 C 96.757812 159.066406 96.648438 162.726562 101.203125 161.429688 C 100.261719 159.503906 97.0625 157.828125 95.398438 156.628906 C 92.363281 154.449219 90.925781 154.375 87.414062 153.480469 C 87.160156 155.574219 86.664062 157.472656 84.964844 158.355469 "/><path style=" stroke:none;fill-rule:nonzero;fill:rgb(50.19989%,79.998779%,15.689087%);fill-opacity:1;" d="M 138.984375 75.933594 C 138.296875 76.589844 135.75 76.941406 133.898438 77.171875 C 135.210938 71.160156 142.40625 75.289062 142.316406 69.203125 C 142.265625 65.875 135.804688 66.273438 132.921875 67.210938 C 132.046875 64.144531 134.773438 61.457031 137.871094 60.949219 C 137.59375 62.320312 138.003906 63.429688 137.578125 64.898438 C 139.894531 63.996094 147.054688 59.292969 146.320312 63.800781 C 148.160156 63.242188 149.324219 63.863281 149.59375 65.679688 C 151.285156 65.539062 152.847656 65.699219 154.332031 66.238281 C 154.378906 66.972656 154.320312 67.769531 154.097656 68.546875 C 152.945312 68.621094 152.101562 69.511719 150.902344 69.53125 C 150.984375 71.363281 151.511719 72.367188 151.621094 74.234375 C 149.765625 74.898438 147.882812 74.558594 146.671875 73.949219 C 147.28125 81.332031 141.941406 78.386719 139.371094 76.359375 "/><path style=" stroke:none;fill-rule:nonzero;fill:rgb(50.19989%,79.998779%,15.689087%);fill-opacity:1;" d="M 99.605469 163.820312 C 102.710938 164.527344 102.765625 159.691406 105.582031 159.121094 C 107.230469 158.789062 112.226562 161.59375 113.902344 162.402344 C 113.855469 162.632812 113.847656 163.699219 113.867188 163.949219 C 111.03125 164.394531 109.007812 164.097656 106.539062 164.757812 C 104.746094 165.238281 103.015625 168.296875 100.605469 165.480469 "/><path style=" stroke:none;fill-rule:nonzero;fill:rgb(50.19989%,79.998779%,15.689087%);fill-opacity:1;" d="M 101.636719 74.089844 C 100.304688 77.949219 104.96875 73.789062 107.460938 73.183594 C 106.730469 74.128906 106.085938 75.832031 105.457031 76.757812 C 110.363281 75.78125 113.960938 74.421875 119.683594 71.410156 C 119.402344 70.078125 120.1875 69.890625 118.273438 70.175781 C 118.800781 69.289062 118.976562 67.964844 119.53125 67.097656 C 117.742188 67.601562 116.1875 69.429688 114.691406 69.800781 C 113.292969 70.136719 112.875 68.800781 111.675781 68.636719 C 109.089844 68.269531 105.070312 71.398438 101.636719 74.75 "/><g clip-rule="nonzero" clip-path="url(#clip2)"><path style=" stroke:none;fill-rule:nonzero;fill:rgb(50.19989%,79.998779%,15.689087%);fill-opacity:1;" d="M 170.308594 80.25 C 166.132812 80.003906 160.652344 74.921875 163.292969 70.195312 C 164.566406 67.914062 167.308594 68.226562 168.441406 65.570312 C 169.578125 62.90625 169.003906 60.0625 165.914062 61.6875 C 165.714844 59.320312 166.535156 57.316406 166.640625 55.042969 C 163.964844 54.175781 160.746094 55.03125 157.933594 55.203125 C 157.867188 54.523438 157.964844 53.699219 158.179688 52.988281 C 164.867188 50.882812 172.640625 44.777344 179.414062 44.65625 C 183.003906 44.59375 186.960938 47.085938 190.304688 47.351562 C 192.234375 47.503906 193.550781 46.667969 195.347656 46.847656 C 197.742188 47.082031 199.925781 48.628906 202.238281 48.96875 C 202.917969 46.546875 207.796875 48.789062 210.058594 49.515625 C 211.695312 53.847656 205.667969 51.582031 204.386719 54.347656 C 203.722656 55.785156 204.941406 58.066406 203.96875 59.28125 C 202.65625 60.925781 200.703125 60.042969 199.339844 61.269531 C 198.335938 62.179688 198.625 64.160156 196.855469 65.355469 C 195.582031 66.21875 193.46875 66.359375 191.878906 66.628906 C 187.625 67.347656 185.792969 67.355469 183.28125 71.796875 C 179.699219 71.964844 172.429688 70.996094 173.3125 76.96875 C 172.085938 77.570312 170.65625 78.457031 169.359375 78.722656 "/></g><path style=" stroke:none;fill-rule:nonzero;fill:rgb(50.19989%,79.998779%,15.689087%);fill-opacity:1;" d="M 128.359375 70.535156 C 127.710938 69.417969 127.679688 67.972656 128.289062 66.265625 C 132.042969 63.699219 136.460938 61.300781 135.679688 57.023438 C 131.496094 62.964844 125.546875 64.074219 124.417969 71.851562 C 125.34375 71.539062 126.097656 71.957031 126.824219 71.773438 "/><path style=" stroke:none;fill-rule:nonzero;fill:rgb(50.19989%,79.998779%,15.689087%);fill-opacity:1;" d="M 198.296875 70.53125 C 196.703125 70.859375 195.925781 71.203125 196.652344 73.34375 C 201.246094 75.320312 206.007812 74.660156 209.269531 72.992188 L 209.101562 71.644531 C 206.09375 71.015625 203.703125 70.757812 200.75 70.640625 C 200.5625 69.925781 200.167969 69.453125 199.953125 68.746094 C 199.066406 68.570312 198.417969 68.9375 197.742188 69.492188 "/><path style=" stroke:none;fill-rule:nonzero;fill:rgb(50.19989%,79.998779%,15.689087%);fill-opacity:1;" d="M 148.320312 58.910156 C 148.601562 58.269531 148.917969 58.191406 148.910156 57.523438 C 146.167969 57.28125 144.664062 59.742188 142.121094 60.582031 C 139.488281 61.449219 138.253906 59.789062 135.6875 60.425781 C 137.320312 57.933594 140.988281 56.765625 143.433594 55.679688 C 143.589844 55.082031 143.675781 54.570312 143.761719 54 C 142.742188 54.042969 142.3125 53.339844 141.222656 53.554688 C 142.519531 49.046875 146.964844 50.960938 149.246094 50.585938 C 150.296875 47.335938 168.3125 44.253906 169.277344 48.132812 C 166.039062 49.691406 155.488281 53.808594 152.726562 52.789062 C 152.363281 54.703125 151.398438 56.425781 149.542969 56.953125 C 149.445312 57.746094 148.953125 58.9375 148.96875 59.699219 C 148.421875 59.527344 148.542969 59.019531 148.394531 58.441406 "/><path style=" stroke:none;fill-rule:nonzero;fill:rgb(50.19989%,79.998779%,15.689087%);fill-opacity:1;" d="M 117.082031 67.0625 C 110.800781 64.933594 123.953125 61.246094 126.503906 61.6875 C 125.175781 62.492188 123.96875 63.800781 122.984375 65.5 C 120.78125 66.441406 117.40625 67.148438 116.039062 67.042969 "/><path style=" stroke:none;fill-rule:nonzero;fill:rgb(50.19989%,79.998779%,15.689087%);fill-opacity:1;" d="M 149.652344 61.492188 C 153.839844 62.707031 156.148438 63.355469 161.238281 61.054688 C 160.25 57.6875 151.074219 56.402344 148.832031 61.148438 "/><path style=" stroke:none;fill-rule:nonzero;fill:rgb(50.19989%,79.998779%,15.689087%);fill-opacity:1;" d="M 136.875 53.851562 C 134.972656 54.496094 132.21875 53.210938 130.1875 55.355469 C 126.265625 59.496094 132.027344 58.066406 132.601562 58.75 C 131.863281 59.261719 131.078125 60.15625 130.179688 60.707031 L 129.835938 61.914062 C 132.511719 61.347656 136.609375 56.011719 137.394531 53.304688 "/><path style=" stroke:none;fill-rule:nonzero;fill:rgb(50.19989%,79.998779%,15.689087%);fill-opacity:1;" d="M 288.527344 234.011719 C 287.261719 236.890625 283.945312 240.292969 286.222656 241.628906 C 289.191406 243.375 290.496094 239.132812 292.070312 236.304688 C 293.703125 233.390625 295.109375 230.6875 296.636719 227.496094 C 298.15625 224.292969 300.652344 221.175781 300.976562 217.773438 C 298.785156 216.757812 298.542969 218.496094 297.183594 219.722656 C 296.28125 220.542969 296.59375 221.742188 295.957031 222.488281 C 295.265625 223.304688 294.152344 223.394531 293.324219 224.316406 C 291.558594 226.300781 291.234375 225.683594 289.835938 228.179688 C 288.882812 229.886719 288.605469 232.453125 288.085938 234.121094 "/><path style=" stroke:none;fill-rule:nonzero;fill:rgb(50.19989%,79.998779%,15.689087%);fill-opacity:1;" d="M 224.683594 98.121094 C 222.132812 97 219.25 98.273438 217.046875 98.882812 C 215.640625 96.519531 217.972656 96.664062 218.617188 95.382812 C 219.03125 94.542969 219.332031 91.652344 219.0625 90.566406 C 217.140625 90.546875 216.210938 85.566406 217.046875 84.378906 C 217.515625 83.71875 219.1875 83.167969 220.125 83.816406 C 221.828125 85.003906 220.558594 86.078125 220.847656 87.4375 C 221.21875 89.183594 223.214844 91.988281 224.609375 93.425781 C 226.070312 94.925781 226.636719 93.886719 226.898438 96.324219 C 227.046875 97.765625 226.34375 98.101562 226 99.273438 C 225.730469 99.15625 225.765625 98.964844 225.503906 98.734375 "/><path style=" stroke:none;fill-rule:nonzero;fill:rgb(50.19989%,79.998779%,15.689087%);fill-opacity:1;" d="M 211.226562 96.03125 C 212.949219 95.101562 215.183594 95.015625 215.972656 93.285156 C 216.417969 92.308594 216.628906 87.804688 214.402344 87.945312 C 212.960938 88.039062 214.421875 89.917969 213.921875 90.707031 C 213.367188 91.582031 212.226562 90.890625 211.570312 91.585938 C 210.746094 92.453125 209.460938 96.019531 211.742188 96.070312 "/><path style=" stroke:none;fill-rule:nonzero;fill:rgb(50.19989%,79.998779%,15.689087%);fill-opacity:1;" d="M 302.453125 136.992188 C 301.632812 137.0625 300.789062 136.660156 299.953125 136.660156 C 299.863281 134.898438 299.800781 134.023438 299.652344 132.296875 C 299.40625 129.875 282.933594 119.050781 280.484375 109.449219 C 282.371094 109.554688 284.4375 110.503906 286.539062 112 C 287.964844 117.976562 293.992188 118.511719 297.464844 122.765625 C 299.8125 125.632812 302.152344 133.992188 302.453125 136.992188 Z M 286.464844 103.808594 C 280.765625 98.097656 275.261719 92.199219 270.53125 86.097656 C 270.0625 85.609375 269.597656 85.113281 269.132812 84.621094 C 267.710938 84.316406 266.265625 84.054688 264.800781 83.753906 C 267.519531 88.738281 260.800781 87.226562 259.660156 83.640625 C 261.6875 84.558594 264.636719 85.621094 262.898438 82.671875 C 262.230469 81.542969 260.566406 81.617188 259.71875 80.769531 C 258.558594 79.605469 258.78125 78.894531 257.480469 77.660156 C 252.6875 73.125 249.609375 73.09375 245.957031 72.71875 C 242.402344 68.550781 235.78125 72.542969 234.035156 74.585938 C 232.246094 76.683594 225.710938 82.804688 228.710938 87.464844 C 231.5 87.636719 234.796875 86.90625 237.335938 88.039062 C 237.273438 89.640625 237.492188 91.867188 238.167969 93.902344 L 239.457031 94.125 C 239.539062 93.6875 239.21875 93.21875 239.328125 92.800781 C 249.03125 95.671875 241.164062 84.660156 241.820312 81.554688 C 242.050781 80.457031 245.09375 78.160156 246.566406 79.421875 C 248.425781 81.019531 247.378906 84.492188 248.476562 87.195312 C 251.316406 88.277344 252.597656 85.84375 255.566406 88.589844 C 255.460938 90.507812 253.265625 90.308594 251.394531 90.25 C 252.050781 92.128906 252.375 94.136719 252.269531 95.695312 C 249.109375 98.964844 242.699219 94.476562 237.722656 94.378906 C 235.394531 94.332031 234.265625 96.367188 232.488281 97.433594 C 230.628906 98.53125 228.855469 98.828125 226.738281 99.996094 C 227.398438 105.957031 223.640625 102.300781 220.015625 102.4375 C 219.941406 103.238281 220.035156 104.128906 220.277344 104.953125 C 222.464844 105.609375 224.160156 107.265625 224.148438 109.582031 C 222.359375 110.132812 221.847656 110.890625 221.902344 113.191406 C 218.292969 112.292969 216.617188 111.035156 214.300781 113.839844 C 213.746094 114.503906 211.96875 120.808594 212.539062 122.128906 C 215.195312 128.292969 223.835938 123.308594 225.671875 121.082031 C 228.976562 117.074219 229.933594 111.019531 236.320312 113.550781 C 240.152344 115.078125 245.828125 123.203125 249.964844 122.859375 C 249.121094 116.484375 239.085938 113.808594 239.726562 108.808594 C 246.285156 110.007812 257.066406 126.542969 260.507812 124.660156 C 259.929688 123.050781 259.542969 121.351562 259.335938 119.597656 C 260.960938 120.941406 262.609375 121.300781 264.113281 120.691406 C 263.761719 118.617188 262.082031 112.402344 262.589844 110.875 C 263.851562 107.125 266.855469 111.652344 269.714844 112.792969 C 271.132812 113.359375 273.296875 112.902344 274.660156 113.914062 C 276.464844 115.25 276.183594 117.074219 277.191406 117.96875 C 279.765625 120.246094 284.808594 120.921875 284.890625 124.851562 C 278.992188 124.566406 273.949219 120.5 268.753906 123.308594 C 268.707031 123.335938 266.601562 125.296875 266.46875 125.460938 C 265.539062 126.589844 263.398438 124.496094 264.582031 127.8125 C 265.785156 131.195312 270.125 130.550781 272.625 130.894531 C 275.851562 131.335938 283.921875 132.9375 280.050781 137.820312 C 278.414062 139.890625 272.523438 136.691406 269.121094 136.355469 C 262.492188 135.699219 254.011719 138.363281 248.070312 132.871094 C 247.308594 132.167969 247.554688 130.039062 246.730469 129.46875 C 245.78125 128.8125 244.117188 129.382812 243.710938 129.105469 C 243.316406 128.835938 241.570312 128.90625 240.941406 128.621094 C 239.890625 128.128906 239.808594 125.542969 238.691406 125.082031 C 234.730469 123.441406 230.789062 127.0625 227.351562 127.308594 C 222.964844 127.625 219.441406 124.765625 214.949219 126.722656 C 209.609375 129.050781 209.871094 133.464844 210.03125 139.191406 C 210.035156 139.425781 210.042969 139.542969 210.054688 139.777344 C 209.980469 141.847656 209.847656 143.488281 209.585938 145.53125 C 201.554688 145.511719 200.679688 150.203125 198.707031 158.09375 C 197.4375 163.171875 195.625 175.550781 197.488281 180.515625 C 199.132812 184.898438 207.371094 190.859375 212.265625 191.921875 C 216.074219 192.75 217.910156 192.050781 221.269531 190.488281 C 225.945312 188.308594 224.621094 188.292969 229.59375 189.949219 C 232.949219 191.066406 239.089844 190.066406 241.445312 192.746094 C 243.660156 195.261719 242.667969 202.179688 243.816406 205.535156 C 246.828125 214.285156 246.78125 220.65625 244.816406 229.707031 C 243.953125 233.679688 244.695312 237.410156 245.074219 241.164062 C 245.449219 244.867188 245.15625 249.082031 245.488281 252.609375 C 245.804688 255.933594 247.59375 258.175781 247.660156 261.199219 C 247.703125 263.25 246.261719 264.953125 247.175781 266.390625 C 248.828125 268.972656 249.382812 266.246094 251.105469 265.324219 C 254.066406 263.738281 259.011719 261.769531 261.707031 259.089844 C 265.613281 255.199219 267.636719 250.027344 270.003906 245.789062 C 272.867188 240.664062 278.074219 237.480469 280.5 232.789062 C 281.722656 230.429688 281.222656 229.082031 282.777344 227.027344 C 284.445312 224.816406 286.335938 224.648438 287.492188 221.921875 C 289.335938 217.570312 286.269531 214.546875 287.996094 210.132812 C 289.289062 206.855469 292.9375 202.960938 294.992188 200.140625 C 298.554688 195.246094 306.453125 185.082031 305.59375 179.851562 C 300.058594 181.53125 289.269531 180.199219 293.882812 171.207031 C 294.777344 172.40625 295.757812 174.199219 296.328125 175.71875 C 298.277344 175.917969 301.289062 175.839844 302.878906 174.828125 C 304.96875 173.496094 304.777344 171.089844 306.34375 169.355469 C 309.054688 166.347656 314.246094 167.632812 314.160156 162.300781 C 314.148438 161.667969 312.089844 156.703125 311.511719 156.257812 C 309.152344 154.460938 308.160156 156.71875 306.25 156.125 C 302.464844 154.949219 297.0625 149.082031 296.894531 144.847656 C 300.1875 144.308594 300.777344 146.46875 303.167969 148.457031 C 307.074219 151.707031 307.753906 151.476562 311.9375 152.609375 C 313.949219 153.152344 317.121094 162.046875 320.195312 162.878906 C 319.367188 158.347656 316.730469 146.46875 313.96875 139.363281 C 310.527344 133.253906 310.167969 131.136719 305.519531 124.878906 C 299 118.246094 292.714844 111.089844 286.464844 103.808594 "/><path style=" stroke:none;fill-rule:nonzero;fill:rgb(91.369629%,91.369629%,91.369629%);fill-opacity:1;" d="M 186.132812 181.058594 C 186.132812 181.058594 172.1875 215.429688 116.691406 221.753906 C 64.410156 227.710938 16.308594 220.042969 14.546875 206.957031 C 12.8125 194.101562 34.628906 184.527344 34.628906 184.527344 C 34.628906 184.527344 -0.03125 197.839844 -0.03125 209.621094 C -0.03125 226.253906 24.550781 252.339844 125.347656 252.65625 C 173.132812 252.808594 211.269531 236.550781 211.269531 236.550781 L 216.261719 200.347656 L 186.132812 181.058594 "/><path style=" stroke:none;fill-rule:nonzero;fill:rgb(85.488892%,85.099792%,85.099792%);fill-opacity:1;" d="M 191.148438 185.75 C 191.148438 185.75 191.828125 206.957031 157.914062 218.699219 C 97.417969 239.648438 34.972656 223.324219 34.972656 223.324219 C 34.972656 223.324219 90.894531 242.242188 151.316406 226.671875 C 188.847656 217 198.320312 192.460938 198.320312 192.460938 L 191.148438 185.75 "/><path style=" stroke:none;fill-rule:nonzero;fill:rgb(85.488892%,85.099792%,85.099792%);fill-opacity:1;" d="M 213.261719 207.074219 C 213.261719 207.074219 189.0625 234.644531 138.574219 244.4375 C 75.734375 256.632812 16.511719 229.082031 16.511719 229.082031 C 16.511719 229.082031 78.347656 259.183594 140.011719 249.671875 C 209.652344 238.933594 219.257812 214.859375 219.257812 214.859375 L 213.261719 207.074219 "/><path style=" stroke:none;fill-rule:nonzero;fill:rgb(85.488892%,85.099792%,85.099792%);fill-opacity:1;" d="M 202.320312 190.632812 C 202.320312 190.632812 206.046875 207.949219 174.519531 223.382812 C 117.015625 251.527344 51.4375 231.558594 51.4375 231.558594 C 51.4375 231.558594 111.339844 252.820312 169.324219 229.753906 C 207.449219 214.585938 209.496094 197.34375 209.496094 197.34375 L 202.320312 190.632812 "/><path style=" stroke:none;fill-rule:nonzero;fill:rgb(82.749939%,82.348633%,82.348633%);fill-opacity:1;" d="M 308.269531 194.875 C 306.132812 195.824219 303.632812 194.855469 302.683594 192.71875 C 301.734375 190.578125 302.695312 188.070312 304.835938 187.121094 L 321.1875 179.863281 C 323.324219 178.914062 325.824219 179.878906 326.773438 182.019531 C 327.722656 184.15625 326.761719 186.664062 324.625 187.613281 L 308.269531 194.875 "/><path style=" stroke:none;fill-rule:nonzero;fill:rgb(82.749939%,82.348633%,82.348633%);fill-opacity:1;" d="M 307.734375 215.722656 C 305.597656 216.671875 303.09375 215.707031 302.144531 213.566406 C 301.199219 211.425781 302.160156 208.925781 304.296875 207.976562 L 320.648438 200.710938 C 322.785156 199.761719 325.289062 200.730469 326.238281 202.867188 C 327.1875 205.007812 326.222656 207.511719 324.082031 208.464844 L 307.734375 215.722656 "/><path style=" stroke:none;fill-rule:nonzero;fill:rgb(88.62915%,88.62915%,88.62915%);fill-opacity:1;" d="M 306.566406 251.113281 C 304.265625 243.582031 284.792969 179.761719 284.792969 179.761719 C 284.792969 179.761719 317.421875 157.96875 321.140625 170.015625 C 325.308594 183.519531 318.121094 240.617188 316.375 251.28125 C 315.238281 258.214844 308.863281 258.644531 306.566406 251.113281 "/><path style=" stroke:none;fill-rule:nonzero;fill:rgb(100%,100%,100%);fill-opacity:1;" d="M 306.910156 249.804688 C 304.664062 242.566406 285.609375 181.238281 285.609375 181.238281 C 285.609375 181.238281 314.6875 158.488281 318.320312 170.066406 C 322.398438 183.042969 317.539062 239.925781 316.058594 250.105469 C 315.09375 256.722656 309.164062 257.046875 306.910156 249.804688 "/><path style=" stroke:none;fill-rule:nonzero;fill:rgb(75.689697%,19.999695%,19.219971%);fill-opacity:1;" d="M 306.566406 251.113281 C 304.265625 243.582031 284.792969 179.761719 284.792969 179.761719 L 289.007812 177.105469 C 289.007812 177.105469 308.1875 246.160156 311.457031 256.597656 C 309.570312 256.382812 307.628906 254.601562 306.566406 251.113281 "/><path style=" stroke:none;fill-rule:nonzero;fill:rgb(82.749939%,82.348633%,82.348633%);fill-opacity:1;" d="M 280.382812 133.839844 C 278.265625 134.835938 277.355469 137.363281 278.347656 139.476562 C 279.339844 141.597656 281.863281 142.511719 283.980469 141.515625 L 300.175781 133.917969 C 302.292969 132.921875 303.207031 130.398438 302.210938 128.277344 C 301.21875 126.160156 298.695312 125.25 296.574219 126.242188 L 280.382812 133.839844 "/><path style=" stroke:none;fill-rule:nonzero;fill:rgb(82.749939%,82.348633%,82.348633%);fill-opacity:1;" d="M 264.292969 120.589844 C 262.175781 121.578125 261.261719 124.105469 262.253906 126.222656 C 263.25 128.34375 265.769531 129.257812 267.890625 128.261719 L 284.082031 120.660156 C 286.199219 119.667969 287.113281 117.140625 286.121094 115.027344 C 285.125 112.902344 282.605469 111.992188 280.488281 112.988281 L 264.292969 120.589844 "/><path style=" stroke:none;fill-rule:nonzero;fill:rgb(88.62915%,88.62915%,88.62915%);fill-opacity:1;" d="M 236.808594 98.28125 C 240.988281 104.953125 276.40625 161.492188 276.40625 161.492188 C 276.40625 161.492188 314.238281 151.109375 307.582031 140.402344 C 300.117188 128.40625 252.304688 96.421875 243.105469 90.757812 C 237.128906 87.074219 232.628906 91.609375 236.808594 98.28125 "/><path style=" stroke:none;fill-rule:nonzero;fill:rgb(100%,100%,100%);fill-opacity:1;" d="M 238.023438 98.878906 C 242.015625 105.316406 275.824219 159.910156 275.824219 159.910156 C 275.824219 159.910156 312.050781 152.839844 305.699219 142.503906 C 298.574219 130.917969 252.445312 97.316406 243.789062 91.769531 C 238.164062 88.15625 234.035156 92.429688 238.023438 98.878906 "/><path style=" stroke:none;fill-rule:nonzero;fill:rgb(75.689697%,19.999695%,19.219971%);fill-opacity:1;" d="M 236.808594 98.28125 C 240.988281 104.953125 276.40625 161.492188 276.40625 161.492188 L 281.171875 160.042969 C 281.171875 160.042969 241.609375 100.296875 235.871094 90.988281 C 234.796875 92.558594 234.875 95.191406 236.808594 98.28125 "/><path style=" stroke:none;fill-rule:nonzero;fill:rgb(75.689697%,19.999695%,19.219971%);fill-opacity:1;" d="M 221.625 208.792969 C 216.765625 211.011719 208.15625 208.613281 206.269531 203.484375 C 204.578125 198.890625 209.117188 191.726562 213.027344 189.941406 L 337.003906 127.113281 C 345.28125 123.332031 368.351562 122.109375 371.675781 129.394531 C 374.996094 136.679688 358.960938 153.324219 350.683594 157.101562 L 221.625 208.792969 "/><path style=" stroke:none;fill-rule:nonzero;fill:rgb(91.369629%,91.369629%,91.369629%);fill-opacity:1;" d="M 220.875 207.140625 C 216.007812 209.359375 207.996094 211.667969 205.089844 205.296875 C 202.425781 199.457031 209.9375 193.535156 213.851562 191.746094 L 341 125.761719 C 349.273438 121.976562 368.960938 123.449219 371.675781 129.394531 C 374.386719 135.34375 363.917969 150.242188 355.640625 154.015625 L 220.875 207.140625 "/><path style=" stroke:none;fill-rule:nonzero;fill:rgb(74.119568%,73.728943%,73.728943%);fill-opacity:1;" d="M 349.601562 150.921875 C 348.359375 143.980469 345.390625 137.464844 340.960938 131.972656 C 343.488281 129.933594 346.015625 127.894531 348.539062 125.851562 C 354 132.613281 357.664062 140.648438 359.195312 149.210938 C 355.996094 149.78125 352.800781 150.351562 349.601562 150.921875 "/><path style=" stroke:none;fill-rule:nonzero;fill:rgb(32.939148%,77.249146%,73.329163%);fill-opacity:1;" d="M 350.144531 149.574219 C 349.140625 143.957031 345.921875 136.894531 342.335938 132.453125 C 344.378906 130.796875 346.425781 129.144531 348.46875 127.492188 C 352.894531 132.96875 356.671875 141.253906 357.910156 148.1875 C 355.324219 148.648438 352.730469 149.113281 350.144531 149.574219 "/><path style=" stroke:none;fill-rule:nonzero;fill:rgb(100%,100%,100%);fill-opacity:1;" d="M 211.269531 236.550781 L 210.976562 208.152344 C 210.976562 208.152344 218.03125 209.847656 226.214844 206.957031 C 225.613281 208.535156 217.832031 231.242188 216.328125 233.101562 C 214.820312 234.957031 211.269531 236.550781 211.269531 236.550781 "/><path style=" stroke:none;fill-rule:nonzero;fill:rgb(100%,100%,100%);fill-opacity:1;" d="M 186.132812 181.058594 L 206.058594 199.695312 C 206.058594 199.695312 208.285156 192.640625 216.335938 188.261719 C 214.386719 187.546875 193.234375 179.199219 191.746094 179.207031 C 190.257812 179.210938 186.132812 181.058594 186.132812 181.058594 "/></g></svg>